<svg width="22" height="16" viewBox="0 0 22 16" fill="none" xmlns="http://www.w3.org/2000/svg">
<path d="M19.9998 6.5H5.61484L9.06485 3.065C9.3473 2.78255 9.50598 2.39946 9.50598 2C9.50598 1.60055 9.3473 1.21746 9.06485 0.935003C8.78239 0.652547 8.3993 0.493866 7.99984 0.493866C7.60039 0.493866 7.2173 0.652547 6.93484 0.935003L0.934845 6.935C0.798284 7.07766 0.691236 7.24588 0.619844 7.43C0.469817 7.79519 0.469817 8.20481 0.619844 8.57C0.691236 8.75413 0.798284 8.92235 0.934845 9.065L6.93484 15.065C7.07429 15.2056 7.24019 15.3172 7.42298 15.3933C7.60577 15.4695 7.80183 15.5087 7.99984 15.5087C8.19786 15.5087 8.39392 15.4695 8.57671 15.3933C8.7595 15.3172 8.9254 15.2056 9.06485 15.065C9.20544 14.9256 9.31703 14.7597 9.39318 14.5769C9.46933 14.3941 9.50854 14.198 9.50854 14C9.50854 13.802 9.46933 13.6059 9.39318 13.4231C9.31703 13.2403 9.20544 13.0744 9.06485 12.935L5.61484 9.5H19.9998C20.3977 9.5 20.7792 9.34197 21.0605 9.06066C21.3418 8.77936 21.4998 8.39783 21.4998 8C21.4998 7.60218 21.3418 7.22065 21.0605 6.93934C20.7792 6.65804 20.3977 6.5 19.9998 6.5Z" fill="#FFFAFF"/>
</svg>
