<svg width="24" height="24" viewBox="0 0 24 24" fill="none" xmlns="http://www.w3.org/2000/svg">
<mask id="mask0_270_2573" style="mask-type:luminance" maskUnits="userSpaceOnUse" x="0" y="0" width="24" height="24">
<rect width="24" height="24" fill="white"/>
</mask>
<g mask="url(#mask0_270_2573)">
<path d="M10.2529 5.8844L10.5313 10.0244L10.6695 12.1052C10.671 12.3192 10.7045 12.5318 10.7692 12.7361C10.9361 13.1327 11.3377 13.3847 11.7746 13.3671L18.4318 12.9316C18.7201 12.9269 18.9985 13.0347 19.2057 13.2314C19.3784 13.3953 19.4899 13.6097 19.5251 13.8403L19.5369 13.9803C19.2614 17.795 16.4597 20.9768 12.6529 21.7981C8.84604 22.6194 4.94235 20.8844 3.0612 17.535C2.51888 16.5619 2.18014 15.4924 2.06487 14.3891C2.01672 14.0625 1.99552 13.7326 2.00147 13.4026C1.99552 9.31279 4.90796 5.77702 8.98482 4.92463C9.4755 4.84822 9.95652 5.10798 10.1533 5.55559C10.2042 5.65925 10.2378 5.77027 10.2529 5.8844Z" fill="white"/>
<path opacity="0.4" d="M22 9.81217L21.993 9.84476L21.9728 9.89215L21.9756 10.0223C21.9652 10.1946 21.8986 10.3604 21.784 10.4944C21.6645 10.6339 21.5013 10.7289 21.3216 10.7658L21.212 10.7808L13.5312 11.2785C13.2757 11.3037 13.0213 11.2213 12.8314 11.0519C12.673 10.9106 12.5718 10.72 12.5432 10.5146L12.0277 2.84494C12.0187 2.81901 12.0187 2.7909 12.0277 2.76496C12.0347 2.55355 12.1278 2.35372 12.2861 2.21011C12.4443 2.0665 12.6547 1.99108 12.87 2.0007C17.4299 2.11671 21.2623 5.39567 22 9.81217Z" fill="#A3A3A3"/>
</g>
</svg>
