<svg width="16" height="16" viewBox="0 0 16 16" fill="none" xmlns="http://www.w3.org/2000/svg">
<g id="Export Icon">
<g id="Group 923">
<path id="Union" fill-rule="evenodd" clip-rule="evenodd" d="M11.1009 5.11293L8.43924 2.83175C8.31497 2.72281 8.15808 2.66707 8.00038 2.66699C7.89247 2.66694 7.78418 2.69294 7.68568 2.74577C7.64179 2.76926 7.60008 2.79794 7.56152 2.83175L4.89984 5.11293C4.62027 5.35253 4.58788 5.7734 4.82748 6.05296C5.06708 6.33253 5.48794 6.36492 5.7675 6.12532L7.33367 4.78305V9.94614C7.33367 10.3143 7.63214 10.6128 8.00033 10.6128C8.36852 10.6128 8.667 10.3143 8.667 9.94614L8.667 4.78297L10.2333 6.12532C10.5128 6.36492 10.9337 6.33253 11.1733 6.05296C11.4129 5.7734 11.3805 5.35253 11.1009 5.11293ZM4.00033 9.33366C4.00033 8.96547 4.2988 8.66699 4.66699 8.66699H5.66699C6.03518 8.66699 6.33366 8.36852 6.33366 8.00033C6.33366 7.63214 6.03518 7.33366 5.66699 7.33366H4.66699C3.56242 7.33366 2.66699 8.22909 2.66699 9.33366V11.3337C2.66699 12.4382 3.56242 13.3337 4.66699 13.3337H11.3337C12.4382 13.3337 13.3337 12.4382 13.3337 11.3337V9.33366C13.3337 8.22909 12.4382 7.33366 11.3337 7.33366H10.3337C9.96547 7.33366 9.66699 7.63214 9.66699 8.00033C9.66699 8.36852 9.96547 8.66699 10.3337 8.66699H11.3337C11.7018 8.66699 12.0003 8.96547 12.0003 9.33366V11.3337C12.0003 11.7018 11.7018 12.0003 11.3337 12.0003H4.66699C4.2988 12.0003 4.00033 11.7018 4.00033 11.3337V9.33366Z" fill="#FFFAFF"/>
</g>
</g>
</svg>
