<svg width="100" height="100" viewBox="0 0 100 100" fill="none" xmlns="http://www.w3.org/2000/svg">
<circle cx="50" cy="50" r="50" fill="#D9D9D9"/>
<path d="M64 30H36C34.4087 30 32.8826 30.6321 31.7574 31.7574C30.6321 32.8826 30 34.4087 30 36V64C30 65.5913 30.6321 67.1174 31.7574 68.2426C32.8826 69.3679 34.4087 70 36 70H64C64.329 69.9954 64.6569 69.962 64.98 69.9L65.58 69.76H65.72H65.82L66.56 69.48L66.82 69.34C67.02 69.22 67.24 69.12 67.44 68.98C67.7071 68.7835 67.9609 68.5697 68.2 68.34L68.34 68.16C68.5364 67.961 68.7169 67.747 68.88 67.52L69.06 67.26C69.1997 67.0373 69.3201 66.8032 69.42 66.56C69.4749 66.464 69.5217 66.3637 69.56 66.26C69.66 66.02 69.72 65.76 69.8 65.5V65.2C69.9134 64.8092 69.9805 64.4064 70 64V36C70 34.4087 69.3679 32.8826 68.2426 31.7574C67.1174 30.6321 65.5913 30 64 30ZM36 66C35.4696 66 34.9609 65.7893 34.5858 65.4142C34.2107 65.0391 34 64.5304 34 64V55.38L40.58 48.78C40.7659 48.5925 40.9871 48.4438 41.2308 48.3422C41.4746 48.2407 41.736 48.1884 42 48.1884C42.264 48.1884 42.5254 48.2407 42.7692 48.3422C43.0129 48.4438 43.2341 48.5925 43.42 48.78L60.62 66H36ZM66 64C65.9981 64.2466 65.9507 64.4907 65.86 64.72C65.8143 64.8175 65.7608 64.9111 65.7 65C65.6465 65.0847 65.5863 65.1649 65.52 65.24L54.82 54.54L56.58 52.78C56.7659 52.5925 56.9871 52.4438 57.2308 52.3422C57.4746 52.2407 57.736 52.1884 58 52.1884C58.264 52.1884 58.5254 52.2407 58.7692 52.3422C59.0129 52.4438 59.2341 52.5925 59.42 52.78L66 59.38V64ZM66 53.72L62.24 50C61.0954 48.914 59.5778 48.3086 58 48.3086C56.4222 48.3086 54.9046 48.914 53.76 50L52 51.76L46.24 46C45.0954 44.914 43.5778 44.3086 42 44.3086C40.4222 44.3086 38.9046 44.914 37.76 46L34 49.72V36C34 35.4696 34.2107 34.9609 34.5858 34.5858C34.9609 34.2107 35.4696 34 36 34H64C64.5304 34 65.0391 34.2107 65.4142 34.5858C65.7893 34.9609 66 35.4696 66 36V53.72ZM53 38C52.4067 38 51.8266 38.1759 51.3333 38.5056C50.8399 38.8352 50.4554 39.3038 50.2284 39.8519C50.0013 40.4001 49.9419 41.0033 50.0576 41.5853C50.1734 42.1672 50.4591 42.7018 50.8787 43.1213C51.2982 43.5409 51.8328 43.8266 52.4147 43.9424C52.9967 44.0581 53.5999 43.9987 54.1481 43.7716C54.6962 43.5446 55.1648 43.1601 55.4944 42.6667C55.8241 42.1734 56 41.5933 56 41C56 40.2044 55.6839 39.4413 55.1213 38.8787C54.5587 38.3161 53.7956 38 53 38Z" fill="black"/>
</svg>
