<svg width="32" height="32" viewBox="0 0 32 32" fill="none" xmlns="http://www.w3.org/2000/svg">
<path d="M16.9596 18.8795V17.5995H14.3996C14.0476 17.5995 13.7596 17.3115 13.7596 16.9595V14.3995C13.7596 14.0475 14.0476 13.7595 14.3996 13.7595H15.3596V12.4795C15.3596 12.1275 15.6476 11.8395 15.9996 11.8395C16.3516 11.8395 16.6396 12.1275 16.6396 12.4795V13.7595H17.5996C17.9516 13.7595 18.2396 14.0475 18.2396 14.3995C18.2396 14.7515 17.9516 15.0395 17.5996 15.0395H15.0396V16.3195H17.5996C17.9516 16.3195 18.2396 16.6075 18.2396 16.9595V19.5195C18.2396 19.8715 17.9516 20.1595 17.5996 20.1595H16.6396V21.4395C16.6396 21.7915 16.3516 22.0795 15.9996 22.0795C15.6476 22.0795 15.3596 21.7915 15.3596 21.4395V20.1595H14.3996C14.0476 20.1595 13.7596 19.8715 13.7596 19.5195C13.7596 19.1675 14.0476 18.8795 14.3996 18.8795H16.9596ZM30.3996 4.15953V12.4795C30.3996 12.8315 30.1116 13.1195 29.7596 13.1195H23.9996V26.6555C23.9996 26.6875 23.9996 26.6875 23.9676 26.7195C23.9676 26.7515 23.9676 26.7515 23.9356 26.7835C23.9356 26.8155 23.9036 26.8155 23.9036 26.8475C23.9036 26.8795 23.8716 26.8795 23.8716 26.9115C23.8716 26.9435 23.8396 26.9435 23.8396 26.9755C23.8396 27.0075 23.8076 27.0075 23.8076 27.0075L23.7436 27.0715L23.7116 27.1035L21.8556 28.3835H21.8236C21.7916 28.4155 21.7596 28.4155 21.6956 28.4475C21.6636 28.4475 21.6636 28.4475 21.6316 28.4795C21.5676 28.4795 21.5356 28.5115 21.4716 28.5115C21.4076 28.5115 21.3756 28.5115 21.3116 28.4795C21.2796 28.4795 21.2796 28.4795 21.2476 28.4475C21.2156 28.4475 21.1836 28.4155 21.1196 28.3835H21.0876L19.6156 27.3595L18.1436 28.3835H18.1116C18.0796 28.4155 18.0476 28.4155 17.9836 28.4475C17.9516 28.4475 17.9516 28.4475 17.9196 28.4795C17.8556 28.4795 17.8236 28.5115 17.7596 28.5115C17.6956 28.5115 17.6636 28.5115 17.5996 28.4795C17.5676 28.4795 17.5676 28.4795 17.5356 28.4475C17.5036 28.4475 17.4716 28.4155 17.4076 28.3835H17.3756L15.9996 27.3275L14.5276 28.3515H14.4956C14.4636 28.3835 14.4316 28.3835 14.3676 28.4155C14.3356 28.4155 14.3356 28.4155 14.3036 28.4475C14.2396 28.4475 14.2076 28.4795 14.1436 28.4795C14.0796 28.4795 14.0476 28.4795 13.9836 28.4475C13.9516 28.4475 13.9516 28.4475 13.9196 28.4155C13.8876 28.4155 13.8556 28.3835 13.7916 28.3515H13.7596L12.2876 27.3275L10.8156 28.3515H10.7836C10.7516 28.3835 10.7196 28.3835 10.6556 28.4155C10.6236 28.4155 10.6236 28.4155 10.5916 28.4475C10.5276 28.4475 10.4956 28.4795 10.4316 28.4795C10.3676 28.4795 10.3356 28.4795 10.2716 28.4475C10.2396 28.4475 10.2396 28.4475 10.2076 28.4155C10.1756 28.4155 10.1436 28.3835 10.0796 28.3515H10.0476L8.22361 27.0715L8.19161 27.0395L8.12761 26.9755L8.09561 26.9435C8.09561 26.9115 8.06361 26.9115 8.06361 26.8795C8.06361 26.8475 8.03161 26.8475 8.03161 26.8155C8.03161 26.7835 7.99961 26.7835 7.99961 26.7515C7.99961 26.7195 7.99961 26.7195 7.96761 26.6875C7.96761 26.6555 7.96761 26.6555 7.93561 26.6235V13.1195H2.23961C1.88761 13.1195 1.59961 12.8315 1.59961 12.4795V4.15953C1.59961 3.80753 1.88761 3.51953 2.23961 3.51953H29.6956C30.1116 3.51953 30.3996 3.80753 30.3996 4.15953ZM9.27961 7.99953V26.2395L10.4956 27.0715L11.9676 26.0475C11.9996 26.0475 11.9996 26.0155 12.0316 26.0155L12.0636 25.9835C12.0956 25.9835 12.0956 25.9835 12.1276 25.9515H12.4476C12.4796 25.9515 12.4796 25.9515 12.5116 25.9835C12.5436 25.9835 12.5436 25.9835 12.5756 26.0155C12.6076 26.0155 12.6076 26.0155 12.6076 26.0475C12.6396 26.0475 12.6396 26.0795 12.6716 26.0795L14.1436 27.1035L15.6156 26.0795C15.6476 26.0795 15.6476 26.0475 15.6796 26.0475L15.7116 26.0155C15.7436 26.0155 15.7436 26.0155 15.7756 25.9835H16.0956C16.1276 25.9835 16.1276 25.9835 16.1596 26.0155C16.1916 26.0155 16.1916 26.0155 16.2236 26.0475C16.2556 26.0475 16.2556 26.0475 16.2556 26.0795C16.2876 26.0795 16.2876 26.1115 16.3196 26.1115L17.7916 27.1355L19.2636 26.1115C19.2956 26.1115 19.2956 26.0795 19.3276 26.0795C19.3596 26.0795 19.3596 26.0475 19.3916 26.0475C19.4236 26.0475 19.4236 26.0475 19.4556 26.0155C19.4876 26.0155 19.4876 26.0155 19.5196 25.9835H19.7756C19.8076 25.9835 19.8076 25.9835 19.8396 26.0155C19.8716 26.0155 19.8716 26.0155 19.9036 26.0475C19.9356 26.0475 19.9356 26.0795 19.9676 26.0795C19.9996 26.0795 19.9996 26.1115 20.0316 26.1115L21.5036 27.1355L22.7196 26.2395V7.99953H9.27961ZM23.9996 11.8395H29.1196V4.79953H2.87961V11.8395H7.99961V7.99953H6.07961V9.27953C6.07961 9.63153 5.79161 9.91953 5.43961 9.91953C5.08761 9.91953 4.79961 9.63153 4.79961 9.27953V7.35953C4.79961 7.00753 5.08761 6.71953 5.43961 6.71953H26.5596C26.9116 6.71953 27.1996 7.00753 27.1996 7.35953V9.27953C27.1996 9.63153 26.9116 9.91953 26.5596 9.91953C26.2076 9.91953 25.9196 9.63153 25.9196 9.27953V7.99953H23.9996V11.8395Z" fill="#FFFAFF"/>
</svg>
