<svg width="463" height="463" viewBox="0 0 463 463" fill="none" xmlns="http://www.w3.org/2000/svg">
<rect x="0.579228" y="69.8075" width="398.67" height="398.67" transform="rotate(-10 0.579228 69.8075)" stroke="#D8315B"/>
<path d="M408 226.859C408 226.859 399.2 153.259 359.2 107.659C319.2 62.0593 238.4 49.2593 193.6 62.8593C148.8 76.4593 129.6 141.259 117.6 157.259C105.6 173.259 61.5999 189.259 52.7999 225.259C43.9999 261.259 95.1999 287.659 102.4 309.259C109.6 330.859 91.9999 359.659 140.8 390.859C189.6 422.059 228 416.459 279.2 395.659C330.4 374.859 376 398.859 398.4 352.459C420.8 306.059 408 226.859 408 226.859Z" fill="#0000FE"/>
<path opacity="0.7" d="M408 226.859C408 226.859 399.2 153.259 359.2 107.659C319.2 62.0593 238.4 49.2593 193.6 62.8593C148.8 76.4593 129.6 141.259 117.6 157.259C105.6 173.259 61.5999 189.259 52.7999 225.259C43.9999 261.259 95.1999 287.659 102.4 309.259C109.6 330.859 91.9999 359.659 140.8 390.859C189.6 422.059 228 416.459 279.2 395.659C330.4 374.859 376 398.859 398.4 352.459C420.8 306.059 408 226.859 408 226.859Z" fill="#0187FD"/>
<path opacity="0.2" d="M370.56 67.9148L205.405 55.7865L185.543 326.258L350.698 338.386L370.56 67.9148Z" fill="#263238"/>
<path d="M365.76 62.3143L200.604 50.186L180.742 320.658L345.897 332.786L365.76 62.3143Z" fill="white" stroke="#263238" stroke-miterlimit="10"/>
<path d="M267.688 79.7553V80.2513L265.744 80.1073L265.792 79.5073C265.912 77.8593 265.352 76.8433 263.888 76.7313C262.424 76.6193 261.728 77.5313 261.608 79.1313C261.304 83.2433 267.424 84.0833 267.048 89.2433C266.848 92.0193 265.376 93.7233 262.576 93.5153C259.776 93.3073 258.576 91.4113 258.8 88.6353L258.88 87.5873L260.792 87.7313L260.704 88.8833C260.584 90.5313 261.192 91.5473 262.664 91.6593C264.136 91.7713 264.88 90.8593 265 89.1953C265.296 85.1153 259.2 84.2753 259.584 79.1153C259.792 76.2913 261.224 74.6273 263.976 74.8353C266.728 75.0433 267.896 76.9793 267.688 79.7553Z" fill="#263238"/>
<path d="M271.12 94.0033L272.32 77.5393L268.944 77.2593L269.08 75.4033L277.88 76.0433L277.736 77.9073L274.36 77.6593L273.152 94.1233L271.12 94.0033Z" fill="#263238"/>
<path d="M278.752 80.5873C278.96 77.7873 280.48 76.0833 283.28 76.2913C286.08 76.4993 287.36 78.4033 287.16 81.2033L286.464 90.6833C286.256 93.4593 284.736 95.1873 281.912 94.9793C279.088 94.7713 277.856 92.8433 278.064 90.0673L278.752 80.5873ZM280.072 90.3153C279.944 91.9953 280.584 93.0113 282.048 93.1233C283.512 93.2353 284.288 92.3233 284.448 90.6353L285.152 80.9553C285.28 79.3073 284.672 78.2593 283.176 78.1473C281.68 78.0353 280.928 78.9473 280.776 80.6353L280.072 90.3153Z" fill="#263238"/>
<path d="M293.496 77.2593C296.376 77.4673 297.496 79.0193 297.28 81.7473L297.168 83.2353C297.016 85.2513 296.216 86.4353 294.616 86.8353C296.216 87.4593 296.784 88.8673 296.64 90.8353L296.424 93.6913C296.311 94.4385 296.382 95.2021 296.632 95.9153L294.56 95.7633C294.328 95.0377 294.268 94.2681 294.384 93.5153L294.6 90.6353C294.752 88.5713 293.8 87.8433 292.128 87.7153L290.688 87.6113L290.112 95.4353L288.072 95.2913L289.416 76.9633L293.496 77.2593ZM292.344 85.8593C293.944 85.9793 294.976 85.5233 295.12 83.5313L295.248 81.7793C295.368 80.1313 294.832 79.2193 293.312 79.1153L291.32 78.9633L290.824 85.7473L292.344 85.8593Z" fill="#263238"/>
<path d="M305.648 86.2753L305.52 88.1073L301.04 87.7793L300.56 94.2993L306.056 94.6993L305.92 96.5553L298.4 96.0033L299.744 77.6833L307.28 78.2353L307.144 80.0913L301.6 79.6593L301.144 85.9153L305.648 86.2753Z" fill="#263238"/>
<path d="M247.608 109.731L248.296 100.459L246.2 100.307V100.019L250.696 100.347V100.635L248.592 100.459L247.912 109.763L247.608 109.731Z" fill="#263238"/>
<path d="M254.4 105.203V105.475L251.536 105.259L251.2 109.707L254.56 109.955V110.243L250.904 109.971L251.608 100.371L255.264 100.635V100.923L251.904 100.683L251.584 104.987L254.4 105.203Z" fill="#263238"/>
<path d="M255.616 110.323L256.32 100.723H256.624L255.936 110.059L259.136 110.291V110.579L255.616 110.323Z" fill="#263238"/>
<path d="M260.568 109.571L260.48 110.675H260.184L260.264 109.563L260.568 109.571Z" fill="#263238"/>
<path d="M264.224 103.659C264.32 102.299 264.976 101.259 266.44 101.387C267.904 101.515 268.408 102.603 268.304 103.963L267.952 108.843C267.848 110.179 267.192 111.243 265.728 111.115C264.264 110.987 263.768 109.883 263.864 108.539L264.224 103.659ZM264.168 108.563C264.08 109.755 264.472 110.747 265.768 110.843C267.064 110.939 267.576 110.043 267.664 108.819L268.024 103.923C268.112 102.747 267.712 101.747 266.424 101.659C265.136 101.571 264.608 102.459 264.528 103.667L264.168 108.563Z" fill="#263238"/>
<path d="M273.392 104.379C273.192 107.051 269.48 107.675 269.184 110.971V111.027L272.832 111.291V111.579L268.88 111.291V111.083C269.144 107.499 272.88 106.947 273.096 104.371C273.184 103.163 272.872 102.147 271.544 102.051C270.216 101.955 269.768 102.963 269.68 104.115V104.635H269.392V104.123C269.488 102.795 270.096 101.723 271.576 101.795C273.056 101.867 273.488 103.019 273.392 104.379Z" fill="#263238"/>
<path d="M278.464 104.723V104.955C278.451 105.393 278.295 105.814 278.021 106.154C277.747 106.495 277.368 106.737 276.944 106.843C277.356 106.977 277.707 107.254 277.933 107.624C278.159 107.993 278.245 108.432 278.176 108.859L278.12 109.603C278.024 110.947 277.408 112.003 275.944 111.883C274.48 111.763 274.008 110.651 274.104 109.307V108.851H274.408V109.307C274.32 110.483 274.672 111.491 275.952 111.579C277.232 111.667 277.736 110.731 277.824 109.539L277.872 108.811C277.912 108.591 277.905 108.364 277.852 108.146C277.798 107.929 277.7 107.724 277.562 107.547C277.425 107.37 277.252 107.224 277.055 107.117C276.857 107.011 276.64 106.948 276.416 106.931L275.72 106.875V106.603L276.432 106.659C276.885 106.655 277.318 106.473 277.638 106.153C277.958 105.833 278.14 105.4 278.144 104.947V104.675C278.232 103.483 277.864 102.491 276.592 102.395C275.32 102.299 274.824 103.195 274.736 104.411V104.699H274.44V104.427C274.536 103.083 275.168 102.027 276.632 102.147C278.096 102.267 278.56 103.379 278.464 104.723Z" fill="#263238"/>
<path d="M283.6 105.043V105.107H283.312V105.019C283.392 103.859 283.024 102.907 281.752 102.811C280.48 102.715 279.92 103.611 279.832 104.851L279.64 107.499C279.802 107.145 280.076 106.854 280.421 106.672C280.765 106.489 281.16 106.426 281.544 106.491C282.976 106.595 283.44 107.707 283.344 109.035L283.272 109.995C283.176 111.339 282.52 112.395 281.056 112.275C279.592 112.155 279.08 111.035 279.176 109.699L279.536 104.811C279.632 103.459 280.288 102.411 281.768 102.539C283.248 102.667 283.696 103.699 283.6 105.043ZM279.544 108.755L279.48 109.699C279.392 110.891 279.784 111.875 281.08 111.971C282.376 112.067 282.896 111.171 282.984 109.955L283.048 109.011C283.136 107.843 282.744 106.851 281.448 106.763C280.152 106.675 279.632 107.659 279.544 108.755Z" fill="#263238"/>
<path d="M285.016 107.091C285.204 106.825 285.462 106.616 285.761 106.487C286.061 106.359 286.39 106.316 286.712 106.363C288.12 106.459 288.56 107.595 288.464 108.899L288.36 110.355C288.264 111.683 287.632 112.755 286.184 112.635C284.736 112.515 284.248 111.387 284.344 110.059V109.643H284.648V110.059C284.56 111.219 284.928 112.227 286.192 112.323C287.456 112.419 287.976 111.475 288.056 110.307L288.168 108.867C288.248 107.715 287.88 106.707 286.608 106.619C286.253 106.581 285.896 106.663 285.593 106.852C285.29 107.04 285.059 107.324 284.936 107.659V107.771H284.648L285.256 102.843L288.72 103.099V103.387L285.52 103.147L285.016 107.091Z" fill="#263238"/>
<path d="M295.768 103.891L292.064 103.659V103.371L296.064 103.659V103.947L292.52 113.059H292.2L295.768 103.891Z" fill="#263238"/>
<path d="M301.216 106.251V106.571C301.248 107.026 301.109 107.477 300.827 107.835C300.544 108.193 300.138 108.433 299.688 108.507C300.696 108.819 300.992 109.651 300.912 110.691L300.872 111.339C300.768 112.707 300.072 113.651 298.584 113.539C297.096 113.427 296.544 112.395 296.648 111.027L296.696 110.387C296.776 109.315 297.184 108.571 298.296 108.403C297.85 108.276 297.47 107.983 297.234 107.584C296.997 107.185 296.922 106.711 297.024 106.259V105.939C297.12 104.571 297.888 103.707 299.296 103.811C300.704 103.915 301.32 104.883 301.216 106.251ZM297.296 105.963V106.307C297.263 106.553 297.281 106.802 297.349 107.04C297.416 107.279 297.531 107.5 297.687 107.693C297.844 107.885 298.037 108.043 298.257 108.157C298.476 108.271 298.717 108.34 298.964 108.358C299.211 108.376 299.459 108.343 299.693 108.262C299.926 108.181 300.141 108.052 300.324 107.885C300.506 107.718 300.652 107.515 300.753 107.289C300.855 107.063 300.909 106.819 300.912 106.571V106.227C301 105.027 300.464 104.171 299.248 104.083C298.032 103.995 297.384 104.755 297.296 105.963ZM296.976 110.379L296.928 111.051C296.832 112.267 297.336 113.171 298.584 113.267C299.832 113.363 300.456 112.539 300.544 111.315L300.592 110.643C300.68 109.395 300.168 108.699 298.92 108.603C297.672 108.507 297.064 109.131 296.976 110.379Z" fill="#263238"/>
<path d="M306.4 106.771L306.008 111.659C305.904 113.011 305.264 114.059 303.784 113.947C302.304 113.835 301.816 112.755 301.92 111.403V111.331H302.208V111.411C302.12 112.587 302.528 113.555 303.808 113.651C305.088 113.747 305.616 112.851 305.704 111.595L305.904 108.923C305.755 109.289 305.484 109.592 305.137 109.781C304.79 109.969 304.388 110.031 304 109.955C302.576 109.851 302.104 108.739 302.2 107.411L302.272 106.467C302.368 105.107 303.024 104.067 304.488 104.179C305.952 104.291 306.464 105.411 306.4 106.771ZM302.616 106.475L302.552 107.419C302.464 108.603 302.856 109.595 304.152 109.691C305.448 109.787 305.96 108.891 306.048 107.675L306.12 106.731C306.208 105.555 305.808 104.555 304.52 104.467C303.232 104.379 302.664 105.299 302.576 106.475H302.616Z" fill="#263238"/>
<path d="M307.448 106.859C307.544 105.507 308.2 104.459 309.664 104.587C311.128 104.715 311.632 105.803 311.528 107.163L311.176 112.043C311.072 113.387 310.376 114.443 308.952 114.323C307.528 114.203 306.992 113.083 307.088 111.739L307.448 106.859ZM307.392 111.763C307.304 112.955 307.696 113.955 308.992 114.043C310.288 114.131 310.8 113.243 310.888 112.019L311.248 107.123C311.336 105.947 310.936 104.955 309.648 104.859C308.36 104.763 307.832 105.659 307.744 106.875L307.392 111.763Z" fill="#263238"/>
<path d="M312.6 107.227C312.704 105.867 313.352 104.827 314.824 104.947C316.296 105.067 316.784 106.171 316.688 107.523L316.328 112.403C316.232 113.747 315.576 114.803 314.104 114.683C312.632 114.563 312.144 113.451 312.24 112.107L312.6 107.227ZM312.544 112.131C312.456 113.323 312.848 114.315 314.144 114.411C315.44 114.507 315.952 113.611 316.04 112.379L316.4 107.491C316.488 106.307 316.088 105.315 314.8 105.219C313.512 105.123 312.992 106.019 312.904 107.235L312.544 112.131Z" fill="#263238"/>
<path d="M214.584 123.331C216.048 123.443 216.592 124.515 216.488 125.883L216.136 130.683C216.04 132.035 215.336 133.019 213.896 132.915L211.88 132.763L212.584 123.163L214.584 123.331ZM213.896 132.643C215.192 132.731 215.744 131.843 215.832 130.691L216.192 125.851C216.28 124.643 215.84 123.715 214.592 123.619L212.896 123.499L212.232 132.515L213.896 132.643Z" fill="#263238"/>
<path d="M217.976 130.955L217.248 133.179H216.976L220 123.739H220.424L222.088 133.523H221.792L221.392 131.219L217.976 130.955ZM218.056 130.683L221.36 130.923L220.176 124.083L218.056 130.683Z" fill="#263238"/>
<path d="M224.424 133.699L225.104 124.395L223.016 124.243V123.955L227.496 124.283V124.571L225.4 124.419L224.712 133.723L224.424 133.699Z" fill="#263238"/>
<path d="M231.152 129.163V129.435L228.328 129.235L228 133.675L231.36 133.923V134.211L227.696 133.939L228.4 124.339L232.056 124.611V124.899L228.696 124.651L228.384 128.955L231.152 129.163Z" fill="#263238"/>
<path d="M227.336 143.523C228.736 143.619 229.136 144.323 229.048 145.643L229 146.259C228.92 147.331 228.584 147.955 227.488 148.035C228.616 148.283 228.984 149.099 228.904 150.211L228.84 151.059C228.744 152.411 228.104 153.219 226.648 153.115L224.72 152.971L225.424 143.371L227.336 143.523ZM226.648 147.851C227.976 147.947 228.592 147.675 228.696 146.251L228.744 145.611C228.824 144.483 228.528 143.875 227.32 143.787L225.72 143.667L225.416 147.739L226.648 147.851ZM226.648 152.827C227.904 152.923 228.424 152.243 228.512 151.035L228.576 150.171C228.68 148.787 228.056 148.235 226.744 148.139L225.36 148.035L225.016 152.707L226.648 152.827Z" fill="#263238"/>
<path d="M229.744 153.347L230.448 143.747H230.752L230.072 153.051L233.272 153.291V153.579L229.744 153.347Z" fill="#263238"/>
<path d="M234.776 151.339C234.688 152.491 235.024 153.523 236.304 153.619C237.584 153.715 238.064 152.739 238.144 151.587L238.68 144.387H238.968L238.432 151.587C238.336 152.907 237.736 153.987 236.28 153.883C234.824 153.779 234.376 152.611 234.472 151.299L235 144.099H235.304L234.776 151.339Z" fill="#263238"/>
<path d="M242.832 149.259V149.531L240 149.339L239.672 153.779L243.032 154.027V154.315L239.376 154.051L240.08 144.451L243.736 144.723V145.011L240.376 144.763L240.064 149.067L242.832 149.259Z" fill="#263238"/>
<path d="M250.704 147.563V147.739H250.4V147.547C250.48 146.403 250.128 145.411 248.88 145.323C247.632 145.235 247.128 146.123 247.04 147.283C246.864 149.739 250.544 149.939 250.352 152.539C250.248 153.875 249.624 154.891 248.16 154.779C246.696 154.667 246.232 153.579 246.336 152.251V151.779H246.624L246.584 152.259C246.504 153.427 246.888 154.379 248.184 154.467C249.48 154.555 249.968 153.667 250.056 152.507C250.232 150.107 246.552 149.899 246.744 147.251C246.848 145.851 247.544 144.939 248.896 145.027C250.248 145.115 250.8 146.243 250.704 147.563Z" fill="#263238"/>
<path d="M251.904 150.283L251.56 154.947H251.256L251.96 145.347H252.264L251.92 150.011L255.392 150.267L255.728 145.603H256.032L255.328 155.203H255.024L255.368 150.547L251.904 150.283Z" fill="#263238"/>
<path d="M257.432 145.731L256.728 155.331H256.424L257.128 145.731H257.432Z" fill="#263238"/>
<path d="M260.432 145.947C261.856 146.051 262.344 146.931 262.248 148.243L262.184 149.107C262.096 150.283 261.584 150.899 260.512 151.011C260.739 151.048 260.956 151.131 261.15 151.255C261.344 151.378 261.511 151.54 261.64 151.73C261.769 151.92 261.859 152.135 261.903 152.36C261.947 152.586 261.945 152.818 261.896 153.043L261.784 154.547C261.732 154.943 261.793 155.345 261.96 155.707H261.632C261.48 155.343 261.43 154.945 261.488 154.555L261.592 153.043C261.696 151.635 260.872 151.203 259.632 151.107L258.448 151.019L258.128 155.451H257.824L258.528 145.851L260.432 145.947ZM259.632 150.795C260.96 150.891 261.752 150.611 261.864 149.131L261.928 148.251C262.016 147.083 261.616 146.323 260.384 146.235L258.784 146.115L258.448 150.707L259.632 150.795Z" fill="#263238"/>
<path d="M264.8 155.915L265.48 146.611L263.392 146.459V146.171L267.872 146.499V146.787L265.776 146.635L265.088 155.939L264.8 155.915Z" fill="#263238"/>
<path d="M324 150.555C325.352 150.723 325.768 151.819 325.672 153.075V153.259H325.384V153.067C325.472 151.931 325.096 150.955 323.856 150.859C322.616 150.763 322.096 151.659 322.016 152.803C321.832 155.275 325.512 155.435 325.32 158.035C325.232 159.315 324.648 160.315 323.288 160.291L323.224 161.091H322.968L323.024 160.291C321.656 160.139 321.216 159.059 321.304 157.771V157.291H321.608V157.787C321.52 158.955 321.896 159.907 323.152 159.995C324.408 160.083 324.936 159.195 325.024 158.035C325.2 155.635 321.52 155.451 321.712 152.803C321.808 151.459 322.416 150.555 323.736 150.571L323.8 149.707H324.056L324 150.555Z" fill="#263238"/>
<path d="M332.952 153.587V153.651H332.664V153.571C332.752 152.411 332.376 151.459 331.104 151.363C329.832 151.267 329.28 152.163 329.192 153.403L328.992 156.043C329.156 155.689 329.432 155.399 329.778 155.218C330.124 155.037 330.52 154.976 330.904 155.043C332.328 155.147 332.8 156.259 332.704 157.587L332.632 158.547C332.528 159.891 331.832 160.947 330.408 160.819C328.984 160.691 328.432 159.587 328.528 158.243L328.888 153.363C328.992 152.003 329.64 150.963 331.12 151.091C332.6 151.219 333.048 152.243 332.952 153.587ZM328.904 157.299L328.832 158.243C328.744 159.435 329.144 160.419 330.432 160.507C331.72 160.595 332.24 159.707 332.328 158.499L332.4 157.555C332.48 156.387 332.088 155.395 330.8 155.299C329.512 155.203 328.984 156.171 328.904 157.299Z" fill="#263238"/>
<path d="M333.92 159.867L333.84 160.979H333.536L333.624 159.875L333.92 159.867Z" fill="#263238"/>
<path d="M339.544 154.123L339.184 158.987C339.08 160.347 338.44 161.387 336.96 161.275C335.48 161.163 334.992 160.083 335.096 158.731V158.659H335.384V158.739C335.296 159.923 335.704 160.883 336.984 160.979C338.264 161.075 338.792 160.179 338.88 158.931L339.08 156.259C338.929 156.622 338.659 156.922 338.314 157.11C337.969 157.297 337.57 157.362 337.184 157.291C335.76 157.187 335.288 156.075 335.384 154.747L335.456 153.795C335.552 152.443 336.208 151.395 337.68 151.507C339.152 151.619 339.64 152.763 339.544 154.123ZM335.76 153.827L335.688 154.779C335.6 155.955 336 156.947 337.288 157.043C338.576 157.139 339.096 156.243 339.184 155.035L339.256 154.083C339.344 152.907 338.944 151.915 337.656 151.819C336.368 151.723 335.848 152.651 335.76 153.827Z" fill="#263238"/>
<path d="M340.936 156.115C341.123 155.848 341.381 155.638 341.68 155.508C341.98 155.378 342.309 155.333 342.632 155.379C344.048 155.483 344.48 156.619 344.392 157.923L344.28 159.379C344.184 160.707 343.552 161.779 342.104 161.659C340.656 161.539 340.168 160.411 340.264 159.083V158.667H340.568V159.083C340.48 160.243 340.848 161.251 342.112 161.339C343.376 161.427 343.896 160.539 343.984 159.331L344.088 157.891C344.168 156.739 343.8 155.731 342.528 155.643C342.174 155.605 341.818 155.685 341.515 155.872C341.212 156.059 340.98 156.342 340.856 156.675V156.787H340.568L341.176 151.859L344.64 152.115V152.403L341.44 152.163L340.936 156.115Z" fill="#263238"/>
<path d="M225.496 171.483H225.056L224 161.723H224.304L225.304 171.035L227.664 162.059H228.032L228.928 171.251L231.2 162.251H231.472L229.072 171.723H228.672L227.776 162.723L225.496 171.483Z" fill="#263238"/>
<path d="M232.488 167.307L232.144 171.971H231.84L232.544 162.371H232.848L232.504 167.035L235.976 167.291L236.32 162.627H236.616L235.912 172.227H235.616L235.952 167.563L232.488 167.307Z" fill="#263238"/>
<path d="M238.016 162.755L237.312 172.355H237.008L237.712 162.755H238.016Z" fill="#263238"/>
<path d="M240.208 172.563L240.888 163.251L238.8 163.099V162.811L243.28 163.139V163.427L241.184 163.275L240.496 172.579L240.208 172.563Z" fill="#263238"/>
<path d="M246.928 168.027V168.299L244.104 168.091L243.776 172.531L247.136 172.779V173.067L243.48 172.795L244.184 163.195L247.84 163.459V163.747L244.48 163.507L244.168 167.811L246.928 168.027Z" fill="#263238"/>
<path d="M254.8 166.315V166.491H254.496V166.299C254.576 165.163 254.224 164.171 252.976 164.083C251.728 163.995 251.224 164.883 251.136 166.043C250.96 168.499 254.64 168.699 254.448 171.299C254.352 172.627 253.72 173.643 252.256 173.539C250.792 173.435 250.328 172.339 250.432 171.003V170.539H250.72L250.68 171.019C250.6 172.179 250.984 173.131 252.28 173.227C253.576 173.323 254.056 172.427 254.144 171.267C254.32 168.867 250.64 168.651 250.832 166.011C250.936 164.611 251.632 163.691 252.984 163.779C254.336 163.867 254.904 164.995 254.8 166.315Z" fill="#263238"/>
<path d="M256 169.035L255.656 173.691H255.352L256.056 164.091H256.36L256.016 168.747L259.488 169.003L259.824 164.347H260.128L259.424 173.947H259.12L259.464 169.291L256 169.035Z" fill="#263238"/>
<path d="M261.528 164.459L260.8 174.059H260.496L261.2 164.459H261.528Z" fill="#263238"/>
<path d="M264.528 164.699C265.952 164.803 266.44 165.675 266.344 166.995L266.28 167.859C266.192 169.035 265.68 169.651 264.616 169.763C264.842 169.801 265.058 169.885 265.251 170.009C265.444 170.133 265.61 170.295 265.739 170.485C265.868 170.675 265.956 170.889 266 171.114C266.043 171.339 266.041 171.571 265.992 171.795L265.88 173.299C265.828 173.695 265.889 174.097 266.056 174.459H265.728C265.574 174.079 265.53 173.663 265.6 173.259L265.704 171.755C265.808 170.339 264.992 169.907 263.744 169.819L262.56 169.731L262.24 174.163H261.936L262.64 164.563L264.528 164.699ZM263.728 169.547C265.056 169.643 265.856 169.355 265.96 167.875L266.024 167.003C266.112 165.835 265.712 165.075 264.48 164.987L262.88 164.867L262.544 169.459L263.728 169.547Z" fill="#263238"/>
<path d="M268.928 174.667L269.608 165.363L267.52 165.203V164.915L272 165.251V165.539L269.904 165.379L269.216 174.691L268.928 174.667Z" fill="#263238"/>
<path d="M322.672 168.907C324.024 169.075 324.44 170.171 324.352 171.427V171.611H324.064V171.419C324.144 170.283 323.776 169.299 322.528 169.211C321.28 169.123 320.776 170.011 320.688 171.155C320.512 173.627 324.192 173.787 324 176.387C323.912 177.667 323.328 178.667 321.96 178.635L321.904 179.435H321.648L321.704 178.635C320.336 178.483 319.888 177.403 319.984 176.107V175.627H320.28V176.123C320.192 177.291 320.56 178.235 321.824 178.331C323.088 178.427 323.608 177.531 323.688 176.371C323.872 173.971 320.184 173.787 320.384 171.139C320.48 169.795 321.08 168.891 322.408 168.907L322.472 168.043H322.728L322.672 168.907Z" fill="#263238"/>
<path d="M331.608 171.931V172.003H331.32V171.923C331.4 170.755 331.032 169.811 329.76 169.715C328.488 169.619 327.928 170.515 327.84 171.747L327.648 174.395C327.811 174.042 328.086 173.753 328.431 173.572C328.775 173.392 329.169 173.329 329.552 173.395C330.984 173.499 331.448 174.603 331.352 175.939L331.28 176.899C331.184 178.243 330.528 179.299 329.064 179.171C327.6 179.043 327.088 177.939 327.184 176.595L327.544 171.715C327.64 170.355 328.296 169.315 329.776 169.443C331.256 169.571 331.704 170.587 331.608 171.931ZM327.552 175.659L327.488 176.603C327.4 177.795 327.792 178.771 329.088 178.867C330.384 178.963 330.904 178.067 330.992 176.859L331.056 175.915C331.144 174.747 330.752 173.755 329.456 173.659C328.16 173.563 327.64 174.523 327.552 175.659Z" fill="#263238"/>
<path d="M332.576 178.219L332.496 179.331H332.192L332.272 178.219H332.576Z" fill="#263238"/>
<path d="M338.192 172.459L337.84 177.323C337.736 178.683 337.096 179.723 335.616 179.611C334.136 179.499 333.648 178.419 333.752 177.067V176.995H334.04V177.075C333.952 178.251 334.36 179.219 335.64 179.315C336.92 179.411 337.456 178.515 337.544 177.259L337.744 174.587C337.601 174.96 337.333 175.271 336.985 175.467C336.638 175.662 336.233 175.73 335.84 175.659C334.408 175.555 333.944 174.451 334.04 173.115L334.112 172.171C334.208 170.819 334.864 169.771 336.328 169.883C337.792 169.995 338.296 171.115 338.192 172.459ZM334.408 172.163L334.344 173.115C334.256 174.291 334.648 175.283 335.944 175.379C337.24 175.475 337.752 174.579 337.84 173.363L337.912 172.419C338 171.243 337.6 170.251 336.312 170.155C335.024 170.059 334.496 171.003 334.4 172.179L334.408 172.163Z" fill="#263238"/>
<path d="M339.592 174.467C339.778 174.199 340.035 173.987 340.335 173.857C340.635 173.727 340.965 173.684 341.288 173.731C342.696 173.835 343.136 174.971 343.04 176.275L342.936 177.723C342.84 179.059 342.208 180.123 340.752 180.003C339.296 179.883 338.824 178.763 338.92 177.435V177.019H339.216V177.427C339.128 178.595 339.496 179.603 340.752 179.691C342.008 179.779 342.544 178.843 342.624 177.683L342.728 176.243C342.816 175.091 342.448 174.083 341.176 173.987C340.82 173.948 340.461 174.028 340.156 174.217C339.852 174.406 339.619 174.691 339.496 175.027V175.139H339.208L339.824 170.211L343.288 170.459V170.747L340.088 170.515L339.592 174.467Z" fill="#263238"/>
<path d="M224 192.227L224.888 180.187L222.416 180.003L222.52 178.643L228.92 179.115L228.816 180.475L226.352 180.291L225.464 192.339L224 192.227Z" fill="#263238"/>
<path d="M229.648 182.419C229.8 180.371 230.912 179.123 232.96 179.275C235.008 179.427 235.944 180.819 235.792 182.867L235.288 189.803C235.136 191.835 234.024 193.099 231.952 192.947C229.88 192.795 228.992 191.347 229.136 189.347L229.648 182.419ZM230.608 189.539C230.52 190.763 230.984 191.507 232.056 191.587C233.128 191.667 233.696 190.995 233.784 189.771L234.304 182.683C234.392 181.475 233.952 180.715 232.856 180.635C231.76 180.555 231.256 181.243 231.128 182.451L230.608 189.539Z" fill="#263238"/>
<path d="M238.4 193.259L239.304 181.259L236.832 181.075L236.936 179.715L243.336 180.187L243.232 181.547L240.76 181.363L239.88 193.411L238.4 193.259Z" fill="#263238"/>
<path d="M244.4 191.011L243.688 193.675L242.304 193.571L245.856 180.355L248.016 180.515L249.616 194.115L248.128 194.003L247.808 191.267L244.4 191.011ZM244.688 189.739L247.672 189.963L246.728 182.115L244.688 189.739Z" fill="#263238"/>
<path d="M250.768 194.195L251.752 180.787L253.248 180.899L252.36 192.899L256.192 193.179L256.096 194.539L250.768 194.195Z" fill="#263238"/>
<path d="M304.96 184.747C306.56 185.099 307.224 186.419 307.088 188.219V188.579L305.688 188.475V188.019C305.776 186.827 305.352 186.067 304.28 185.987C303.208 185.907 302.68 186.603 302.608 187.787C302.384 190.795 306.888 191.147 306.608 194.923C306.48 196.723 305.616 197.947 303.976 198.059L303.896 199.075L302.672 198.979L302.744 197.963C301.096 197.611 300.448 196.299 300.576 194.475L300.64 193.675L302.032 193.779L301.968 194.699C301.88 195.907 302.328 196.635 303.4 196.707C304.472 196.779 305 196.139 305.112 194.931C305.328 191.939 300.848 191.579 301.112 187.803C301.248 185.963 302.08 184.811 303.704 184.683L303.784 183.611L305.016 183.699L304.96 184.747Z" fill="#263238"/>
<path d="M314.336 187.819C313.751 188.122 313.099 188.273 312.44 188.259L312.528 187.035C313.05 187.082 313.573 186.948 314.009 186.657C314.446 186.366 314.77 185.935 314.928 185.435L315.96 185.507L314.976 198.915L313.504 198.803L314.336 187.819Z" fill="#263238"/>
<path d="M324 189.339V189.683C324.021 190.262 323.854 190.832 323.524 191.308C323.193 191.784 322.718 192.14 322.168 192.323C323.272 192.827 323.688 193.875 323.592 195.219L323.52 196.251C323.368 198.299 322.312 199.571 320.24 199.451C318.168 199.331 317.336 197.891 317.488 195.843L317.552 194.923L318.952 195.027L318.88 196.043C318.784 197.243 319.232 198.011 320.304 198.091C321.376 198.171 321.904 197.499 322.024 196.139L322.104 195.099C322.2 193.779 321.688 193.107 320.56 192.987L319.76 192.923L319.856 191.587L320.736 191.651C320.965 191.662 321.193 191.622 321.406 191.537C321.618 191.451 321.81 191.321 321.967 191.155C322.125 190.989 322.245 190.791 322.32 190.574C322.395 190.357 322.422 190.127 322.4 189.899L322.448 189.283C322.552 187.907 322.12 187.163 321.032 187.083C319.944 187.003 319.432 187.715 319.312 188.923L319.264 189.611L317.864 189.507L317.912 188.899C318.064 186.843 319.12 185.595 321.168 185.747C323.216 185.899 324.12 187.291 324 189.339Z" fill="#263238"/>
<path d="M326.248 197.859L326.112 199.715L324.68 199.611L324.816 197.755L326.248 197.859Z" fill="#263238"/>
<path d="M334.4 190.107L333.896 196.939C333.736 199.067 332.68 200.339 330.536 200.179C328.392 200.019 327.608 198.635 327.76 196.587V196.339L329.16 196.443V196.787C329.072 197.995 329.536 198.739 330.608 198.819C331.68 198.899 332.312 198.211 332.416 196.795L332.632 193.787C332.443 194.215 332.12 194.569 331.711 194.796C331.302 195.022 330.831 195.109 330.368 195.043C328.64 194.915 327.968 193.635 328.104 191.699L328.256 189.651C328.408 187.603 329.504 186.355 331.568 186.507C333.632 186.659 334.552 188.051 334.4 190.107ZM329.728 189.683L329.584 191.699C329.496 192.899 329.96 193.667 331.032 193.747C332.104 193.827 332.672 193.139 332.76 191.931L332.912 189.915C333 188.691 332.552 187.947 331.464 187.867C330.376 187.787 329.824 188.459 329.736 189.683H329.728Z" fill="#263238"/>
<path d="M335.728 190.203C335.872 188.155 336.984 186.907 339.032 187.059C341.08 187.211 342.024 188.603 341.872 190.651L341.368 197.563C341.216 199.611 340.104 200.883 338.032 200.763C335.96 200.643 335.064 199.163 335.216 197.147L335.728 190.203ZM336.688 197.315C336.6 198.523 337.064 199.291 338.136 199.371C339.208 199.451 339.776 198.755 339.864 197.547L340.384 190.467C340.472 189.243 340.032 188.475 338.936 188.395C337.84 188.315 337.296 189.003 337.208 190.235L336.688 197.315Z" fill="#263238"/>
<path d="M227.088 204.691L227 205.899L225.584 205.795L225.68 204.507C225.768 203.307 225.344 202.539 224.248 202.459C223.152 202.379 222.648 203.075 222.536 204.283L222.016 211.363C221.928 212.571 222.376 213.339 223.448 213.411C224.52 213.483 225.048 212.803 225.16 211.595L225.288 209.851L226.704 209.955L226.584 211.627C226.432 213.651 225.376 214.923 223.312 214.771C221.248 214.619 220.4 213.211 220.552 211.179L221.056 204.251C221.208 202.219 222.264 200.947 224.312 201.099C226.36 201.251 227.24 202.659 227.088 204.691Z" fill="#263238"/>
<path d="M229.416 212.371L228.696 215.035L227.32 214.931L230.872 201.715L233.032 201.875L234.632 215.475L233.136 215.363L232.816 212.627L229.416 212.371ZM229.704 211.099L232.688 211.323L231.744 203.475L229.704 211.099Z" fill="#263238"/>
<path d="M242.336 205.787V206.155L240.92 206.051V205.611C241.008 204.403 240.6 203.659 239.528 203.579C238.456 203.499 237.928 204.179 237.856 205.363C237.64 208.371 242.12 208.987 241.856 212.763C241.712 214.795 240.632 216.043 238.584 215.891C236.536 215.739 235.68 214.347 235.824 212.323L235.88 211.523L237.28 211.627L237.216 212.467C237.128 213.675 237.576 214.419 238.648 214.499C239.72 214.579 240.248 213.907 240.36 212.699C240.576 209.707 236.12 209.091 236.36 205.323C236.512 203.251 237.568 202.043 239.56 202.187C241.552 202.331 242.48 203.763 242.336 205.787Z" fill="#263238"/>
<path d="M244.84 210.155L244.4 216.187L242.904 216.075L243.888 202.667L245.384 202.779L244.944 208.811L248.232 209.051L248.68 203.019L250.168 203.131L249.192 216.539L247.696 216.427L248.136 210.395L244.84 210.155Z" fill="#263238"/>
<path d="M302.344 207.019C303.944 207.363 304.608 208.683 304.472 210.483V210.851L303.072 210.747V210.283C303.16 209.099 302.736 208.339 301.664 208.259C300.592 208.179 300.064 208.875 299.992 210.059C299.768 213.067 304.272 213.411 303.992 217.187C303.864 218.987 303 220.211 301.36 220.323L301.28 221.339L300.056 221.251L300.128 220.235C298.48 219.883 297.824 218.563 297.96 216.747L298.024 215.947L299.416 216.051L299.352 216.971C299.264 218.171 299.712 218.899 300.784 218.979C301.856 219.059 302.384 218.403 302.496 217.195C302.712 214.211 298.232 213.843 298.496 210.067C298.632 208.235 299.464 207.083 301.088 206.947L301.168 205.875L302.4 205.963L302.344 207.019Z" fill="#263238"/>
<path d="M314.952 211.155C314.656 215.155 310.016 216.323 309.768 219.403V219.611L314.176 219.939L314.072 221.291L308.192 220.867L308.28 219.715C308.6 215.387 313.2 214.915 313.472 211.107C313.576 209.723 313.168 208.963 312.056 208.883C310.944 208.803 310.456 209.555 310.344 210.739L310.256 211.923L308.856 211.827L308.936 210.731C309.088 208.683 310.128 207.395 312.192 207.531C314.256 207.667 315.104 209.107 314.952 211.155Z" fill="#263238"/>
<path d="M316.224 211.227C316.368 209.179 317.48 207.931 319.528 208.083C321.576 208.235 322.52 209.635 322.368 211.683L321.856 218.595C321.712 220.643 320.6 221.907 318.528 221.795C316.456 221.683 315.56 220.195 315.712 218.179L316.224 211.227ZM317.184 218.347C317.088 219.555 317.552 220.323 318.624 220.395C319.696 220.467 320.272 219.787 320.36 218.579L320.88 211.491C320.968 210.267 320.528 209.507 319.432 209.427C318.336 209.347 317.792 210.035 317.704 211.259L317.184 218.347Z" fill="#263238"/>
<path d="M324.608 220.203L324.472 222.059L323.04 221.955L323.176 220.099L324.608 220.203Z" fill="#263238"/>
<path d="M326.64 211.995C326.784 209.947 327.896 208.699 329.944 208.851C331.992 209.003 332.936 210.395 332.784 212.443L332.28 219.355C332.128 221.411 331.016 222.675 328.944 222.555C326.872 222.435 325.976 220.955 326.128 218.939L326.64 211.995ZM327.6 219.115C327.512 220.315 327.976 221.083 329.048 221.163C330.12 221.243 330.688 220.547 330.776 219.347L331.296 212.259C331.384 211.035 330.944 210.267 329.848 210.187C328.752 210.107 328.208 210.803 328.12 212.027L327.6 219.115Z" fill="#263238"/>
<path d="M334.088 212.539C334.232 210.491 335.344 209.243 337.4 209.395C339.456 209.547 340.384 210.939 340.232 212.995L339.728 219.907C339.576 221.955 338.464 223.219 336.392 223.067C334.32 222.915 333.424 221.467 333.576 219.451L334.088 212.539ZM335.048 219.659C334.96 220.867 335.424 221.627 336.496 221.707C337.568 221.787 338.136 221.099 338.224 219.891L338.744 212.803C338.832 211.579 338.392 210.819 337.296 210.739C336.2 210.659 335.656 211.347 335.568 212.571L335.048 219.659Z" fill="#263238"/>
<path d="M225.272 229.427L225.184 230.627L223.768 230.523L223.864 229.243C223.952 228.035 223.528 227.275 222.432 227.195C221.336 227.115 220.832 227.811 220.72 229.011L220.2 236.099C220.112 237.307 220.56 238.067 221.632 238.147C222.704 238.227 223.232 237.539 223.344 236.331L223.472 234.587L224.888 234.691L224.768 236.355C224.616 238.387 223.56 239.659 221.496 239.507C219.432 239.355 218.584 237.947 218.736 235.915L219.24 228.979C219.392 226.955 220.448 225.683 222.496 225.835C224.544 225.987 225.424 227.395 225.272 229.427Z" fill="#263238"/>
<path d="M227.824 233.771L227.384 239.803L225.888 239.691L226.872 226.291L228.368 226.395L227.92 232.459L231.216 232.699L231.656 226.667L233.152 226.779L232.168 240.187L230.68 240.075L231.12 234.043L227.824 233.771Z" fill="#263238"/>
<path d="M235.408 237.675L234.696 240.339L233.32 240.235L236.864 227.019L239.032 227.179L240.632 240.779L239.136 240.675L238.816 237.931L235.408 237.675ZM235.696 236.411L238.688 236.627L237.736 228.779L235.696 236.411Z" fill="#263238"/>
<path d="M243.104 240.955L241.76 240.859L242.744 227.451L244.64 227.587L247.04 237.507L247.752 227.819L249.072 227.915L248.088 241.323L246.536 241.203L243.904 230.115L243.104 240.955Z" fill="#263238"/>
<path d="M256.28 231.699L256.192 232.851L254.776 232.747L254.864 231.515C254.952 230.315 254.528 229.547 253.44 229.467C252.352 229.387 251.84 230.083 251.728 231.291L251.208 238.371C251.112 239.579 251.56 240.347 252.632 240.419C253.704 240.491 254.232 239.811 254.344 238.603L254.544 235.923L253.16 235.819L253.264 234.483L256.056 234.683L255.768 238.635C255.616 240.659 254.56 241.931 252.496 241.779C250.432 241.627 249.584 240.219 249.736 238.187L250.248 231.259C250.392 229.227 251.448 227.955 253.496 228.107C255.544 228.259 256.424 229.667 256.28 231.699Z" fill="#263238"/>
<path d="M262.264 234.859L262.168 236.203L258.888 235.963L258.536 240.763L262.536 241.059L262.44 242.419L256.92 242.011L257.904 228.603L263.424 229.011L263.32 230.371L259.32 230.075L258.992 234.651L262.264 234.859Z" fill="#263238"/>
<path d="M232.176 291.987C232.365 291.722 232.623 291.513 232.922 291.384C233.221 291.254 233.549 291.208 233.872 291.251C235.288 291.355 235.728 292.491 235.632 293.795L235.52 295.251C235.424 296.579 234.8 297.651 233.344 297.531C231.888 297.411 231.408 296.283 231.504 294.955V294.539H231.808V294.955C231.72 296.115 232.088 297.123 233.352 297.219C234.616 297.315 235.136 296.371 235.224 295.203L235.328 293.763C235.408 292.611 235.048 291.603 233.768 291.515C233.414 291.477 233.058 291.557 232.755 291.744C232.452 291.931 232.22 292.214 232.096 292.547V292.659H231.808L232.416 287.731L235.888 287.987V288.275L232.688 288.035L232.176 291.987Z" fill="#263238"/>
<path d="M238.808 288.795C238.637 289.088 238.391 289.33 238.096 289.497C237.801 289.664 237.467 289.75 237.128 289.747V289.467C237.51 289.457 237.879 289.33 238.186 289.104C238.493 288.879 238.724 288.564 238.848 288.203H239.136L238.432 297.803H238.128L238.808 288.795Z" fill="#263238"/>
<path d="M244.224 291.011C244.032 293.683 240.32 294.307 240.024 297.603V297.659L243.672 297.931V298.219L239.728 297.923V297.723C239.992 294.131 243.728 293.579 243.944 291.003C244.032 289.795 243.72 288.779 242.392 288.683C241.064 288.587 240.608 289.595 240.528 290.747L240.488 291.267H240.2V290.755C240.296 289.427 240.904 288.315 242.384 288.427C243.864 288.539 244.328 289.651 244.224 291.011Z" fill="#263238"/>
<path d="M249.296 291.379C249.104 294.051 245.392 294.675 245.096 297.979V298.059L248.744 298.323V298.611L244.8 298.299V298.091C245.064 294.499 248.8 293.947 249.016 291.371C249.104 290.163 248.792 289.155 247.464 289.051C246.136 288.947 245.688 289.971 245.6 291.123L245.56 291.643H245.272L245.312 291.139C245.408 289.811 246.016 288.699 247.496 288.803C248.976 288.907 249.4 290.059 249.296 291.379Z" fill="#263238"/>
<path d="M254.4 291.723V291.955C254.384 292.392 254.228 292.812 253.954 293.152C253.68 293.492 253.303 293.735 252.88 293.843C253.291 293.981 253.64 294.26 253.865 294.631C254.091 295.001 254.178 295.439 254.112 295.867L254.056 296.603C253.96 297.947 253.344 299.003 251.88 298.883C250.416 298.763 249.944 297.651 250.04 296.307V295.859H250.344V296.307C250.256 297.491 250.608 298.491 251.88 298.587C253.152 298.683 253.664 297.739 253.752 296.547L253.808 295.819C253.849 295.598 253.843 295.371 253.79 295.152C253.738 294.933 253.639 294.728 253.502 294.55C253.365 294.372 253.191 294.225 252.993 294.118C252.795 294.011 252.576 293.948 252.352 293.931L251.648 293.883V293.611L252.36 293.659C252.812 293.657 253.245 293.477 253.565 293.158C253.886 292.839 254.068 292.407 254.072 291.955V291.683C254.16 290.483 253.792 289.499 252.52 289.403C251.248 289.307 250.744 290.203 250.664 291.419V291.707H250.36V291.435C250.456 290.091 251.08 289.035 252.552 289.155C254.024 289.275 254.472 290.379 254.4 291.723Z" fill="#263238"/>
<path d="M255.76 293.715C255.946 293.449 256.203 293.241 256.501 293.112C256.799 292.984 257.127 292.94 257.448 292.987C258.864 293.091 259.304 294.227 259.208 295.523L259.104 296.979C259 298.307 258.376 299.379 256.92 299.259C255.464 299.139 254.984 298.011 255.088 296.683V296.275H255.392V296.691C255.312 297.859 255.68 298.859 256.936 298.955C258.192 299.051 258.72 298.107 258.808 296.939L258.912 295.499C259 294.347 258.632 293.347 257.36 293.251C257.005 293.211 256.647 293.291 256.342 293.478C256.038 293.665 255.805 293.948 255.68 294.283V294.395H255.392L256 289.467L259.472 289.723V290.011L256.272 289.779L255.76 293.715Z" fill="#263238"/>
<path d="M260.848 294.059C261.033 293.792 261.289 293.582 261.588 293.452C261.886 293.322 262.214 293.277 262.536 293.323C263.952 293.427 264.392 294.563 264.296 295.867L264.184 297.323C264.088 298.651 263.464 299.723 262.008 299.603C260.552 299.483 260.072 298.355 260.168 297.027V296.611H260.472V297.027C260.384 298.187 260.752 299.195 262.016 299.283C263.28 299.371 263.8 298.443 263.888 297.275L263.992 295.835C264.08 294.683 263.712 293.675 262.432 293.587C262.078 293.549 261.722 293.629 261.419 293.816C261.116 294.003 260.884 294.286 260.76 294.619V294.731H260.472L261.08 289.803L264.552 290.059V290.339L261.352 290.107L260.848 294.059Z" fill="#263238"/>
<path d="M269.68 292.795V292.859H269.392V292.771C269.472 291.611 269.104 290.659 267.832 290.563C266.56 290.467 266 291.363 265.912 292.603L265.72 295.251C265.882 294.897 266.156 294.606 266.501 294.424C266.845 294.241 267.24 294.178 267.624 294.243C269.056 294.347 269.52 295.459 269.424 296.787L269.352 297.747C269.256 299.091 268.6 300.147 267.136 300.027C265.672 299.907 265.16 298.787 265.256 297.443L265.616 292.563C265.712 291.211 266.368 290.163 267.848 290.291C269.328 290.419 269.776 291.451 269.68 292.795ZM265.6 296.507L265.536 297.451C265.448 298.643 265.84 299.627 267.136 299.723C268.432 299.819 268.944 298.923 269.032 297.707L269.096 296.763C269.184 295.595 268.792 294.603 267.496 294.507C266.2 294.411 265.712 295.379 265.6 296.507Z" fill="#263238"/>
<path d="M274.848 293.171V293.259H274.56V293.179C274.64 292.011 274.272 291.059 273 290.971C271.728 290.883 271.176 291.771 271.08 293.003L270.888 295.651C271.051 295.296 271.327 295.005 271.673 294.824C272.019 294.643 272.416 294.582 272.8 294.651C274.224 294.755 274.696 295.859 274.592 297.195L274.528 298.147C274.424 299.491 273.728 300.547 272.304 300.427C270.88 300.307 270.328 299.195 270.424 297.851L270.784 292.971C270.88 291.611 271.536 290.571 273.016 290.691C274.496 290.811 274.944 291.827 274.848 293.171ZM270.792 296.883L270.728 297.835C270.64 299.027 271.032 300.003 272.328 300.099C273.624 300.195 274.136 299.299 274.224 298.091L274.288 297.139C274.376 295.979 273.984 294.987 272.688 294.891C271.392 294.795 270.88 295.763 270.792 296.883Z" fill="#263238"/>
<path d="M276.264 295.219C276.452 294.953 276.709 294.744 277.009 294.615C277.308 294.487 277.638 294.444 277.96 294.491C279.376 294.595 279.816 295.731 279.72 297.027L279.608 298.483C279.512 299.811 278.88 300.883 277.432 300.763C275.984 300.643 275.496 299.515 275.592 298.187V297.779H275.896V298.187C275.808 299.355 276.176 300.355 277.44 300.451C278.704 300.547 279.224 299.603 279.312 298.435L279.416 296.995C279.496 295.843 279.128 294.843 277.856 294.747C277.502 294.709 277.146 294.789 276.843 294.976C276.54 295.163 276.308 295.446 276.184 295.779V295.891H275.896L276.504 290.963L279.976 291.219V291.507L276.776 291.275L276.264 295.219Z" fill="#263238"/>
<path d="M285.056 294.003C284.856 296.675 281.144 297.299 280.848 300.603V300.659L284.496 300.923V301.211L280.544 300.923V300.715C280.808 297.123 284.544 296.571 284.76 293.995C284.848 292.787 284.536 291.771 283.208 291.675C281.88 291.579 281.432 292.595 281.344 293.747L281.304 294.267H281.016L281.056 293.763C281.152 292.435 281.76 291.315 283.24 291.427C284.72 291.539 285.152 292.643 285.056 294.003Z" fill="#263238"/>
<path d="M288 292.395C287.83 292.689 287.584 292.932 287.289 293.099C286.994 293.266 286.659 293.352 286.32 293.347V293.075C286.701 293.065 287.07 292.938 287.378 292.712C287.685 292.487 287.916 292.172 288.04 291.811H288.328L287.624 301.411H287.32L288 292.395Z" fill="#263238"/>
<path d="M289.688 296.203C289.876 295.937 290.134 295.728 290.433 295.599C290.732 295.471 291.062 295.428 291.384 295.475C292.792 295.579 293.232 296.715 293.136 298.011L293.032 299.467C292.936 300.795 292.304 301.867 290.848 301.747C289.392 301.627 288.92 300.507 289.016 299.171V298.763H289.312V299.171C289.224 300.339 289.592 301.339 290.848 301.435C292.104 301.531 292.64 300.587 292.72 299.419L292.824 297.979C292.912 296.835 292.544 295.827 291.272 295.731C290.916 295.692 290.557 295.772 290.252 295.961C289.948 296.15 289.715 296.435 289.592 296.771V296.875H289.304L289.92 291.939L293.384 292.195V292.483L290.184 292.251L289.688 296.203Z" fill="#263238"/>
<path d="M298.472 294.987C298.28 297.659 294.568 298.283 294.272 301.587V301.643L297.92 301.907V302.195L293.976 301.907V301.699C294.232 298.107 297.976 297.555 298.184 294.979C298.272 293.771 297.96 292.763 296.632 292.659C295.304 292.555 294.856 293.579 294.776 294.731L294.736 295.251H294.448V294.747C294.544 293.419 295.144 292.307 296.624 292.411C298.104 292.515 298.576 293.635 298.472 294.987Z" fill="#263238"/>
<path d="M299.848 296.947C300.034 296.681 300.291 296.473 300.589 296.344C300.887 296.216 301.215 296.172 301.536 296.219C302.952 296.323 303.392 297.459 303.296 298.763L303.192 300.211C303.088 301.547 302.464 302.611 301.008 302.491C299.552 302.371 299.072 301.251 299.176 299.915V299.507H299.48V299.915C299.4 301.083 299.76 302.091 301.024 302.179C302.288 302.267 302.808 301.331 302.896 300.171L303 298.731C303.088 297.579 302.72 296.571 301.44 296.475C301.085 296.437 300.728 296.519 300.425 296.708C300.122 296.896 299.891 297.18 299.768 297.515V297.619H299.48L300.088 292.683L303.56 292.939V293.227L300.36 292.995L299.848 296.947Z" fill="#263238"/>
<path d="M308.912 232.363C310.512 232.715 311.176 234.035 311.048 235.835V236.195L309.656 236.091V235.635C309.744 234.451 309.32 233.683 308.248 233.603C307.176 233.523 306.648 234.219 306.576 235.411C306.352 238.411 310.848 238.763 310.576 242.539C310.44 244.339 309.584 245.563 307.936 245.675L307.864 246.691L306.64 246.595L306.712 245.587C305.064 245.235 304.408 243.915 304.544 242.091L304.6 241.291L306 241.395L305.936 242.315C305.84 243.523 306.288 244.251 307.36 244.331C308.432 244.411 308.96 243.755 309.072 242.547C309.296 239.555 304.816 239.195 305.072 235.419C305.208 233.579 306.048 232.427 307.672 232.299L307.752 231.227L308.976 231.315L308.912 232.363Z" fill="#263238"/>
<path d="M321.512 236.459V236.707L320.112 236.603V236.259C320.2 235.051 319.752 234.307 318.664 234.227C317.576 234.147 316.984 234.835 316.88 236.275L316.656 239.275C316.846 238.846 317.17 238.49 317.58 238.26C317.989 238.031 318.463 237.941 318.928 238.003C320.648 238.131 321.328 239.427 321.184 241.363L321.032 243.395C320.88 245.443 319.768 246.707 317.72 246.555C315.672 246.403 314.736 244.955 314.888 242.939L315.384 236.107C315.544 233.979 316.6 232.731 318.72 232.907C320.84 233.083 321.664 234.419 321.512 236.459ZM316.528 241.139L316.384 243.147C316.288 244.355 316.736 245.115 317.824 245.195C318.912 245.275 319.472 244.587 319.56 243.379L319.704 241.371C319.792 240.163 319.328 239.395 318.256 239.315C317.184 239.235 316.616 239.939 316.528 241.147V241.139Z" fill="#263238"/>
<path d="M323.768 245.003L323.632 246.867L322.2 246.755L322.336 244.899L323.768 245.003Z" fill="#263238"/>
<path d="M328.712 236.203C328.124 236.505 327.469 236.656 326.808 236.643L326.904 235.419C327.427 235.467 327.95 235.334 328.387 235.043C328.823 234.752 329.147 234.32 329.304 233.819L330.336 233.899L329.352 247.299L327.88 247.195L328.712 236.203Z" fill="#263238"/>
<path d="M332.272 237.259C332.424 235.211 333.536 233.963 335.584 234.115C337.632 234.267 338.568 235.659 338.416 237.707L337.912 244.619C337.76 246.667 336.648 247.939 334.576 247.819C332.504 247.699 331.616 246.219 331.76 244.203L332.272 237.259ZM333.232 244.379C333.144 245.579 333.608 246.347 334.68 246.427C335.752 246.507 336.28 245.811 336.408 244.611L336.928 237.523C337.016 236.299 336.576 235.531 335.48 235.451C334.384 235.371 333.84 236.067 333.752 237.291L333.232 244.379Z" fill="#263238"/>
<path d="M256.736 127.003C256.566 127.297 256.32 127.54 256.025 127.707C255.73 127.874 255.395 127.96 255.056 127.955V127.683C255.437 127.671 255.805 127.543 256.112 127.318C256.419 127.092 256.65 126.779 256.776 126.419H257.064L256.36 136.019H256.056L256.736 127.003Z" fill="#263238"/>
<path d="M258.456 130.811C258.644 130.545 258.902 130.336 259.201 130.207C259.5 130.079 259.83 130.036 260.152 130.083C261.56 130.179 262 131.315 261.904 132.619L261.8 134.075C261.704 135.403 261.072 136.475 259.624 136.355C258.176 136.235 257.688 135.107 257.784 133.779V133.371H258.08V133.787C257.992 134.947 258.36 135.955 259.616 136.051C260.872 136.147 261.408 135.203 261.488 134.035L261.592 132.595C261.68 131.443 261.312 130.435 260.04 130.347C259.685 130.307 259.327 130.387 259.022 130.574C258.718 130.761 258.485 131.044 258.36 131.379V131.491H258.072L258.688 126.563L262.152 126.819V127.107L258.952 126.867L258.456 130.811Z" fill="#263238"/>
<path d="M267.416 127.211L262.928 136.523H262.656L267.144 127.203L267.416 127.211Z" fill="#263238"/>
<path d="M268.272 129.643C268.376 128.283 269.024 127.243 270.496 127.363C271.968 127.483 272.456 128.587 272.36 129.939L272 134.859C271.904 136.203 271.248 137.259 269.776 137.139C268.304 137.019 267.816 135.907 267.912 134.563L268.272 129.643ZM268.216 134.547C268.128 135.739 268.528 136.731 269.816 136.827C271.104 136.923 271.624 136.027 271.712 134.803L272.072 129.907C272.16 128.723 271.768 127.731 270.472 127.643C269.176 127.555 268.664 128.443 268.576 129.651L268.216 134.547Z" fill="#263238"/>
<path d="M277.44 130.315V130.547C277.427 130.984 277.273 131.404 277 131.744C276.727 132.085 276.351 132.328 275.928 132.435C276.338 132.572 276.685 132.85 276.91 133.219C277.134 133.588 277.22 134.025 277.152 134.451L277.104 135.195C277 136.539 276.392 137.595 274.92 137.475C273.448 137.355 272.984 136.243 273.088 134.899V134.451H273.384V134.907C273.296 136.083 273.656 137.091 274.928 137.179C276.2 137.267 276.712 136.379 276.8 135.139L276.856 134.419C276.897 134.197 276.891 133.969 276.838 133.75C276.784 133.531 276.685 133.325 276.547 133.147C276.409 132.969 276.235 132.822 276.035 132.716C275.836 132.61 275.617 132.547 275.392 132.531L274.696 132.483V132.203L275.408 132.259C275.861 132.257 276.296 132.076 276.616 131.756C276.937 131.435 277.118 131.001 277.12 130.547V130.275C277.208 129.083 276.84 128.091 275.56 127.995C274.28 127.899 273.792 128.795 273.704 130.011V130.299H273.4V130.027C273.504 128.683 274.128 127.627 275.592 127.747C277.056 127.867 277.544 128.971 277.44 130.315Z" fill="#263238"/>
<path d="M282.704 128.331L278.216 137.651H277.944L282.4 128.307L282.704 128.331Z" fill="#263238"/>
<path d="M287.568 131.083C287.376 133.755 283.664 134.379 283.368 137.683V137.739L287.016 138.003V138.291L283.064 138.003V137.795C283.328 134.203 287.064 133.651 287.28 131.075C287.368 129.867 287.056 128.859 285.728 128.755C284.4 128.651 283.952 129.675 283.864 130.827L283.824 131.347H283.536V130.843C283.632 129.515 284.24 128.443 285.72 128.507C287.2 128.571 287.672 129.731 287.568 131.083Z" fill="#263238"/>
<path d="M288.632 131.139C288.728 129.779 289.384 128.739 290.848 128.859C292.312 128.979 292.816 130.075 292.712 131.435L292.36 136.315C292.256 137.659 291.6 138.715 290.136 138.595C288.672 138.475 288.176 137.355 288.272 136.019L288.632 131.139ZM288.576 136.035C288.488 137.227 288.88 138.227 290.176 138.315C291.472 138.403 291.984 137.515 292.072 136.291L292.432 131.395C292.52 130.219 292.12 129.227 290.832 129.131C289.544 129.035 289.016 129.931 288.936 131.147L288.576 136.035Z" fill="#263238"/>
<path d="M297.8 131.835C297.6 134.507 293.888 135.131 293.592 138.435V138.483L297.24 138.755V139.043L293.288 138.755V138.547C293.552 134.955 297.288 134.403 297.504 131.827C297.592 130.619 297.28 129.603 295.952 129.507C294.624 129.411 294.176 130.427 294.088 131.579V132.099H293.8V131.595C293.896 130.267 294.504 129.147 295.984 129.259C297.464 129.371 297.896 130.475 297.8 131.835Z" fill="#263238"/>
<path d="M300.712 130.227C300.542 130.521 300.296 130.764 300.001 130.931C299.706 131.098 299.371 131.184 299.032 131.179V130.907C299.413 130.896 299.782 130.769 300.089 130.543C300.396 130.317 300.627 130.004 300.752 129.643H301.032L300.328 139.243H300.032L300.712 130.227Z" fill="#263238"/>
<path d="M336.08 134.571V134.755H335.776V134.563C335.864 133.427 335.504 132.435 334.256 132.339C333.008 132.243 332.504 133.139 332.416 134.299C332.24 136.755 335.92 136.955 335.728 139.563C335.632 140.891 335.008 141.907 333.536 141.803C332.064 141.699 331.616 140.595 331.712 139.267V138.803H332V139.283C331.912 140.451 332.296 141.403 333.56 141.499C334.824 141.595 335.336 140.699 335.424 139.539C335.6 137.139 331.92 136.923 332.12 134.275C332.216 132.883 332.92 131.963 334.264 132.051C335.608 132.139 336.176 133.259 336.08 134.571Z" fill="#263238"/>
<path d="M337.6 139.731L336.872 141.947H336.6L339.624 132.507H340.048L341.712 142.291H341.416L341.016 139.987L337.6 139.731ZM337.68 139.459L340.984 139.699L339.8 132.859L337.68 139.459Z" fill="#263238"/>
<path d="M344 142.475L344.68 133.171L342.6 133.019V132.731L347.088 133.059V133.347L344.992 133.187L344.304 142.499L344 142.475Z" fill="#263238"/>
<path d="M205.379 257.498L202.188 257.264L200.43 281.2L203.621 281.434L205.379 257.498Z" fill="#263238"/>
<path d="M213.696 258.114L210.504 257.88L208.746 281.815L211.938 282.05L213.696 258.114Z" fill="#263238"/>
<path d="M208.398 257.719L206.811 257.603L205.053 281.538L206.641 281.655L208.398 257.719Z" fill="#263238"/>
<path d="M218.822 258.497L215.631 258.262L213.873 282.198L217.065 282.432L218.822 258.497Z" fill="#263238"/>
<path d="M223.341 258.793L222.711 258.747L220.958 282.683L221.588 282.729L223.341 258.793Z" fill="#263238"/>
<path d="M221.858 258.718L220.27 258.601L218.512 282.537L220.1 282.653L221.858 258.718Z" fill="#263238"/>
<path d="M228.25 259.177L225.059 258.943L223.301 282.878L226.493 283.113L228.25 259.177Z" fill="#263238"/>
<path d="M236.568 259.785L233.376 259.55L231.619 283.486L234.81 283.72L236.568 259.785Z" fill="#263238"/>
<path d="M231.286 259.398L229.698 259.281L227.941 283.217L229.528 283.333L231.286 259.398Z" fill="#263238"/>
<path d="M241.702 260.167L238.511 259.933L236.753 283.868L239.945 284.103L241.702 260.167Z" fill="#263238"/>
<path d="M246.203 260.478L245.573 260.432L243.815 284.367L244.446 284.414L246.203 260.478Z" fill="#263238"/>
<path d="M244.737 260.389L243.149 260.272L241.392 284.208L242.979 284.324L244.737 260.389Z" fill="#263238"/>
<path d="M251.157 260.829L247.965 260.595L246.212 284.531L249.403 284.764L251.157 260.829Z" fill="#263238"/>
<path d="M259.482 261.435L256.291 261.201L254.537 285.137L257.728 285.371L259.482 261.435Z" fill="#263238"/>
<path d="M254.184 261.049L252.596 260.932L250.843 284.868L252.43 284.985L254.184 261.049Z" fill="#263238"/>
<path d="M264.609 261.816L261.417 261.583L259.664 285.518L262.855 285.752L264.609 261.816Z" fill="#263238"/>
<path d="M269.086 262.143L268.456 262.096L266.702 286.032L267.332 286.078L269.086 262.143Z" fill="#263238"/>
<path d="M268.975 261.931L267.383 261.82L265.703 285.82L267.295 285.931L268.975 261.931Z" fill="#263238"/>
<path d="M273.994 262.542L270.802 262.308L269.045 286.243L272.236 286.478L273.994 262.542Z" fill="#263238"/>
<path d="M282.311 263.15L279.119 262.916L277.362 286.851L280.553 287.085L282.311 263.15Z" fill="#263238"/>
<path d="M277.013 262.771L275.425 262.654L273.668 286.59L275.255 286.706L277.013 262.771Z" fill="#263238"/>
<path d="M287.445 263.524L284.254 263.29L282.496 287.226L285.688 287.46L287.445 263.524Z" fill="#263238"/>
<path d="M291.946 263.835L291.316 263.789L289.558 287.725L290.188 287.771L291.946 263.835Z" fill="#263238"/>
<path d="M290.473 263.754L288.885 263.637L287.127 287.573L288.715 287.689L290.473 263.754Z" fill="#263238"/>
<path d="M296.901 264.178L293.71 263.944L291.956 287.88L295.148 288.114L296.901 264.178Z" fill="#263238"/>
<path d="M305.182 264.836L301.991 264.602L300.233 288.538L303.424 288.772L305.182 264.836Z" fill="#263238"/>
<path d="M299.885 264.442L298.297 264.325L296.54 288.26L298.127 288.377L299.885 264.442Z" fill="#263238"/>
<path d="M310.317 265.211L307.125 264.977L305.368 288.912L308.559 289.147L310.317 265.211Z" fill="#263238"/>
<path d="M314.831 265.492L314.2 265.446L312.447 289.382L313.077 289.428L314.831 265.492Z" fill="#263238"/>
<path d="M313.344 265.432L311.757 265.316L309.999 289.251L311.587 289.368L313.344 265.432Z" fill="#263238"/>
<path d="M319.737 265.899L316.546 265.665L314.788 289.601L317.98 289.835L319.737 265.899Z" fill="#263238"/>
<path d="M328.054 266.507L324.863 266.273L323.105 290.208L326.297 290.443L328.054 266.507Z" fill="#263238"/>
<path d="M322.757 266.128L321.169 266.012L319.411 289.947L320.999 290.064L322.757 266.128Z" fill="#263238"/>
<path d="M333.189 266.882L329.998 266.647L328.24 290.583L331.431 290.817L333.189 266.882Z" fill="#263238"/>
<path d="M337.69 267.185L337.06 267.138L335.302 291.074L335.932 291.12L337.69 267.185Z" fill="#263238"/>
<path d="M336.261 267.069L334.673 266.953L332.919 290.889L334.507 291.005L336.261 267.069Z" fill="#263238"/>
<path d="M373.8 270.587L385.152 379.363" stroke="#263238" stroke-width="2" stroke-miterlimit="10"/>
<path d="M383.32 358.547L378.176 353.107" stroke="#263238" stroke-width="2" stroke-miterlimit="10"/>
<path d="M379.736 354.739C379.728 353.907 379.54 353.086 379.187 352.333C378.834 351.579 378.323 350.91 377.688 350.371C376.368 349.195 369.416 346.267 368.76 348.715C368.04 351.379 375.2 356.611 379.736 354.739Z" fill="#0000FE" stroke="#263238" stroke-miterlimit="10"/>
<path d="M379.736 354.739L373.12 350.611" stroke="#263238" stroke-width="0.5" stroke-miterlimit="10"/>
<path d="M384.616 370.915L379.464 365.475" stroke="#263238" stroke-width="2" stroke-miterlimit="10"/>
<path d="M381.032 367.107C381.021 366.275 380.833 365.455 380.48 364.702C380.126 363.949 379.617 363.28 378.984 362.739C377.664 361.563 370.712 358.635 370.048 361.083C369.336 363.747 376.448 368.979 381.032 367.107Z" fill="#0000FE" stroke="#263238" stroke-miterlimit="10"/>
<path d="M381.032 367.107L374.416 362.979" stroke="#263238" stroke-width="0.5" stroke-miterlimit="10"/>
<path d="M380.168 328.355L375.024 322.923" stroke="#263238" stroke-width="2" stroke-miterlimit="10"/>
<path d="M376.592 324.547C376.581 323.717 376.392 322.898 376.039 322.146C375.686 321.394 375.176 320.726 374.544 320.187C373.224 319.003 366.272 316.083 365.608 318.531C364.888 321.195 372 326.419 376.592 324.547Z" fill="#0000FE" stroke="#263238" stroke-miterlimit="10"/>
<path d="M376.592 324.547L369.968 320.427" stroke="#263238" stroke-width="0.5" stroke-miterlimit="10"/>
<path d="M381.464 340.731L376.32 335.291" stroke="#263238" stroke-width="2" stroke-miterlimit="10"/>
<path d="M377.88 336.923C377.869 336.091 377.681 335.271 377.327 334.518C376.974 333.765 376.464 333.096 375.832 332.555C374.512 331.379 367.56 328.451 366.896 330.899C366.184 333.563 373.296 338.795 377.88 336.923Z" fill="#0000FE" stroke="#263238" stroke-miterlimit="10"/>
<path d="M377.88 336.923L371.264 332.795" stroke="#263238" stroke-width="0.5" stroke-miterlimit="10"/>
<path d="M378.072 308.259L372.928 302.827" stroke="#263238" stroke-width="2" stroke-miterlimit="10"/>
<path d="M374.496 304.459C374.484 303.628 374.295 302.809 373.94 302.057C373.586 301.305 373.074 300.637 372.44 300.099C371.12 298.915 364.168 295.995 363.512 298.443C362.792 301.099 369.912 306.323 374.496 304.459Z" fill="#0000FE" stroke="#263238" stroke-miterlimit="10"/>
<path d="M374.496 304.451L367.872 300.331" stroke="#263238" stroke-width="0.5" stroke-miterlimit="10"/>
<path d="M375.968 288.075L370.824 282.643" stroke="#263238" stroke-width="2" stroke-miterlimit="10"/>
<path d="M372.384 284.275C372.376 283.443 372.188 282.622 371.835 281.869C371.482 281.115 370.971 280.446 370.336 279.907C369.016 278.723 362.064 275.803 361.408 278.251C360.688 280.915 367.8 286.147 372.384 284.275Z" fill="#0000FE" stroke="#263238" stroke-miterlimit="10"/>
<path d="M372.384 284.275L365.768 280.147" stroke="#263238" stroke-width="0.5" stroke-miterlimit="10"/>
<path d="M382.456 351.227L386.368 344.843" stroke="#263238" stroke-width="2" stroke-miterlimit="10"/>
<path d="M385.176 346.763C385.014 345.947 385.029 345.106 385.22 344.296C385.41 343.486 385.772 342.726 386.28 342.067C387.328 340.635 393.528 336.339 394.68 338.603C395.928 341.059 390.048 347.659 385.176 346.763Z" fill="#0000FE" stroke="#263238" stroke-miterlimit="10"/>
<path d="M385.176 346.763L391.136 341.067" stroke="#263238" stroke-width="0.5" stroke-miterlimit="10"/>
<path d="M379.056 318.667L382.976 312.291" stroke="#263238" stroke-width="2" stroke-miterlimit="10"/>
<path d="M381.776 314.203C381.615 313.388 381.63 312.548 381.82 311.74C382.011 310.931 382.372 310.172 382.88 309.515C383.928 308.083 390.128 303.787 391.28 306.051C392.536 308.507 386.648 315.091 381.776 314.203Z" fill="#0000FE" stroke="#263238" stroke-miterlimit="10"/>
<path d="M381.776 314.203L387.736 308.507" stroke="#263238" stroke-width="0.5" stroke-miterlimit="10"/>
<path d="M377.568 304.363L381.48 297.987" stroke="#263238" stroke-width="2" stroke-miterlimit="10"/>
<path d="M380.288 299.899C380.126 299.083 380.141 298.242 380.332 297.432C380.522 296.622 380.884 295.862 381.392 295.203C382.44 293.779 388.64 289.483 389.784 291.739C391.04 294.195 385.16 300.787 380.288 299.899Z" fill="#0000FE" stroke="#263238" stroke-miterlimit="10"/>
<path d="M380.288 299.899L386.248 294.203" stroke="#263238" stroke-width="0.5" stroke-miterlimit="10"/>
<path d="M375.376 283.395L379.288 277.011" stroke="#263238" stroke-width="2" stroke-miterlimit="10"/>
<path d="M378.096 278.931C377.935 278.115 377.949 277.274 378.14 276.464C378.33 275.654 378.692 274.894 379.2 274.235C380.248 272.803 386.448 268.507 387.6 270.771C388.848 273.259 382.968 279.811 378.096 278.931Z" fill="#0000FE" stroke="#263238" stroke-miterlimit="10"/>
<path d="M378.096 278.931L384.056 273.235" stroke="#263238" stroke-width="0.5" stroke-miterlimit="10"/>
<path d="M373.704 269.979C373.543 269.164 373.558 268.324 373.748 267.516C373.939 266.707 374.3 265.949 374.808 265.291C375.856 263.859 382.056 259.563 383.208 261.827C384.456 264.283 378.576 270.859 373.704 269.979Z" fill="#0000FE" stroke="#263238" stroke-miterlimit="10"/>
<path d="M373.704 269.979L379.664 264.283" stroke="#263238" stroke-width="0.5" stroke-miterlimit="10"/>
<path d="M374.048 270.227C373.219 270.3 372.384 270.195 371.599 269.919C370.814 269.643 370.097 269.203 369.496 268.627C368.192 267.427 364.568 260.819 366.936 259.907C369.504 258.939 375.44 265.475 374.048 270.227Z" fill="#0000FE" stroke="#263238" stroke-miterlimit="10"/>
<path d="M374.048 270.227L369.008 263.707" stroke="#263238" stroke-width="0.5" stroke-miterlimit="10"/>
<path d="M403.744 285.563L392.456 394.347" stroke="#263238" stroke-width="2" stroke-miterlimit="10"/>
<path d="M394.952 373.595L391.032 367.219" stroke="#263238" stroke-width="2" stroke-miterlimit="10"/>
<path d="M392.224 369.139C392.383 368.326 392.367 367.487 392.177 366.68C391.987 365.873 391.626 365.116 391.12 364.459C390.072 363.035 383.872 358.739 382.72 360.995C381.472 363.443 387.36 370.059 392.224 369.139Z" fill="#0000FE" stroke="#263238" stroke-miterlimit="10"/>
<path d="M392.224 369.139L386.6 363.739" stroke="#263238" stroke-width="0.5" stroke-miterlimit="10"/>
<path d="M398.08 343.411L394.168 337.035" stroke="#263238" stroke-width="2" stroke-miterlimit="10"/>
<path d="M395.36 338.947C395.522 338.131 395.507 337.29 395.316 336.48C395.126 335.67 394.765 334.91 394.256 334.251C393.2 332.827 387 328.531 385.856 330.795C384.6 333.259 390.488 339.835 395.36 338.947Z" fill="#0000FE" stroke="#263238" stroke-miterlimit="10"/>
<path d="M395.36 338.947L389.728 333.547" stroke="#263238" stroke-width="0.5" stroke-miterlimit="10"/>
<path d="M396.8 355.779L392.88 349.403" stroke="#263238" stroke-width="2" stroke-miterlimit="10"/>
<path d="M394.072 351.315C394.234 350.5 394.219 349.66 394.028 348.852C393.838 348.043 393.476 347.285 392.968 346.627C391.92 345.203 385.72 340.907 384.568 343.163C383.32 345.627 389.208 352.203 394.072 351.315Z" fill="#0000FE" stroke="#263238" stroke-miterlimit="10"/>
<path d="M394.072 351.315L388.448 345.923" stroke="#263238" stroke-width="0.5" stroke-miterlimit="10"/>
<path d="M400.168 323.315L396.248 316.939" stroke="#263238" stroke-width="2" stroke-miterlimit="10"/>
<path d="M397.448 318.859C397.607 318.042 397.59 317.201 397.398 316.391C397.207 315.582 396.845 314.822 396.336 314.163C395.288 312.739 389.088 308.443 387.936 310.707C386.688 313.155 392.576 319.739 397.448 318.859Z" fill="#0000FE" stroke="#263238" stroke-miterlimit="10"/>
<path d="M397.448 318.851L391.816 313.451" stroke="#263238" stroke-width="0.5" stroke-miterlimit="10"/>
<path d="M402.264 303.131L398.344 296.755" stroke="#263238" stroke-width="2" stroke-miterlimit="10"/>
<path d="M399.536 298.667C399.698 297.851 399.683 297.01 399.492 296.2C399.302 295.39 398.941 294.63 398.432 293.971C397.384 292.547 391.184 288.251 390.032 290.515C388.8 292.971 394.672 299.555 399.536 298.667Z" fill="#0000FE" stroke="#263238" stroke-miterlimit="10"/>
<path d="M399.536 298.667L393.912 293.267" stroke="#263238" stroke-width="0.5" stroke-miterlimit="10"/>
<path d="M395.608 366.259L400.752 360.819" stroke="#263238" stroke-width="2" stroke-miterlimit="10"/>
<path d="M399.2 362.451C399.208 361.62 399.394 360.799 399.746 360.046C400.098 359.292 400.608 358.623 401.24 358.083C402.56 356.899 409.512 353.971 410.176 356.419C410.888 359.083 403.776 364.315 399.2 362.451Z" fill="#0000FE" stroke="#263238" stroke-miterlimit="10"/>
<path d="M399.192 362.451L406.192 358.099" stroke="#263238" stroke-width="0.5" stroke-miterlimit="10"/>
<path d="M398.984 333.699L404.128 328.267" stroke="#263238" stroke-width="2" stroke-miterlimit="10"/>
<path d="M402.568 329.891C402.577 329.06 402.765 328.241 403.118 327.489C403.471 326.736 403.982 326.069 404.616 325.531C405.936 324.347 412.88 321.419 413.544 323.867C414.264 326.531 407.152 331.763 402.568 329.891Z" fill="#0000FE" stroke="#263238" stroke-miterlimit="10"/>
<path d="M402.568 329.891L409.576 325.547" stroke="#263238" stroke-width="0.5" stroke-miterlimit="10"/>
<path d="M400.472 319.395L405.616 313.955" stroke="#263238" stroke-width="2" stroke-miterlimit="10"/>
<path d="M404.056 315.587C404.064 314.756 404.25 313.935 404.602 313.182C404.954 312.428 405.464 311.759 406.096 311.219C407.416 310.043 414.368 307.115 415.032 309.563C415.752 312.219 408.64 317.459 404.056 315.587Z" fill="#0000FE" stroke="#263238" stroke-miterlimit="10"/>
<path d="M404.056 315.587L411.056 311.243" stroke="#263238" stroke-width="0.5" stroke-miterlimit="10"/>
<path d="M402.648 298.419L407.792 292.987" stroke="#263238" stroke-width="2" stroke-miterlimit="10"/>
<path d="M406.232 294.611C406.241 293.781 406.427 292.962 406.779 292.21C407.131 291.458 407.64 290.79 408.272 290.251C409.592 289.067 416.544 286.139 417.208 288.587C417.928 291.251 410.816 296.459 406.232 294.611Z" fill="#0000FE" stroke="#263238" stroke-miterlimit="10"/>
<path d="M406.232 294.611L413.232 290.267" stroke="#263238" stroke-width="0.5" stroke-miterlimit="10"/>
<path d="M403.768 284.955C403.78 284.123 403.968 283.304 404.321 282.551C404.675 281.797 405.184 281.128 405.816 280.587C407.136 279.411 414.088 276.483 414.752 278.931C415.464 281.587 408.352 286.859 403.768 284.955Z" fill="#0000FE" stroke="#263238" stroke-miterlimit="10"/>
<path d="M403.768 284.955L410.776 280.611" stroke="#263238" stroke-width="0.5" stroke-miterlimit="10"/>
<path d="M404.056 285.259C403.231 285.162 402.435 284.89 401.724 284.461C401.012 284.032 400.4 283.456 399.928 282.771C398.896 281.331 396.728 274.115 399.216 273.707C401.936 273.259 406.4 280.907 404.056 285.259Z" fill="#0000FE" stroke="#263238" stroke-miterlimit="10"/>
<path d="M404.056 285.267L400.472 277.843" stroke="#263238" stroke-width="0.5" stroke-miterlimit="10"/>
<path d="M390.808 241.275V378.827" stroke="#263238" stroke-width="2" stroke-miterlimit="10"/>
<path d="M390.912 358.147L386.36 352.203" stroke="#263238" stroke-width="2" stroke-miterlimit="10"/>
<path d="M387.744 353.987C387.82 353.158 387.716 352.322 387.44 351.537C387.164 350.752 386.722 350.035 386.144 349.435C384.952 348.123 378.344 344.491 377.432 346.859C376.464 349.435 382.992 355.371 387.744 353.987Z" fill="#0000FE" stroke="#263238" stroke-miterlimit="10"/>
<path d="M387.744 353.987L381.592 349.203" stroke="#263238" stroke-width="0.5" stroke-miterlimit="10"/>
<path d="M390.912 332.299L386.36 326.355" stroke="#263238" stroke-width="2" stroke-miterlimit="10"/>
<path d="M387.744 328.139C387.82 327.31 387.716 326.474 387.44 325.689C387.164 324.904 386.722 324.187 386.144 323.587C384.952 322.275 378.344 318.643 377.432 321.011C376.464 323.587 382.992 329.523 387.744 328.139Z" fill="#0000FE" stroke="#263238" stroke-miterlimit="10"/>
<path d="M387.744 328.139L381.592 323.347" stroke="#263238" stroke-width="0.5" stroke-miterlimit="10"/>
<path d="M390.912 301.947L386.36 296.003" stroke="#263238" stroke-width="2" stroke-miterlimit="10"/>
<path d="M387.744 297.787C387.82 296.958 387.716 296.122 387.44 295.337C387.164 294.552 386.722 293.835 386.144 293.235C384.952 291.923 378.344 288.291 377.432 290.659C376.464 293.259 382.992 299.171 387.744 297.787Z" fill="#0000FE" stroke="#263238" stroke-miterlimit="10"/>
<path d="M387.744 297.787L381.592 292.995" stroke="#263238" stroke-width="0.5" stroke-miterlimit="10"/>
<path d="M390.912 281.739L386.36 275.803" stroke="#263238" stroke-width="2" stroke-miterlimit="10"/>
<path d="M387.744 277.587C387.82 276.757 387.716 275.92 387.44 275.133C387.164 274.346 386.722 273.628 386.144 273.027C384.952 271.715 378.344 268.091 377.432 270.451C376.464 273.027 382.992 278.971 387.744 277.587Z" fill="#0000FE" stroke="#263238" stroke-miterlimit="10"/>
<path d="M387.744 277.587L381.592 272.795" stroke="#263238" stroke-width="0.5" stroke-miterlimit="10"/>
<path d="M390.912 261.451L386.36 255.507" stroke="#263238" stroke-width="2" stroke-miterlimit="10"/>
<path d="M387.744 257.259C387.82 256.43 387.716 255.594 387.44 254.809C387.164 254.024 386.722 253.307 386.144 252.707C384.952 251.395 378.344 247.763 377.432 250.131C376.464 252.739 382.992 258.675 387.744 257.259Z" fill="#0000FE" stroke="#263238" stroke-miterlimit="10"/>
<path d="M387.744 257.291L381.592 252.499" stroke="#263238" stroke-width="0.5" stroke-miterlimit="10"/>
<path d="M390.816 366.043L395.368 360.099" stroke="#263238" stroke-width="2" stroke-miterlimit="10"/>
<path d="M393.984 361.883C393.909 361.054 394.012 360.218 394.288 359.433C394.564 358.648 395.006 357.931 395.584 357.331C396.776 356.019 403.384 352.387 404.296 354.755C405.272 357.331 398.736 363.267 393.984 361.883Z" fill="#0000FE" stroke="#263238" stroke-miterlimit="10"/>
<path d="M393.984 361.883L400.504 356.835" stroke="#263238" stroke-width="0.5" stroke-miterlimit="10"/>
<path d="M390.816 324.923L395.368 318.987" stroke="#263238" stroke-width="2" stroke-miterlimit="10"/>
<path d="M393.984 320.771C393.909 319.941 394.013 319.104 394.289 318.318C394.565 317.531 395.007 316.813 395.584 316.211C396.776 314.907 403.384 311.275 404.296 313.643C405.272 316.211 398.736 322.155 393.984 320.771Z" fill="#0000FE" stroke="#263238" stroke-miterlimit="10"/>
<path d="M393.984 320.771L400.504 315.723" stroke="#263238" stroke-width="0.5" stroke-miterlimit="10"/>
<path d="M390.816 304.635L395.368 298.691" stroke="#263238" stroke-width="2" stroke-miterlimit="10"/>
<path d="M393.984 300.459C393.909 299.63 394.012 298.794 394.288 298.009C394.564 297.224 395.006 296.507 395.584 295.907C396.776 294.595 403.384 290.963 404.296 293.331C405.272 295.923 398.736 301.859 393.984 300.459Z" fill="#0000FE" stroke="#263238" stroke-miterlimit="10"/>
<path d="M393.984 300.475L400.504 295.427" stroke="#263238" stroke-width="0.5" stroke-miterlimit="10"/>
<path d="M390.816 277.811L395.368 271.875" stroke="#263238" stroke-width="2" stroke-miterlimit="10"/>
<path d="M393.984 273.651C393.909 272.822 394.012 271.986 394.288 271.201C394.564 270.416 395.006 269.699 395.584 269.099C396.776 267.787 403.384 264.163 404.296 266.523C405.272 269.099 398.736 275.043 393.984 273.651Z" fill="#0000FE" stroke="#263238" stroke-miterlimit="10"/>
<path d="M393.984 273.651L400.504 268.611" stroke="#263238" stroke-width="0.5" stroke-miterlimit="10"/>
<path d="M390.816 256.723L395.368 250.787" stroke="#263238" stroke-width="2" stroke-miterlimit="10"/>
<path d="M393.984 252.571C393.909 251.741 394.013 250.904 394.289 250.117C394.565 249.331 395.007 248.613 395.584 248.011C396.776 246.707 403.384 243.075 404.296 245.443C405.272 248.011 398.736 253.955 393.984 252.571Z" fill="#0000FE" stroke="#263238" stroke-miterlimit="10"/>
<path d="M393.984 252.571L400.504 247.523" stroke="#263238" stroke-width="0.5" stroke-miterlimit="10"/>
<path d="M390.544 243.219C390.469 242.389 390.573 241.552 390.849 240.765C391.125 239.979 391.566 239.261 392.144 238.659C393.336 237.355 399.944 233.723 400.856 236.091C401.824 238.659 395.296 244.603 390.544 243.219Z" fill="#0000FE" stroke="#263238" stroke-miterlimit="10"/>
<path d="M390.544 243.219L397.056 238.171" stroke="#263238" stroke-width="0.5" stroke-miterlimit="10"/>
<path d="M390.856 243.499C390.025 243.488 389.205 243.298 388.453 242.944C387.701 242.589 387.034 242.077 386.496 241.443C385.32 240.123 382.4 233.163 384.848 232.507C387.512 231.795 392.736 238.915 390.856 243.499Z" fill="#0000FE" stroke="#263238" stroke-miterlimit="10"/>
<path d="M390.856 243.499L386.528 236.483" stroke="#263238" stroke-width="0.5" stroke-miterlimit="10"/>
<path d="M396.464 414.507H381.896L380.072 377.715H398.288L396.464 414.507Z" fill="#263238" stroke="#263238" stroke-miterlimit="10"/>
<path d="M116.327 131.178C119.376 129.939 120.844 126.462 119.605 123.413C118.366 120.363 114.89 118.895 111.84 120.134C108.791 121.373 107.323 124.85 108.562 127.899C109.801 130.949 113.277 132.416 116.327 131.178Z" fill="white" stroke="#263238" stroke-miterlimit="10"/>
<path d="M140.648 126.859H87.0481L105.808 104.459H121.888L140.648 126.859Z" fill="#263238"/>
<path d="M117.384 100.123H110.312V107.195H117.384V100.123Z" fill="#263238"/>
<path d="M114.136 101.451V51.9233" stroke="#263238" stroke-miterlimit="10"/>
<path d="M156.288 256.027C156.288 256.027 151.096 252.027 149.536 251.227C147.976 250.427 143.488 251.035 141.72 250.827C139.952 250.619 137.032 254.379 137.032 254.379C137.032 254.379 137.656 255.395 138.456 255.435C139.256 255.475 143.728 255.747 144.856 255.739C145.984 255.731 148.28 255.379 148.28 255.379L154.744 260.419L156.288 256.027Z" fill="white" stroke="#263238" stroke-miterlimit="10"/>
<path d="M172.568 266.563L156.304 255.779L151.008 261.803C151.008 261.803 169.464 282.875 170.536 283.403C171.608 283.931 172.568 266.563 172.568 266.563Z" fill="#0000FE" stroke="#263238" stroke-miterlimit="10"/>
<path d="M82.76 255.283H68.104V295.555H82.76V255.283Z" fill="#263238" stroke="#263238" stroke-miterlimit="10"/>
<path d="M96.8962 255.283H53.9602V289.323H96.8962V255.283Z" fill="#263238" stroke="#263238" stroke-miterlimit="10"/>
<path d="M93.48 257.995H57.376V286.619H93.48V257.995Z" fill="#263238" stroke="white" stroke-miterlimit="10"/>
<path d="M106.264 260.347C108.968 259.43 111.617 258.362 114.2 257.147C116.304 255.963 125.144 249.323 125.144 249.323C125.144 249.323 126.072 246.171 126.856 245.731C128.331 245.119 129.837 244.585 131.368 244.131C131.368 244.131 137.952 243.667 137.608 244.931C137.264 246.195 128.504 251.723 127.608 252.715C126.712 253.707 114.632 263.067 113.528 265.283C112.424 267.499 103.68 273.427 103.68 273.427C103.68 273.427 102.472 273.619 103.68 271.027C104.888 268.435 105.968 262.523 106.264 260.347Z" fill="white" stroke="#263238" stroke-miterlimit="10"/>
<path d="M103.68 273.427C103.68 273.427 112.424 267.459 113.528 265.251C114.177 264.305 114.953 263.452 115.832 262.715C115.495 260.772 115.038 258.851 114.464 256.963L114.2 257.123C111.617 258.338 108.967 259.406 106.264 260.323C105.968 262.499 104.912 268.323 103.696 270.971C102.48 273.619 103.68 273.427 103.68 273.427Z" fill="white" stroke="#263238" stroke-miterlimit="10"/>
<path d="M112.736 257.467C112.736 257.467 114.224 263.067 113.536 265.251C112.83 267.286 111.619 269.109 110.016 270.547C108.728 271.691 104.552 274.595 103.336 274.547C102.12 274.499 103.624 269.411 103.992 268.715C104.36 268.019 105.592 260.811 106.784 259.811C107.976 258.811 112.192 257.355 112.736 257.467Z" fill="white" stroke="#263238" stroke-miterlimit="10"/>
<path d="M136.96 245.579C137.365 245.163 137.616 244.621 137.672 244.043C137.652 242.682 137.561 241.323 137.4 239.971C137.264 238.691 135.984 238.819 136.016 239.539C136.048 240.259 136.016 242.979 136.016 242.979L136.088 244.475L136.96 245.579Z" fill="white" stroke="#263238" stroke-miterlimit="10"/>
<path d="M135.44 246.731C136.114 246.217 136.733 245.635 137.288 244.995C136.897 243.57 136.325 242.202 135.584 240.923C134.88 239.739 133.872 239.571 133.984 240.427C134.096 241.283 135.336 244.587 135.424 244.939C135.512 245.291 134.84 246.115 134.84 246.115" fill="white"/>
<path d="M135.44 246.731C136.114 246.217 136.733 245.635 137.288 244.995C136.897 243.57 136.325 242.202 135.584 240.923C134.88 239.739 133.872 239.571 133.984 240.427C134.096 241.283 135.336 244.587 135.424 244.939C135.512 245.291 134.84 246.115 134.84 246.115" stroke="#263238" stroke-miterlimit="10"/>
<path d="M131.776 249.643C131.776 249.643 135.84 247.243 135.776 246.443C135.712 245.643 134.312 241.387 133.464 240.619C132.616 239.851 132.248 240.683 132.584 242.011C132.92 243.339 133.704 245.467 133.704 245.467L132.168 247.163" fill="white"/>
<path d="M131.776 249.643C131.776 249.643 135.84 247.243 135.776 246.443C135.712 245.643 134.312 241.387 133.464 240.619C132.616 239.851 132.248 240.683 132.584 242.011C132.92 243.339 133.704 245.467 133.704 245.467L132.168 247.163" stroke="#263238" stroke-miterlimit="10"/>
<path d="M126.44 250.859C127.076 249.784 127.79 248.758 128.576 247.787C129.504 247.319 130.481 246.954 131.488 246.699C130.904 245.812 130.489 244.825 130.264 243.787C130.216 242.715 130.72 242.011 131.416 242.515C132.112 243.019 133.328 245.659 133.672 247.131C134.016 248.603 128.248 251.987 128.248 251.987" fill="white"/>
<path d="M126.44 250.859C127.076 249.784 127.79 248.758 128.576 247.787C129.504 247.319 130.481 246.954 131.488 246.699C130.904 245.812 130.489 244.825 130.264 243.787C130.216 242.715 130.72 242.011 131.416 242.515C132.112 243.019 133.328 245.659 133.672 247.131C134.016 248.603 128.248 251.987 128.248 251.987" stroke="#263238" stroke-miterlimit="10"/>
<path d="M115.336 216.251C115.794 216.086 116.182 215.769 116.435 215.353C116.688 214.936 116.792 214.446 116.728 213.963C116.68 212.059 115.928 208.363 111.064 206.315C106.2 204.267 98.2082 203.019 91.1362 208.859C84.0642 214.699 86.4002 226.859 86.1282 228.563C85.8562 230.267 82.2162 240.979 80.9602 244.059C79.7042 247.139 82.0642 250.571 82.7922 250.851C83.5202 251.131 90.6002 247.755 93.5202 243.987C96.4402 240.219 97.3282 234.187 98.6482 231.507C99.9682 228.827 101.848 222.347 103.92 220.635C105.992 218.923 107.704 219.587 109.736 217.875C111.768 216.163 113.12 216.075 113.12 216.075L115.336 216.251Z" fill="#263238" stroke="#263238" stroke-miterlimit="10"/>
<path d="M92.72 236.283C92.72 236.283 85.168 238.979 81.264 243.699C77.36 248.419 76.8 257.979 76.552 261.347C76.304 264.715 76.552 274.147 76.552 274.147C76.552 274.147 70.488 287.747 69.272 291.523C68.056 295.299 67.52 296.779 68.736 297.859C69.952 298.939 102.416 298.939 105.536 298.395C108.656 297.851 106.208 288.427 106.072 286.267C105.936 284.107 103.912 275.219 103.912 274.147C103.912 273.075 108.224 268.083 108.632 264.043C109.04 260.003 108.768 256.899 109.168 255.243C109.568 253.587 110.112 244.843 108.632 241.907C107.152 238.971 105.432 237.051 103.912 236.243C102.392 235.435 97.296 233.995 92.72 236.283Z" fill="white" stroke="#263238" stroke-miterlimit="10"/>
<path d="M93.2961 234.595C92.4263 234.843 91.6548 235.354 91.0881 236.059C90.6935 236.534 90.4191 237.096 90.2881 237.699L97.1201 248.299L101.712 243.147L107.312 244.795C106.451 241.716 105.382 238.698 104.112 235.763C102.704 232.867 96.0801 230.859 93.2961 234.595Z" fill="white" stroke="#263238" stroke-miterlimit="10"/>
<path d="M115.32 216.931C115.608 218.207 115.782 219.505 115.84 220.811C115.84 222.451 114.12 224.379 114.12 224.379C114.12 224.379 114.792 227.579 114.92 228.339C115.048 229.099 112.384 230.275 112.384 230.275C112.384 230.275 110.784 234.643 109.712 235.507C108.64 236.371 105.992 236.139 105.504 235.675C104.938 235.347 104.295 235.173 103.64 235.171C103.64 235.171 102.608 238.763 102.744 239.555C102.88 240.347 103.896 250.427 103.896 250.427C103.896 250.427 101.584 246.427 99.9681 244.123C98.3521 241.819 95.4961 237.915 94.7841 236.923C94.0721 235.931 93.2961 234.579 93.2961 234.579C93.2961 234.579 95.5041 228.979 96.2241 226.843C96.9441 224.707 96.9201 221.243 98.2961 222.115C99.6721 222.987 100.696 223.219 101.112 221.779C101.528 220.339 101.992 218.899 104.776 218.427C107.56 217.955 108.096 214.587 109.64 214.051C111.184 213.515 115.064 213.835 115.32 216.931Z" fill="white" stroke="#263238" stroke-miterlimit="10"/>
<path d="M100.584 224.347C100.584 224.347 100.312 220.291 97.984 220.275C95.656 220.259 95.224 223.339 95.536 225.195C95.848 227.051 98.888 227.227 98.888 227.227" fill="white"/>
<path d="M100.584 224.347C100.584 224.347 100.312 220.291 97.984 220.275C95.656 220.259 95.224 223.339 95.536 225.195C95.848 227.051 98.888 227.227 98.888 227.227" stroke="#263238" stroke-miterlimit="10"/>
<path d="M111.536 223.875C111.448 224.427 111.08 224.827 110.736 224.763C110.392 224.699 110.144 224.211 110.232 223.659C110.32 223.107 110.688 222.707 111.032 222.771C111.376 222.835 111.624 223.323 111.536 223.875Z" fill="#263238"/>
<path d="M109.168 220.979C109.168 220.979 111.568 219.203 113.376 220.819" stroke="#263238" stroke-miterlimit="10"/>
<path d="M107.24 228.955C107.24 228.955 107.728 231.059 110.44 230.875" stroke="#263238" stroke-miterlimit="10"/>
<path d="M102.28 276.707C102.28 276.707 119.128 285.331 120.336 285.731C121.544 286.131 122.736 286.811 123.704 286.267C124.672 285.723 127.88 287.067 128.688 287.347C130.296 287.586 131.918 287.722 133.544 287.755C133.544 287.755 135.024 286.955 135.024 287.891C135.024 288.827 130.176 291.259 129.096 291.659C128.016 292.059 124.784 292.459 123.568 291.659C122.352 290.859 113.464 288.155 113.464 288.155C113.464 288.155 102.824 285.459 101.608 285.059C100.411 284.722 99.196 284.454 97.968 284.259L102.28 276.707Z" fill="white" stroke="#263238" stroke-miterlimit="10"/>
<path d="M131.792 287.483C131.792 287.483 133.672 287.755 131.792 288.427C130.677 288.884 129.436 288.932 128.288 288.563C127.618 288.466 126.941 288.421 126.264 288.427" fill="white"/>
<path d="M131.792 287.483C131.792 287.483 133.672 287.755 131.792 288.427C130.677 288.884 129.436 288.932 128.288 288.563C127.618 288.466 126.941 288.421 126.264 288.427" stroke="#263238" stroke-miterlimit="10"/>
<path d="M102.28 276.707L97.968 284.251C99.196 284.446 100.411 284.714 101.608 285.051L102.008 285.171L104.568 277.867L102.28 276.707Z" fill="white" stroke="#263238" stroke-miterlimit="10"/>
<path d="M92.9842 248.947C92.9842 248.947 93.1202 255.955 95.1442 261.075C97.1682 266.195 100.128 269.163 99.7202 269.875C99.413 270.44 99.1457 271.025 98.9202 271.627C98.9202 271.627 100.672 271.355 100.808 272.427C100.88 272.918 100.925 273.412 100.944 273.907C100.944 273.907 102.16 274.851 102.696 275.251C103.232 275.651 103.232 277.003 103.232 277.003C103.232 277.003 100.408 284.555 99.2322 285.491C98.0562 286.427 94.6482 286.707 90.2082 284.819C85.7682 282.931 83.8722 279.163 82.2562 274.043C80.6402 268.923 80.5042 255.179 81.1762 252.619" fill="white"/>
<path d="M92.9842 248.947C92.9842 248.947 93.1202 255.955 95.1442 261.075C97.1682 266.195 100.128 269.163 99.7202 269.875C99.413 270.44 99.1457 271.025 98.9202 271.627C98.9202 271.627 100.672 271.355 100.808 272.427C100.88 272.918 100.925 273.412 100.944 273.907C100.944 273.907 102.16 274.851 102.696 275.251C103.232 275.651 103.232 277.003 103.232 277.003C103.232 277.003 100.408 284.555 99.2322 285.491C98.0562 286.427 94.6482 286.707 90.2082 284.819C85.7682 282.931 83.8722 279.163 82.2562 274.043C80.6402 268.923 80.5042 255.179 81.1762 252.619" stroke="#263238" stroke-miterlimit="10"/>
<path d="M131.488 246.691L127.176 256.035" stroke="#263238" stroke-miterlimit="10"/>
<path d="M136.96 245.579L146.12 254.475" stroke="#263238" stroke-miterlimit="10"/>
<path d="M145.248 252.155L141.384 252.739C140.296 252.899 137.456 251.939 137.464 253.011C137.472 254.083 139.376 254.147 140 254.051C140.624 253.955 142.192 254.987 143.816 255.219C145.093 255.254 146.356 254.954 147.48 254.347" fill="white"/>
<path d="M145.248 252.155L141.384 252.739C140.296 252.899 137.456 251.939 137.464 253.011C137.472 254.083 139.376 254.147 140 254.051C140.624 253.955 142.192 254.987 143.816 255.219C145.093 255.254 146.356 254.954 147.48 254.347" stroke="#263238" stroke-miterlimit="10"/>
<path d="M127.176 256.035L146.12 254.475L153.792 282.811L128.432 290.163L122.8 288.603L127.176 256.035Z" fill="#0000FE" stroke="#263238" stroke-miterlimit="10"/>
<path d="M127.176 256.035L128.432 290.163L122.8 288.603L127.176 256.035Z" fill="#0000FE" stroke="#263238" stroke-miterlimit="10"/>
<path d="M133.656 255.987C133.133 258.623 133.065 261.329 133.456 263.987C134.16 267.907 135.968 273.827 135.968 273.827L138.872 272.419C138.872 272.419 136.768 265.699 135.968 261.883C135.533 259.998 135.231 258.083 135.064 256.155L133.656 255.987Z" fill="#263238"/>
<path d="M133.6 255.579C133.6 255.579 133.6 261.683 134.544 264.659C135.488 267.635 138.296 273.747 138.296 273.747L146.136 270.299C146.136 270.299 141.88 264.347 140.8 261.259C140.11 259.256 139.533 257.215 139.072 255.147L133.6 255.579Z" fill="white" stroke="#263238" stroke-miterlimit="10"/>
<path d="M153.792 297.195H53.6001V414.507H153.792V297.195Z" fill="white" stroke="#263238" stroke-miterlimit="10"/>
<path d="M153.792 295.179H53.6001V302.691H153.792V295.179Z" fill="#263238" stroke="#263238" stroke-miterlimit="10"/>
<path d="M158.8 295.179H53.6001V299.771H158.8V295.179Z" fill="white" stroke="#263238" stroke-miterlimit="10"/>
<path d="M209.208 397.043L209.864 403.771C209.864 403.771 211.176 403.443 211.176 405.579C211.176 407.715 212.496 412.779 210.688 413.947C208.88 415.115 200.184 414.115 198.208 414.115C196.232 414.115 192.464 413.787 188.36 413.787C184.256 413.787 185.736 411.819 186.552 411.155C187.368 410.491 193.944 408.859 195.752 407.547C197.339 406.159 198.575 404.416 199.36 402.459C199.52 401.803 199.36 396.387 199.36 396.387L209.208 397.043Z" fill="white" stroke="#263238" stroke-miterlimit="10"/>
<path d="M211.2 405.579C211.2 404.211 210.664 403.851 210.28 403.779C208.248 404.963 203.16 405.379 203.16 405.379C202.636 404.412 201.907 403.571 201.024 402.915C200.874 402.826 200.707 402.768 200.533 402.745C200.36 402.722 200.184 402.734 200.015 402.78C199.846 402.826 199.689 402.906 199.551 403.014C199.414 403.123 199.3 403.258 199.216 403.411H198.936C198.17 404.969 197.095 406.354 195.776 407.483C193.968 408.795 187.4 410.435 186.576 411.091C185.752 411.747 184.28 413.723 188.384 413.723C192.488 413.723 196.264 414.051 198.232 414.051C200.2 414.051 208.904 415.035 210.712 413.883C212.52 412.731 211.2 407.715 211.2 405.579Z" fill="white" stroke="#263238" stroke-miterlimit="10"/>
<path d="M203.296 321.387C203.296 321.387 203.296 345.851 203.792 348.643C204.288 351.435 204.448 354.243 204.592 354.715C204.736 355.187 206.192 357.011 206.192 358.323C206.192 359.635 204.8 360.459 204.8 360.459C205.151 360.695 205.439 361.013 205.64 361.385C205.84 361.757 205.948 362.173 205.952 362.595C206.108 363.376 205.992 364.186 205.624 364.891C205.624 364.891 208.744 375.563 209.072 380.323C209.4 385.083 209.4 394.275 209.4 394.275C209.4 394.275 206.608 394.443 203.32 394.771C201.359 394.969 199.385 395.023 197.416 394.931C197.416 394.931 200.864 371.787 199.544 366.699C198.224 361.611 195.608 356.851 195.936 351.267C196.264 345.683 198.072 328.779 198.728 326.971C199.384 325.163 201.984 318.107 203.296 321.387Z" fill="#263238" stroke="#263238" stroke-miterlimit="10"/>
<path d="M199.52 390.171C199.52 390.171 204.776 390.339 206.256 390.339C207.736 390.339 208.72 388.859 209.864 390.011C211.008 391.163 210.52 396.083 210.192 396.899C209.864 397.715 206.912 398.219 204.288 398.219H198.208L199.52 390.171Z" fill="#6E6E6E" stroke="#263238" stroke-miterlimit="10"/>
<path d="M188.2 395.755L187.872 400.515C187.872 400.515 186.064 401.171 185.736 401.995C185.024 403.678 183.823 405.108 182.288 406.099C179.392 407.615 176.37 408.875 173.256 409.867C171.784 410.203 170.304 411.675 171.288 412.987C172.272 414.299 181.136 414.635 185.736 414.467C190.336 414.299 197.88 414.307 200.016 413.811C202.152 413.315 201 409.211 200.512 407.411C200.215 406.332 199.996 405.234 199.856 404.123L199.36 396.923L188.2 395.755Z" fill="white" stroke="#263238" stroke-miterlimit="10"/>
<path d="M185.736 401.995C185.024 403.678 183.823 405.108 182.288 406.099C179.392 407.615 176.37 408.875 173.256 409.867C171.784 410.203 170.304 411.675 171.288 412.987C172.272 414.299 181.136 414.635 185.736 414.467C190.336 414.299 197.88 414.307 200.016 413.811C202.152 413.315 201 409.211 200.512 407.411C200.275 406.55 200.086 405.677 199.944 404.795C197.32 405.259 193.288 404.291 193.288 404.291C192.372 403.758 191.586 403.028 190.984 402.155C190.184 400.843 187.872 400.515 187.872 400.515C187.872 400.515 186.064 401.171 185.736 401.995Z" fill="white" stroke="#263238" stroke-miterlimit="10"/>
<path d="M176.872 308.091L178.344 316.795C177.683 324.386 177.683 332.02 178.344 339.611C179.496 350.771 181.96 363.083 181.96 363.083C181.96 363.083 185.568 377.531 186.064 380.323C186.56 383.115 187.544 393.787 187.544 393.787C189.859 395.019 192.473 395.573 195.088 395.387C199.36 395.059 200.016 393.579 200.016 393.579C200.016 393.579 202.48 374.867 201.984 371.579C201.488 368.291 199.856 361.259 199.856 361.259C199.856 361.259 200.184 358.955 200.184 357.811C200.182 357.096 200.126 356.382 200.016 355.675C200.215 355.15 200.326 354.596 200.344 354.035C200.344 353.235 199.856 350.419 199.856 350.419L201.984 328.099L203.624 322.843C203.624 322.843 206.256 321.203 207.072 316.931C207.888 312.659 207.24 305.771 207.24 305.771C207.24 305.771 194.44 308.235 187.24 306.427C180.04 304.619 176.576 304.619 176.576 304.619L176.872 308.091Z" fill="#263238" stroke="#263238" stroke-miterlimit="10"/>
<path d="M175.064 251.947C175.064 251.947 172.928 252.443 171.944 260.651C170.96 268.859 170.96 273.779 171.144 274.603C171.328 275.427 171.144 297.259 171.144 299.227C171.144 301.195 170.648 307.267 170.648 307.267C170.648 307.267 176.064 310.715 187.064 311.211C198.064 311.707 212 307.435 212 307.435C212 307.435 210.848 287.075 210.36 283.139C209.872 279.203 207.896 257.859 205.432 251.291C202.968 244.723 201.824 243.251 201.328 242.923C200.832 242.595 194.432 239.635 189.328 241.931C184.224 244.227 178.984 248.667 177.84 249.323C176.805 250.074 175.872 250.956 175.064 251.947Z" fill="#0000FE" stroke="#263238" stroke-miterlimit="10"/>
<path d="M204.24 295.899C205.112 295.667 205.984 295.419 206.872 295.139" stroke="#263238" stroke-miterlimit="10"/>
<path d="M176.096 296.171C176.096 296.171 187.04 299.651 201.656 296.515" stroke="#263238" stroke-miterlimit="10"/>
<path d="M207.496 277.995C205.66 278.538 203.789 278.953 201.896 279.235" stroke="#263238" stroke-miterlimit="10"/>
<path d="M173.824 268.283C173.824 268.283 178.368 269.315 182.088 268.075" stroke="#263238" stroke-miterlimit="10"/>
<path d="M175.08 213.147L173.136 217.259C173.136 218.923 173.936 221.587 173.464 222.251C172.992 222.915 169.12 225.723 169.792 227.051C170.25 227.878 171.014 228.493 171.92 228.763C172.44 230.957 172.83 233.18 173.088 235.419C173.088 236.915 173.416 237.747 176.416 238.411C179.416 239.075 180.568 238.579 180.568 238.579L182.4 244.235L195.872 237.747C195.872 237.747 194.544 231.275 194.4 228.459C194.256 225.643 196.68 224.723 196.896 216.651C196.896 215.115 193.904 211.659 188.896 209.827C183.888 207.995 177.408 210.859 175.08 213.147Z" fill="white" stroke="#263238" stroke-miterlimit="10"/>
<path d="M176.328 222.571C176.328 223.083 176.096 223.491 175.816 223.491C175.536 223.491 175.304 223.083 175.304 222.571C175.304 222.059 175.536 221.651 175.816 221.651C176.096 221.651 176.328 222.059 176.328 222.571Z" fill="#263238"/>
<path d="M174.28 218.995C174.28 218.995 176.736 217.395 177.856 219.795" stroke="#263238" stroke-miterlimit="10"/>
<path d="M173.264 230.235C174.088 230.414 174.942 230.396 175.758 230.183C176.574 229.971 177.328 229.569 177.96 229.011" stroke="#263238" stroke-miterlimit="10"/>
<path d="M199.696 209.483C197.04 205.163 186.56 204.995 184.896 205.163C183.545 205.203 182.196 205.036 180.896 204.667C180.896 204.667 173.912 202.499 173.248 204.827C172.584 207.155 175.072 209.323 175.072 209.323C175.072 209.323 167.92 207.827 169.92 210.987C171.92 214.147 175.904 214.187 175.904 214.187C175.904 214.187 183.904 210.987 183.72 213.387C183.536 215.787 180.4 215.883 182.056 217.211C183.712 218.539 184.72 219.539 184.72 220.203C184.72 220.867 183.816 223.003 184.44 224.139C184.4 225.435 184.344 227.211 184.288 228.771C184.184 231.635 183.88 232.963 181.632 233.987C180.02 234.667 178.342 235.179 176.624 235.515C176.186 234.63 175.469 233.913 174.584 233.475C173.36 233.067 172.744 233.475 172.744 234.187C172.744 234.899 172.536 237.763 174.48 238.987C176.424 240.211 178.36 239.787 182.04 237.563C185.72 235.339 186.232 231.843 186.128 229.283C186.056 227.475 186.032 225.283 186.128 223.803C186.376 222.955 186.704 221.867 188.376 221.867C191.368 221.867 191.368 225.195 191.032 226.859C190.696 228.523 188.72 229.259 188.72 229.259C188.72 229.259 192.544 230.755 194.04 230.755C195.536 230.755 199.536 228.427 200.696 224.267C201.856 220.107 202.4 213.811 199.696 209.483Z" fill="#263238" stroke="#263238" stroke-miterlimit="10"/>
<path d="M186.88 389.019C189.863 389.564 192.882 389.896 195.912 390.011C197.557 390.043 199.202 389.987 200.84 389.843C200.84 389.843 200.672 394.931 200.184 396.739C199.696 398.547 195.584 399.363 191.976 398.547C188.368 397.731 187.048 397.563 186.88 396.571C186.712 395.579 186.88 389.019 186.88 389.019Z" fill="#6E6E6E" stroke="#263238" stroke-miterlimit="10"/>
<path d="M180 250.803L179.848 264.539C179.845 264.656 179.871 264.771 179.921 264.876C179.972 264.981 180.047 265.072 180.14 265.143C180.233 265.213 180.341 265.26 180.456 265.281C180.571 265.301 180.689 265.294 180.8 265.259C180.945 265.209 181.071 265.115 181.159 264.991C181.248 264.866 181.296 264.716 181.296 264.563L181.456 250.483L180 250.803Z" fill="white" stroke="#263238" stroke-miterlimit="10"/>
<path d="M197.224 235.371C197.224 235.371 184.584 241.931 180.808 243.907C177.032 245.883 172.272 254.243 172.928 254.411C173.584 254.579 180.32 251.459 180.808 251.459C181.296 251.459 187.544 245.379 193.448 244.259C199.352 243.139 202.312 247.051 204.448 245.731C206.584 244.411 203.792 239.331 202.152 237.035C200.512 234.739 197.224 235.371 197.224 235.371Z" fill="#0000FE" stroke="#263238" stroke-miterlimit="10"/>
<path d="M173.752 252.211C173.064 253.467 172.72 254.355 172.952 254.411C173.608 254.579 180.344 251.459 180.832 251.459C181.104 251.459 183.12 249.611 185.864 247.763L173.752 252.211Z" fill="white" stroke="#263238" stroke-miterlimit="10"/>
<path d="M160.656 284.371L156.056 284.467C156.056 284.467 152.984 283.131 152.6 283.035C151.441 283.037 150.285 283.163 149.152 283.411C147.768 283.712 146.348 283.809 144.936 283.699C143.88 283.507 144.84 285.619 145.416 285.811C145.992 286.003 147.424 286.611 148.192 286.291C148.916 286.123 149.665 286.09 150.4 286.195L147.52 287.795C147.52 287.795 141.12 287.315 140.32 286.995C139.52 286.675 138.88 287.283 139.264 287.795C141.215 289.107 143.305 290.199 145.496 291.051C146.296 291.147 156.904 289.323 156.904 289.323L162.368 289.707L160.656 284.371Z" fill="white" stroke="#263238" stroke-miterlimit="10"/>
<path d="M191.312 248.339C191.312 248.339 186.392 250.475 185.568 254.411C184.744 258.347 181.792 276.571 181.792 276.571C181.792 276.571 178.84 277.067 178.84 277.883C178.823 278.545 178.766 279.204 178.672 279.859C178.672 279.859 175.064 280.843 171.944 281.331C168.824 281.819 159.944 283.467 159.944 283.467C159.944 283.467 159.944 283.139 159.456 285.763C158.968 288.387 160.6 293.643 160.6 293.643C160.6 293.643 168.648 294.139 174.392 293.811C180.136 293.483 194.392 291.675 196.064 289.539C197.736 287.403 200.984 276.243 201.312 272.139C201.64 268.035 202.296 259.171 202.296 259.171" fill="#0000FE"/>
<path d="M191.312 248.339C191.312 248.339 186.392 250.475 185.568 254.411C184.744 258.347 181.792 276.571 181.792 276.571C181.792 276.571 178.84 277.067 178.84 277.883C178.823 278.545 178.766 279.204 178.672 279.859C178.672 279.859 175.064 280.843 171.944 281.331C168.824 281.819 159.944 283.467 159.944 283.467C159.944 283.467 159.944 283.139 159.456 285.763C158.968 288.387 160.6 293.643 160.6 293.643C160.6 293.643 168.648 294.139 174.392 293.811C180.136 293.483 194.392 291.675 196.064 289.539C197.736 287.403 200.984 276.243 201.312 272.139C201.64 268.035 202.296 259.171 202.296 259.171" stroke="#263238" stroke-miterlimit="10"/>
<path d="M180.432 280.059C180.432 280.059 182.088 282.331 186.632 282.539" stroke="#263238" stroke-miterlimit="10"/>
<path d="M182.912 277.371H186.008" stroke="#263238" stroke-miterlimit="10"/>
<path d="M316.8 414.507H406.4" stroke="#263238" stroke-miterlimit="10"/>
<path d="M41.6001 414.507H308.8" stroke="#263238" stroke-miterlimit="10"/>
<rect x="32.4736" y="32.9325" width="398.67" height="398.67" stroke="#0187FD"/>
</svg>
