<svg width="150" height="150" viewBox="0 0 150 150" fill="none" xmlns="http://www.w3.org/2000/svg">
<rect width="150" height="150" rx="16" fill="#DCFCE7"/>
<path d="M23.344 128.244H20.92V130.728H19.648V128.244H17.224V127.092H19.648V124.608H20.92V127.092H23.344V128.244ZM26.0424 130.14C26.8104 129.476 27.4144 128.932 27.8544 128.508C28.3024 128.076 28.6744 127.628 28.9704 127.164C29.2664 126.7 29.4144 126.236 29.4144 125.772C29.4144 125.292 29.2984 124.916 29.0664 124.644C28.8424 124.372 28.4864 124.236 27.9984 124.236C27.5264 124.236 27.1584 124.388 26.8944 124.692C26.6384 124.988 26.5024 125.388 26.4864 125.892H25.1664C25.1904 124.98 25.4624 124.284 25.9824 123.804C26.5104 123.316 27.1784 123.072 27.9864 123.072C28.8584 123.072 29.5384 123.312 30.0264 123.792C30.5224 124.272 30.7704 124.912 30.7704 125.712C30.7704 126.288 30.6224 126.844 30.3264 127.38C30.0384 127.908 29.6904 128.384 29.2824 128.808C28.8824 129.224 28.3704 129.708 27.7464 130.26L27.2064 130.74H31.0104V131.88H25.1784V130.884L26.0424 130.14ZM31.9962 125.364C31.9962 124.78 32.1642 124.324 32.5002 123.996C32.8442 123.66 33.2842 123.492 33.8202 123.492C34.3562 123.492 34.7922 123.66 35.1282 123.996C35.4722 124.324 35.6442 124.78 35.6442 125.364C35.6442 125.948 35.4722 126.408 35.1282 126.744C34.7922 127.08 34.3562 127.248 33.8202 127.248C33.2842 127.248 32.8442 127.08 32.5002 126.744C32.1642 126.408 31.9962 125.948 31.9962 125.364ZM39.3162 123.648L34.5282 132H33.1842L37.9722 123.648H39.3162ZM33.8202 124.32C33.3162 124.32 33.0642 124.668 33.0642 125.364C33.0642 126.068 33.3162 126.42 33.8202 126.42C34.0602 126.42 34.2442 126.336 34.3722 126.168C34.5082 125.992 34.5762 125.724 34.5762 125.364C34.5762 124.668 34.3242 124.32 33.8202 124.32ZM36.8802 130.272C36.8802 129.688 37.0482 129.232 37.3842 128.904C37.7282 128.568 38.1682 128.4 38.7042 128.4C39.2322 128.4 39.6642 128.568 40.0002 128.904C40.3442 129.232 40.5162 129.688 40.5162 130.272C40.5162 130.856 40.3442 131.316 40.0002 131.652C39.6642 131.988 39.2322 132.156 38.7042 132.156C38.1682 132.156 37.7282 131.988 37.3842 131.652C37.0482 131.316 36.8802 130.856 36.8802 130.272ZM38.6922 129.228C38.1882 129.228 37.9362 129.576 37.9362 130.272C37.9362 130.968 38.1882 131.316 38.6922 131.316C39.1962 131.316 39.4482 130.968 39.4482 130.272C39.4482 129.576 39.1962 129.228 38.6922 129.228ZM47.8087 126.504H46.5847V132H45.2047V126.504H44.4247V125.388H45.2047V124.92C45.2047 124.16 45.4047 123.608 45.8047 123.264C46.2127 122.912 46.8487 122.736 47.7127 122.736V123.876C47.2967 123.876 47.0047 123.956 46.8367 124.116C46.6687 124.268 46.5847 124.536 46.5847 124.92V125.388H47.8087V126.504ZM50.3891 126.348C50.5891 126.012 50.8531 125.752 51.1811 125.568C51.5171 125.376 51.9131 125.28 52.3691 125.28V126.696H52.0211C51.4851 126.696 51.0771 126.832 50.7971 127.104C50.5251 127.376 50.3891 127.848 50.3891 128.52V132H49.0211V125.388H50.3891V126.348ZM56.4946 132.108C55.8706 132.108 55.3066 131.968 54.8026 131.688C54.2986 131.4 53.9026 131 53.6146 130.488C53.3266 129.968 53.1826 129.368 53.1826 128.688C53.1826 128.016 53.3306 127.42 53.6266 126.9C53.9226 126.38 54.3266 125.98 54.8386 125.7C55.3506 125.42 55.9226 125.28 56.5546 125.28C57.1866 125.28 57.7586 125.42 58.2706 125.7C58.7826 125.98 59.1866 126.38 59.4826 126.9C59.7786 127.42 59.9266 128.016 59.9266 128.688C59.9266 129.36 59.7746 129.956 59.4706 130.476C59.1666 130.996 58.7506 131.4 58.2226 131.688C57.7026 131.968 57.1266 132.108 56.4946 132.108ZM56.4946 130.92C56.8466 130.92 57.1746 130.836 57.4786 130.668C57.7906 130.5 58.0426 130.248 58.2346 129.912C58.4266 129.576 58.5226 129.168 58.5226 128.688C58.5226 128.208 58.4306 127.804 58.2466 127.476C58.0626 127.14 57.8186 126.888 57.5146 126.72C57.2106 126.552 56.8826 126.468 56.5306 126.468C56.1786 126.468 55.8506 126.552 55.5466 126.72C55.2506 126.888 55.0146 127.14 54.8386 127.476C54.6626 127.804 54.5746 128.208 54.5746 128.688C54.5746 129.4 54.7546 129.952 55.1146 130.344C55.4826 130.728 55.9426 130.92 56.4946 130.92ZM69.2829 125.28C69.8029 125.28 70.2669 125.388 70.6749 125.604C71.0909 125.82 71.4149 126.14 71.6469 126.564C71.8869 126.988 72.0069 127.5 72.0069 128.1V132H70.6509V128.304C70.6509 127.712 70.5029 127.26 70.2069 126.948C69.9109 126.628 69.5069 126.468 68.9949 126.468C68.4829 126.468 68.0749 126.628 67.7709 126.948C67.4749 127.26 67.3269 127.712 67.3269 128.304V132H65.9709V128.304C65.9709 127.712 65.8229 127.26 65.5269 126.948C65.2309 126.628 64.8269 126.468 64.3149 126.468C63.8029 126.468 63.3949 126.628 63.0909 126.948C62.7949 127.26 62.6469 127.712 62.6469 128.304V132H61.2789V125.388H62.6469V126.144C62.8709 125.872 63.1549 125.66 63.4989 125.508C63.8429 125.356 64.2109 125.28 64.6029 125.28C65.1309 125.28 65.6029 125.392 66.0189 125.616C66.4349 125.84 66.7549 126.164 66.9789 126.588C67.1789 126.188 67.4909 125.872 67.9149 125.64C68.3389 125.4 68.7949 125.28 69.2829 125.28ZM82.8168 125.388L78.7608 135.108H77.3448L78.6888 131.892L76.0848 125.388H77.6088L79.4688 130.428L81.4008 125.388H82.8168ZM89.9092 128.532C89.9092 128.78 89.8932 129.004 89.8612 129.204H84.8092C84.8492 129.732 85.0452 130.156 85.3972 130.476C85.7492 130.796 86.1812 130.956 86.6932 130.956C87.4292 130.956 87.9492 130.648 88.2532 130.032H89.7292C89.5292 130.64 89.1652 131.14 88.6372 131.532C88.1172 131.916 87.4692 132.108 86.6932 132.108C86.0612 132.108 85.4932 131.968 84.9892 131.688C84.4932 131.4 84.1012 131 83.8132 130.488C83.5332 129.968 83.3932 129.368 83.3932 128.688C83.3932 128.008 83.5292 127.412 83.8012 126.9C84.0812 126.38 84.4692 125.98 84.9652 125.7C85.4692 125.42 86.0452 125.28 86.6932 125.28C87.3172 125.28 87.8732 125.416 88.3612 125.688C88.8492 125.96 89.2292 126.344 89.5012 126.84C89.7732 127.328 89.9092 127.892 89.9092 128.532ZM88.4812 128.1C88.4732 127.596 88.2932 127.192 87.9412 126.888C87.5892 126.584 87.1532 126.432 86.6332 126.432C86.1612 126.432 85.7572 126.584 85.4212 126.888C85.0852 127.184 84.8852 127.588 84.8212 128.1H88.4812ZM93.6555 132.108C93.1355 132.108 92.6675 132.016 92.2515 131.832C91.8435 131.64 91.5195 131.384 91.2795 131.064C91.0395 130.736 90.9115 130.372 90.8955 129.972H92.3115C92.3355 130.252 92.4675 130.488 92.7075 130.68C92.9555 130.864 93.2635 130.956 93.6315 130.956C94.0155 130.956 94.3115 130.884 94.5195 130.74C94.7355 130.588 94.8435 130.396 94.8435 130.164C94.8435 129.916 94.7235 129.732 94.4835 129.612C94.2515 129.492 93.8795 129.36 93.3675 129.216C92.8715 129.08 92.4675 128.948 92.1555 128.82C91.8435 128.692 91.5715 128.496 91.3395 128.232C91.1155 127.968 91.0035 127.62 91.0035 127.188C91.0035 126.836 91.1075 126.516 91.3155 126.228C91.5235 125.932 91.8195 125.7 92.2035 125.532C92.5955 125.364 93.0435 125.28 93.5475 125.28C94.2995 125.28 94.9035 125.472 95.3595 125.856C95.8235 126.232 96.0715 126.748 96.1035 127.404H94.7355C94.7115 127.108 94.5915 126.872 94.3755 126.696C94.1595 126.52 93.8675 126.432 93.4995 126.432C93.1395 126.432 92.8635 126.5 92.6715 126.636C92.4795 126.772 92.3835 126.952 92.3835 127.176C92.3835 127.352 92.4475 127.5 92.5755 127.62C92.7035 127.74 92.8595 127.836 93.0435 127.908C93.2275 127.972 93.4995 128.056 93.8595 128.16C94.3395 128.288 94.7315 128.42 95.0355 128.556C95.3475 128.684 95.6155 128.876 95.8395 129.132C96.0635 129.388 96.1795 129.728 96.1875 130.152C96.1875 130.528 96.0835 130.864 95.8755 131.16C95.6675 131.456 95.3715 131.688 94.9875 131.856C94.6115 132.024 94.1675 132.108 93.6555 132.108ZM99.2616 126.504V130.164C99.2616 130.412 99.3176 130.592 99.4296 130.704C99.5496 130.808 99.7496 130.86 100.03 130.86H100.87V132H99.7896C99.1736 132 98.7016 131.856 98.3736 131.568C98.0456 131.28 97.8816 130.812 97.8816 130.164V126.504H97.1016V125.388H97.8816V123.744H99.2616V125.388H100.87V126.504H99.2616ZM108.19 128.532C108.19 128.78 108.174 129.004 108.142 129.204H103.09C103.13 129.732 103.326 130.156 103.678 130.476C104.03 130.796 104.462 130.956 104.974 130.956C105.71 130.956 106.23 130.648 106.534 130.032H108.01C107.81 130.64 107.446 131.14 106.918 131.532C106.398 131.916 105.75 132.108 104.974 132.108C104.342 132.108 103.774 131.968 103.27 131.688C102.774 131.4 102.382 131 102.094 130.488C101.814 129.968 101.674 129.368 101.674 128.688C101.674 128.008 101.81 127.412 102.082 126.9C102.362 126.38 102.75 125.98 103.246 125.7C103.75 125.42 104.326 125.28 104.974 125.28C105.598 125.28 106.154 125.416 106.642 125.688C107.13 125.96 107.51 126.344 107.782 126.84C108.054 127.328 108.19 127.892 108.19 128.532ZM106.762 128.1C106.754 127.596 106.574 127.192 106.222 126.888C105.87 126.584 105.434 126.432 104.914 126.432C104.442 126.432 104.038 126.584 103.702 126.888C103.366 127.184 103.166 127.588 103.102 128.1H106.762ZM110.905 126.348C111.105 126.012 111.369 125.752 111.697 125.568C112.033 125.376 112.429 125.28 112.885 125.28V126.696H112.537C112.001 126.696 111.593 126.832 111.313 127.104C111.041 127.376 110.905 127.848 110.905 128.52V132H109.537V125.388H110.905V126.348ZM113.686 128.664C113.686 128 113.822 127.412 114.094 126.9C114.374 126.388 114.75 125.992 115.222 125.712C115.702 125.424 116.234 125.28 116.818 125.28C117.25 125.28 117.674 125.376 118.09 125.568C118.514 125.752 118.85 126 119.098 126.312V123.12H120.478V132H119.098V131.004C118.874 131.324 118.562 131.588 118.162 131.796C117.77 132.004 117.318 132.108 116.806 132.108C116.23 132.108 115.702 131.964 115.222 131.676C114.75 131.38 114.374 130.972 114.094 130.452C113.822 129.924 113.686 129.328 113.686 128.664ZM119.098 128.688C119.098 128.232 119.002 127.836 118.81 127.5C118.626 127.164 118.382 126.908 118.078 126.732C117.774 126.556 117.446 126.468 117.094 126.468C116.742 126.468 116.414 126.556 116.11 126.732C115.806 126.9 115.558 127.152 115.366 127.488C115.182 127.816 115.09 128.208 115.09 128.664C115.09 129.12 115.182 129.52 115.366 129.864C115.558 130.208 115.806 130.472 116.11 130.656C116.422 130.832 116.75 130.92 117.094 130.92C117.446 130.92 117.774 130.832 118.078 130.656C118.382 130.48 118.626 130.224 118.81 129.888C119.002 129.544 119.098 129.144 119.098 128.688ZM121.819 128.664C121.819 128 121.955 127.412 122.227 126.9C122.507 126.388 122.883 125.992 123.355 125.712C123.835 125.424 124.363 125.28 124.939 125.28C125.459 125.28 125.911 125.384 126.295 125.592C126.687 125.792 126.999 126.044 127.231 126.348V125.388H128.611V132H127.231V131.016C126.999 131.328 126.683 131.588 126.283 131.796C125.883 132.004 125.427 132.108 124.915 132.108C124.347 132.108 123.827 131.964 123.355 131.676C122.883 131.38 122.507 130.972 122.227 130.452C121.955 129.924 121.819 129.328 121.819 128.664ZM127.231 128.688C127.231 128.232 127.135 127.836 126.943 127.5C126.759 127.164 126.515 126.908 126.211 126.732C125.907 126.556 125.579 126.468 125.227 126.468C124.875 126.468 124.547 126.556 124.243 126.732C123.939 126.9 123.691 127.152 123.499 127.488C123.315 127.816 123.223 128.208 123.223 128.664C123.223 129.12 123.315 129.52 123.499 129.864C123.691 130.208 123.939 130.472 124.243 130.656C124.555 130.832 124.883 130.92 125.227 130.92C125.579 130.92 125.907 130.832 126.211 130.656C126.515 130.48 126.759 130.224 126.943 129.888C127.135 129.544 127.231 129.144 127.231 128.688ZM136.36 125.388L132.304 135.108H130.888L132.232 131.892L129.628 125.388H131.152L133.012 130.428L134.944 125.388H136.36Z" fill="#2B8761"/>
<path d="M25.3366 98.8182V109H23.9247L18.7493 101.533H18.6548V109H17.1186V98.8182H18.5405L23.7209 106.295H23.8153V98.8182H25.3366ZM30.7495 109.154C29.9971 109.154 29.3491 108.993 28.8056 108.672C28.2653 108.347 27.8477 107.891 27.5527 107.305C27.2611 106.715 27.1152 106.024 27.1152 105.232C27.1152 104.449 27.2611 103.76 27.5527 103.163C27.8477 102.567 28.2587 102.101 28.7857 101.766C29.316 101.432 29.9358 101.264 30.6451 101.264C31.0759 101.264 31.4935 101.335 31.8979 101.478C32.3023 101.621 32.6652 101.844 32.9867 102.149C33.3082 102.454 33.5617 102.85 33.7473 103.337C33.9329 103.821 34.0257 104.41 34.0257 105.102V105.629H27.9554V104.516H32.5691C32.5691 104.125 32.4895 103.778 32.3304 103.477C32.1713 103.172 31.9476 102.931 31.6593 102.756C31.3742 102.58 31.0395 102.492 30.655 102.492C30.2374 102.492 29.8728 102.595 29.5613 102.8C29.253 103.003 29.0144 103.268 28.8453 103.596C28.6796 103.921 28.5968 104.274 28.5968 104.655V105.525C28.5968 106.035 28.6863 106.469 28.8652 106.827C29.0475 107.185 29.3011 107.459 29.6259 107.648C29.9507 107.833 30.3302 107.926 30.7644 107.926C31.0461 107.926 31.303 107.886 31.535 107.807C31.767 107.724 31.9675 107.601 32.1365 107.439C32.3056 107.277 32.4348 107.076 32.5243 106.837L33.9313 107.091C33.8186 107.505 33.6164 107.868 33.3248 108.18C33.0364 108.488 32.6735 108.728 32.236 108.901C31.8018 109.07 31.3063 109.154 30.7495 109.154ZM37.3169 109L35.0698 101.364H36.606L38.1025 106.972H38.177L39.6784 101.364H41.2147L42.7061 106.947H42.7807L44.2672 101.364H45.8034L43.5613 109H42.0449L40.4938 103.487H40.3794L38.8283 109H37.3169ZM59.4952 102.129H57.9441C57.8844 101.798 57.7734 101.506 57.611 101.254C57.4486 101.002 57.2497 100.789 57.0144 100.613C56.7791 100.437 56.5156 100.305 56.2239 100.215C55.9355 100.126 55.629 100.081 55.3042 100.081C54.7175 100.081 54.1922 100.228 53.7282 100.523C53.2675 100.818 52.9029 101.251 52.6344 101.821C52.3693 102.391 52.2367 103.087 52.2367 103.909C52.2367 104.738 52.3693 105.437 52.6344 106.007C52.9029 106.577 53.2691 107.008 53.7331 107.3C54.1971 107.591 54.7192 107.737 55.2992 107.737C55.6207 107.737 55.9256 107.694 56.214 107.608C56.5056 107.518 56.7691 107.388 57.0044 107.215C57.2398 107.043 57.4386 106.832 57.601 106.584C57.7667 106.332 57.8811 106.044 57.9441 105.719L59.4952 105.724C59.4123 106.224 59.2516 106.685 59.013 107.106C58.7776 107.523 58.4744 107.885 58.1032 108.19C57.7353 108.491 57.3143 108.725 56.8404 108.891C56.3664 109.056 55.8494 109.139 55.2892 109.139C54.4076 109.139 53.6221 108.93 52.9327 108.513C52.2433 108.092 51.6998 107.49 51.302 106.708C50.9076 105.926 50.7104 104.993 50.7104 103.909C50.7104 102.822 50.9093 101.889 51.307 101.11C51.7047 100.328 52.2483 99.728 52.9377 99.3104C53.6271 98.8894 54.4109 98.679 55.2892 98.679C55.8295 98.679 56.3333 98.7569 56.8006 98.9126C57.2712 99.0651 57.6938 99.2905 58.0684 99.5888C58.4429 99.8838 58.7528 100.245 58.998 100.673C59.2433 101.097 59.409 101.582 59.4952 102.129ZM66.0515 105.833V101.364H67.543V109H66.0813V107.678H66.0018C65.8261 108.085 65.5444 108.425 65.1566 108.697C64.7721 108.965 64.2932 109.099 63.7198 109.099C63.2293 109.099 62.7951 108.992 62.4173 108.776C62.0427 108.558 61.7478 108.234 61.5323 107.807C61.3202 107.379 61.2141 106.851 61.2141 106.221V101.364H62.7006V106.042C62.7006 106.562 62.8448 106.977 63.1332 107.285C63.4215 107.593 63.796 107.747 64.2567 107.747C64.5352 107.747 64.8119 107.678 65.087 107.538C65.3654 107.399 65.5958 107.189 65.7781 106.907C65.9637 106.625 66.0548 106.267 66.0515 105.833ZM75.2626 103.228L73.9153 103.467C73.859 103.294 73.7695 103.13 73.6468 102.974C73.5275 102.819 73.3651 102.691 73.1596 102.592C72.9541 102.492 72.6973 102.442 72.389 102.442C71.9681 102.442 71.6168 102.537 71.335 102.726C71.0533 102.911 70.9125 103.152 70.9125 103.447C70.9125 103.702 71.0069 103.907 71.1958 104.063C71.3848 104.219 71.6897 104.347 72.1106 104.446L73.3237 104.724C74.0263 104.887 74.55 105.137 74.8947 105.475C75.2394 105.813 75.4118 106.252 75.4118 106.793C75.4118 107.25 75.2792 107.658 75.014 108.016C74.7522 108.37 74.3859 108.649 73.9153 108.851C73.448 109.053 72.9061 109.154 72.2896 109.154C71.4345 109.154 70.7368 108.972 70.1966 108.607C69.6563 108.239 69.3249 107.717 69.2022 107.041L70.639 106.822C70.7285 107.197 70.9125 107.48 71.1909 107.673C71.4693 107.862 71.8322 107.956 72.2797 107.956C72.7669 107.956 73.1563 107.855 73.448 107.653C73.7396 107.447 73.8855 107.197 73.8855 106.902C73.8855 106.663 73.796 106.463 73.617 106.3C73.4413 106.138 73.1712 106.015 72.8066 105.933L71.514 105.649C70.8014 105.487 70.2744 105.228 69.9331 104.874C69.595 104.519 69.426 104.07 69.426 103.526C69.426 103.076 69.5519 102.681 69.8038 102.343C70.0557 102.005 70.4037 101.741 70.8478 101.553C71.292 101.36 71.8007 101.264 72.3741 101.264C73.1994 101.264 73.849 101.443 74.323 101.801C74.7969 102.156 75.1101 102.631 75.2626 103.228ZM80.6108 101.364V102.557H76.4396V101.364H80.6108ZM77.5582 99.5341H79.0447V106.758C79.0447 107.046 79.0878 107.263 79.174 107.409C79.2602 107.552 79.3712 107.649 79.5071 107.702C79.6463 107.752 79.7971 107.777 79.9595 107.777C80.0788 107.777 80.1832 107.769 80.2727 107.752C80.3622 107.736 80.4318 107.722 80.4815 107.712L80.75 108.94C80.6638 108.973 80.5412 109.007 80.3821 109.04C80.223 109.076 80.0241 109.096 79.7855 109.099C79.3944 109.106 79.0298 109.036 78.6918 108.891C78.3537 108.745 78.0803 108.519 77.8714 108.214C77.6626 107.91 77.5582 107.527 77.5582 107.066V99.5341ZM85.3897 109.154C84.6738 109.154 84.0491 108.99 83.5154 108.662C82.9818 108.334 82.5675 107.875 82.2725 107.285C81.9776 106.695 81.8301 106.005 81.8301 105.217C81.8301 104.424 81.9776 103.732 82.2725 103.138C82.5675 102.545 82.9818 102.085 83.5154 101.756C84.0491 101.428 84.6738 101.264 85.3897 101.264C86.1056 101.264 86.7304 101.428 87.264 101.756C87.7976 102.085 88.2119 102.545 88.5069 103.138C88.8019 103.732 88.9494 104.424 88.9494 105.217C88.9494 106.005 88.8019 106.695 88.5069 107.285C88.2119 107.875 87.7976 108.334 87.264 108.662C86.7304 108.99 86.1056 109.154 85.3897 109.154ZM85.3947 107.906C85.8587 107.906 86.2432 107.784 86.5481 107.538C86.853 107.293 87.0784 106.967 87.2243 106.559C87.3734 106.151 87.448 105.702 87.448 105.212C87.448 104.724 87.3734 104.277 87.2243 103.869C87.0784 103.458 86.853 103.129 86.5481 102.88C86.2432 102.631 85.8587 102.507 85.3947 102.507C84.9274 102.507 84.5396 102.631 84.2314 102.88C83.9264 103.129 83.6994 103.458 83.5502 103.869C83.4044 104.277 83.3315 104.724 83.3315 105.212C83.3315 105.702 83.4044 106.151 83.5502 106.559C83.6994 106.967 83.9264 107.293 84.2314 107.538C84.5396 107.784 84.9274 107.906 85.3947 107.906ZM90.6087 109V101.364H92.0355V102.607H92.13C92.2891 102.186 92.5492 101.857 92.9105 101.622C93.2718 101.384 93.7043 101.264 94.2081 101.264C94.7185 101.264 95.1461 101.384 95.4908 101.622C95.8388 101.861 96.0956 102.189 96.2614 102.607H96.3409C96.5232 102.199 96.8132 101.874 97.2109 101.632C97.6087 101.387 98.0826 101.264 98.6328 101.264C99.3255 101.264 99.8906 101.481 100.328 101.915C100.769 102.35 100.989 103.004 100.989 103.879V109H99.5028V104.018C99.5028 103.501 99.362 103.127 99.0803 102.895C98.7985 102.663 98.4621 102.547 98.071 102.547C97.5871 102.547 97.2109 102.696 96.9425 102.994C96.674 103.289 96.5398 103.669 96.5398 104.133V109H95.0582V103.924C95.0582 103.51 94.929 103.177 94.6705 102.925C94.4119 102.673 94.0755 102.547 93.6612 102.547C93.3795 102.547 93.1193 102.621 92.8807 102.771C92.6454 102.916 92.4548 103.12 92.3089 103.382C92.1664 103.644 92.0952 103.947 92.0952 104.292V109H90.6087ZM106.273 109.154C105.521 109.154 104.873 108.993 104.329 108.672C103.789 108.347 103.371 107.891 103.076 107.305C102.785 106.715 102.639 106.024 102.639 105.232C102.639 104.449 102.785 103.76 103.076 103.163C103.371 102.567 103.782 102.101 104.309 101.766C104.839 101.432 105.459 101.264 106.169 101.264C106.599 101.264 107.017 101.335 107.421 101.478C107.826 101.621 108.189 101.844 108.51 102.149C108.832 102.454 109.085 102.85 109.271 103.337C109.456 103.821 109.549 104.41 109.549 105.102V105.629H103.479V104.516H108.093C108.093 104.125 108.013 103.778 107.854 103.477C107.695 103.172 107.471 102.931 107.183 102.756C106.898 102.58 106.563 102.492 106.178 102.492C105.761 102.492 105.396 102.595 105.085 102.8C104.776 103.003 104.538 103.268 104.369 103.596C104.203 103.921 104.12 104.274 104.12 104.655V105.525C104.12 106.035 104.21 106.469 104.389 106.827C104.571 107.185 104.825 107.459 105.149 107.648C105.474 107.833 105.854 107.926 106.288 107.926C106.57 107.926 106.826 107.886 107.058 107.807C107.29 107.724 107.491 107.601 107.66 107.439C107.829 107.277 107.958 107.076 108.048 106.837L109.455 107.091C109.342 107.505 109.14 107.868 108.848 108.18C108.56 108.488 108.197 108.728 107.759 108.901C107.325 109.07 106.83 109.154 106.273 109.154ZM111.199 109V101.364H112.635V102.577H112.715C112.854 102.166 113.099 101.843 113.451 101.607C113.805 101.369 114.206 101.249 114.654 101.249C114.747 101.249 114.856 101.253 114.982 101.259C115.111 101.266 115.212 101.274 115.285 101.284V102.706C115.225 102.689 115.119 102.671 114.967 102.651C114.815 102.628 114.662 102.616 114.51 102.616C114.158 102.616 113.845 102.691 113.57 102.84C113.298 102.986 113.083 103.19 112.924 103.452C112.765 103.71 112.685 104.005 112.685 104.337V109H111.199ZM122.294 103.228L120.947 103.467C120.89 103.294 120.801 103.13 120.678 102.974C120.559 102.819 120.396 102.691 120.191 102.592C119.985 102.492 119.729 102.442 119.42 102.442C118.999 102.442 118.648 102.537 118.366 102.726C118.085 102.911 117.944 103.152 117.944 103.447C117.944 103.702 118.038 103.907 118.227 104.063C118.416 104.219 118.721 104.347 119.142 104.446L120.355 104.724C121.058 104.887 121.581 105.137 121.926 105.475C122.271 105.813 122.443 106.252 122.443 106.793C122.443 107.25 122.31 107.658 122.045 108.016C121.783 108.37 121.417 108.649 120.947 108.851C120.479 109.053 119.937 109.154 119.321 109.154C118.466 109.154 117.768 108.972 117.228 108.607C116.688 108.239 116.356 107.717 116.233 107.041L117.67 106.822C117.76 107.197 117.944 107.48 118.222 107.673C118.501 107.862 118.863 107.956 119.311 107.956C119.798 107.956 120.188 107.855 120.479 107.653C120.771 107.447 120.917 107.197 120.917 106.902C120.917 106.663 120.827 106.463 120.648 106.3C120.473 106.138 120.202 106.015 119.838 105.933L118.545 105.649C117.833 105.487 117.306 105.228 116.964 104.874C116.626 104.519 116.457 104.07 116.457 103.526C116.457 103.076 116.583 102.681 116.835 102.343C117.087 102.005 117.435 101.741 117.879 101.553C118.323 101.36 118.832 101.264 119.405 101.264C120.231 101.264 120.88 101.443 121.354 101.801C121.828 102.156 122.141 102.631 122.294 103.228Z" fill="#A3A3A3"/>
<path d="M16.864 65.6V62.504H22.648V80H19.192V65.6H16.864ZM27.0233 76.208C28.5593 74.928 29.7833 73.864 30.6953 73.016C31.6073 72.152 32.3673 71.256 32.9753 70.328C33.5833 69.4 33.8873 68.488 33.8873 67.592C33.8873 66.776 33.6953 66.136 33.3113 65.672C32.9273 65.208 32.3353 64.976 31.5353 64.976C30.7353 64.976 30.1193 65.248 29.6873 65.792C29.2553 66.32 29.0313 67.048 29.0153 67.976H25.7513C25.8153 66.056 26.3833 64.6 27.4553 63.608C28.5433 62.616 29.9193 62.12 31.5833 62.12C33.4073 62.12 34.8073 62.608 35.7833 63.584C36.7593 64.544 37.2473 65.816 37.2473 67.4C37.2473 68.648 36.9113 69.84 36.2393 70.976C35.5673 72.112 34.7993 73.104 33.9353 73.952C33.0713 74.784 31.9433 75.792 30.5513 76.976H37.6313V79.76H25.7753V77.264L27.0233 76.208Z" fill="#151D48"/>
<circle cx="32" cy="32" r="16" fill="#3CD856"/>
<path fill-rule="evenodd" clip-rule="evenodd" d="M33.5998 28.8001C33.5998 30.5674 32.1671 32.0001 30.3998 32.0001C28.6325 32.0001 27.1998 30.5674 27.1998 28.8001C27.1998 27.0328 28.6325 25.6001 30.3998 25.6001C32.1671 25.6001 33.5998 27.0328 33.5998 28.8001ZM30.3998 32.8001C27.307 32.8001 24.7998 34.591 24.7998 36.8001C24.7998 37.6838 25.5161 38.4001 26.3998 38.4001H34.3998C35.2835 38.4001 35.9998 37.6838 35.9998 36.8001C35.9998 34.591 33.4926 32.8001 30.3998 32.8001ZM36.7998 27.2C37.2416 27.2 37.5998 27.5582 37.5998 28V28.8H38.3998C38.8416 28.8 39.1998 29.1582 39.1998 29.6C39.1998 30.0418 38.8416 30.4 38.3998 30.4H37.5998V31.2C37.5998 31.6418 37.2416 32 36.7998 32C36.358 32 35.9998 31.6418 35.9998 31.2V30.4H35.1998C34.758 30.4 34.3998 30.0418 34.3998 29.6C34.3998 29.1582 34.758 28.8 35.1998 28.8H35.9998V28C35.9998 27.5582 36.358 27.2 36.7998 27.2Z" fill="white"/>
</svg>
