<svg width="24" height="24" viewBox="0 0 24 24" fill="none" xmlns="http://www.w3.org/2000/svg">
<g id="mdi:shopping-outline">
<path id="Vector" d="M19 5.99988H17C17 3.19988 14.8 0.999878 12 0.999878C9.2 0.999878 7 3.19988 7 5.99988H5C3.9 5.99988 3 6.89988 3 7.99988V19.9999C3 21.0999 3.9 21.9999 5 21.9999H19C20.1 21.9999 21 21.0999 21 19.9999V7.99988C21 6.89988 20.1 5.99988 19 5.99988ZM12 2.99988C13.7 2.99988 15 4.29988 15 5.99988H9C9 4.29988 10.3 2.99988 12 2.99988ZM19 19.9999H5V7.99988H19V19.9999ZM12 11.9999C10.3 11.9999 9 10.6999 9 8.99988H7C7 11.7999 9.2 13.9999 12 13.9999C14.8 13.9999 17 11.7999 17 8.99988H15C15 10.6999 13.7 11.9999 12 11.9999Z" fill="#A3A3A3"/>
</g>
</svg>
