<svg width="24" height="24" viewBox="0 0 24 24" fill="none" xmlns="http://www.w3.org/2000/svg">
<path d="M12.7199 14.16V13.2H10.8C10.536 13.2 10.32 12.984 10.32 12.72V10.8C10.32 10.536 10.536 10.32 10.8 10.32H11.5199V9.36001C11.5199 9.09601 11.736 8.88001 12 8.88001C12.264 8.88001 12.4799 9.09601 12.4799 9.36001V10.32H13.2C13.464 10.32 13.6799 10.536 13.6799 10.8C13.6799 11.064 13.464 11.28 13.2 11.28H11.28V12.24H13.2C13.464 12.24 13.6799 12.456 13.6799 12.72V14.64C13.6799 14.904 13.464 15.12 13.2 15.12H12.4799V16.08C12.4799 16.344 12.264 16.56 12 16.56C11.736 16.56 11.5199 16.344 11.5199 16.08V15.12H10.8C10.536 15.12 10.32 14.904 10.32 14.64C10.32 14.376 10.536 14.16 10.8 14.16H12.7199ZM22.7999 3.12001V9.36001C22.7999 9.62401 22.584 9.84001 22.32 9.84001H18V19.992C18 20.016 18 20.016 17.976 20.04C17.976 20.064 17.976 20.064 17.952 20.088C17.952 20.112 17.9279 20.112 17.9279 20.136C17.9279 20.16 17.9039 20.16 17.9039 20.184C17.9039 20.208 17.8799 20.208 17.8799 20.232C17.8799 20.256 17.8559 20.256 17.8559 20.256L17.8079 20.304L17.7839 20.328L16.392 21.288H16.3679C16.3439 21.312 16.32 21.312 16.272 21.336C16.248 21.336 16.2479 21.336 16.2239 21.36C16.1759 21.36 16.1519 21.384 16.1039 21.384C16.0559 21.384 16.0319 21.384 15.9839 21.36C15.9599 21.36 15.96 21.36 15.936 21.336C15.912 21.336 15.8879 21.312 15.8399 21.288H15.816L14.712 20.52L13.608 21.288H13.584C13.5599 21.312 13.536 21.312 13.488 21.336C13.464 21.336 13.464 21.336 13.4399 21.36C13.392 21.36 13.368 21.384 13.32 21.384C13.2719 21.384 13.248 21.384 13.2 21.36C13.176 21.36 13.176 21.36 13.1519 21.336C13.1279 21.336 13.104 21.312 13.056 21.288H13.0319L12 20.496L10.896 21.264H10.872C10.8479 21.288 10.824 21.288 10.776 21.312C10.752 21.312 10.752 21.312 10.728 21.336C10.68 21.336 10.656 21.36 10.608 21.36C10.56 21.36 10.536 21.36 10.488 21.336C10.464 21.336 10.464 21.336 10.4399 21.312C10.416 21.312 10.3919 21.288 10.344 21.264H10.32L9.21595 20.496L8.11195 21.264H8.08795C8.06395 21.288 8.03995 21.288 7.99195 21.312C7.96795 21.312 7.96795 21.312 7.94395 21.336C7.89595 21.336 7.87195 21.36 7.82395 21.36C7.77595 21.36 7.75195 21.36 7.70395 21.336C7.67995 21.336 7.67995 21.336 7.65595 21.312C7.63195 21.312 7.60795 21.288 7.55995 21.264H7.53595L6.16795 20.304L6.14395 20.28L6.09595 20.232L6.07195 20.208C6.07195 20.184 6.04795 20.184 6.04795 20.16C6.04795 20.136 6.02395 20.136 6.02395 20.112C6.02395 20.088 5.99995 20.088 5.99995 20.064C5.99995 20.04 5.99995 20.04 5.97595 20.016C5.97595 19.992 5.97595 19.992 5.95195 19.968V9.84001H1.67995C1.41595 9.84001 1.19995 9.62401 1.19995 9.36001V3.12001C1.19995 2.85601 1.41595 2.64001 1.67995 2.64001H22.2719C22.584 2.64001 22.7999 2.85601 22.7999 3.12001ZM6.95995 6.00001V19.68L7.87195 20.304L8.97595 19.536C8.99995 19.536 8.99995 19.512 9.02395 19.512L9.04795 19.488C9.07195 19.488 9.07195 19.488 9.09595 19.464H9.33595C9.35995 19.464 9.35995 19.464 9.38395 19.488C9.40795 19.488 9.40795 19.488 9.43195 19.512C9.45595 19.512 9.45595 19.512 9.45595 19.536C9.47995 19.536 9.47995 19.56 9.50395 19.56L10.608 20.328L11.712 19.56C11.736 19.56 11.736 19.536 11.76 19.536L11.7839 19.512C11.808 19.512 11.808 19.512 11.832 19.488H12.0719C12.096 19.488 12.096 19.488 12.12 19.512C12.144 19.512 12.144 19.512 12.168 19.536C12.192 19.536 12.1919 19.536 12.1919 19.56C12.216 19.56 12.216 19.584 12.24 19.584L13.3439 20.352L14.448 19.584C14.472 19.584 14.472 19.56 14.496 19.56C14.52 19.56 14.5199 19.536 14.544 19.536C14.5679 19.536 14.568 19.536 14.5919 19.512C14.6159 19.512 14.6159 19.512 14.6399 19.488H14.832C14.8559 19.488 14.856 19.488 14.8799 19.512C14.9039 19.512 14.9039 19.512 14.9279 19.536C14.952 19.536 14.952 19.56 14.976 19.56C15 19.56 14.9999 19.584 15.0239 19.584L16.1279 20.352L17.0399 19.68V6.00001H6.95995ZM18 8.88001H21.8399V3.60001H2.15995V8.88001H5.99995V6.00001H4.55995V6.96001C4.55995 7.22401 4.34395 7.44001 4.07995 7.44001C3.81595 7.44001 3.59995 7.22401 3.59995 6.96001V5.52001C3.59995 5.25601 3.81595 5.04001 4.07995 5.04001H19.92C20.184 5.04001 20.4 5.25601 20.4 5.52001V6.96001C20.4 7.22401 20.184 7.44001 19.92 7.44001C19.656 7.44001 19.4399 7.22401 19.4399 6.96001V6.00001H18V8.88001Z" fill="#A3A3A3"/>
</svg>
