<svg width="32" height="32" viewBox="0 0 32 32" fill="none" xmlns="http://www.w3.org/2000/svg">
<path fill-rule="evenodd" clip-rule="evenodd" d="M21.7761 22.2009L26.3385 16.8775C26.5563 16.629 26.6678 16.3152 26.668 15.9998C26.6681 15.784 26.6161 15.5674 26.5104 15.3704C26.4634 15.2826 26.4061 15.1992 26.3385 15.1221L21.7761 9.7987C21.2969 9.23957 20.4552 9.17478 19.896 9.65397C19.3369 10.1332 19.2721 10.9749 19.7513 11.534L22.4359 14.6664L12.1097 14.6664C11.3733 14.6664 10.7763 15.2633 10.7763 15.9997C10.7763 16.7361 11.3733 17.333 12.1097 17.333L22.436 17.333L19.7513 20.4655C19.2721 21.0247 19.3369 21.8664 19.896 22.3456C20.4552 22.8248 21.2969 22.76 21.7761 22.2009ZM13.3346 7.99967C14.071 7.99967 14.668 8.59663 14.668 9.33301L14.668 11.333C14.668 12.0694 15.2649 12.6663 16.0013 12.6663C16.7377 12.6663 17.3346 12.0694 17.3346 11.333L17.3346 9.33301C17.3346 7.12387 15.5438 5.33301 13.3346 5.33301L9.33463 5.33301C7.1255 5.33301 5.33463 7.12387 5.33463 9.33301L5.33463 22.6663C5.33463 24.8755 7.12549 26.6663 9.33463 26.6663L13.3346 26.6663C15.5438 26.6663 17.3346 24.8755 17.3346 22.6663L17.3346 20.6663C17.3346 19.93 16.7377 19.333 16.0013 19.333C15.2649 19.333 14.668 19.93 14.668 20.6663L14.668 22.6663C14.668 23.4027 14.071 23.9997 13.3346 23.9997L9.33463 23.9997C8.59825 23.9997 8.0013 23.4027 8.0013 22.6663L8.0013 9.33301C8.0013 8.59663 8.59826 7.99967 9.33463 7.99967L13.3346 7.99967Z" fill="white"/>
</svg>
