<svg width="150" height="150" viewBox="0 0 150 150" fill="none" xmlns="http://www.w3.org/2000/svg">
<rect width="150" height="150" rx="16" fill="#FFE2E5"/>
<path d="M19.4219 132.534V126.773H20.5682V132.534H19.4219ZM17.1165 130.224V129.082H22.8778V130.224H17.1165ZM27.7805 134.119C27.1697 134.119 26.63 134.014 26.1612 133.804C25.6953 133.594 25.3303 133.304 25.0661 132.935C24.8018 132.565 24.6712 132.145 24.674 131.673C24.6712 131.304 24.7464 130.964 24.8999 130.655C25.0561 130.342 25.2678 130.082 25.5348 129.875C25.8018 129.665 26.1001 129.531 26.4297 129.474V129.423C25.995 129.318 25.647 129.085 25.3857 128.724C25.1243 128.364 24.995 127.949 24.9979 127.48C24.995 127.034 25.1129 126.636 25.3516 126.287C25.593 125.935 25.924 125.658 26.3445 125.456C26.7649 125.254 27.2436 125.153 27.7805 125.153C28.3118 125.153 28.7862 125.256 29.2038 125.46C29.6243 125.662 29.9553 125.939 30.1967 126.291C30.4382 126.641 30.5604 127.037 30.5632 127.48C30.5604 127.949 30.4268 128.364 30.1626 128.724C29.8984 129.085 29.5547 129.318 29.1314 129.423V129.474C29.4581 129.531 29.7521 129.665 30.0135 129.875C30.2777 130.082 30.4879 130.342 30.6442 130.655C30.8033 130.964 30.8842 131.304 30.8871 131.673C30.8842 132.145 30.7507 132.565 30.4865 132.935C30.2223 133.304 29.8558 133.594 29.3871 133.804C28.9212 134.014 28.3857 134.119 27.7805 134.119ZM27.7805 133.041C28.1413 133.041 28.4538 132.982 28.718 132.862C28.9822 132.74 29.1868 132.571 29.3317 132.355C29.4766 132.136 29.5504 131.881 29.5533 131.588C29.5504 131.284 29.4709 131.016 29.3146 130.783C29.1612 130.55 28.9524 130.366 28.6882 130.233C28.424 130.099 28.1214 130.033 27.7805 130.033C27.4368 130.033 27.1314 130.099 26.8643 130.233C26.5973 130.366 26.3871 130.55 26.2337 130.783C26.0803 131.016 26.005 131.284 26.0078 131.588C26.005 131.881 26.0746 132.136 26.2166 132.355C26.3615 132.571 26.5675 132.74 26.8345 132.862C27.1016 132.982 27.4169 133.041 27.7805 133.041ZM27.7805 128.98C28.0703 128.98 28.3274 128.922 28.5518 128.805C28.7763 128.689 28.9524 128.527 29.0803 128.32C29.2109 128.112 29.2777 127.869 29.2805 127.591C29.2777 127.318 29.2124 127.08 29.0845 126.875C28.9595 126.67 28.7848 126.513 28.5604 126.402C28.3359 126.288 28.076 126.232 27.7805 126.232C27.4794 126.232 27.2152 126.288 26.9879 126.402C26.7635 126.513 26.5888 126.67 26.4638 126.875C26.3388 127.08 26.2777 127.318 26.2805 127.591C26.2777 127.869 26.3402 128.112 26.468 128.32C26.5959 128.527 26.772 128.689 26.9964 128.805C27.2237 128.922 27.4851 128.98 27.7805 128.98ZM36.9691 132.364V131.903C36.9691 131.574 37.0373 131.273 37.1737 131C37.3129 130.724 37.5146 130.504 37.7788 130.339C38.0458 130.172 38.3683 130.088 38.7461 130.088C39.1325 130.088 39.4563 130.17 39.7177 130.335C39.979 130.5 40.1765 130.72 40.31 130.996C40.4464 131.271 40.5146 131.574 40.5146 131.903V132.364C40.5146 132.693 40.4464 132.996 40.31 133.271C40.1737 133.544 39.9734 133.764 39.7092 133.932C39.4478 134.097 39.1268 134.179 38.7461 134.179C38.3626 134.179 38.0387 134.097 37.7745 133.932C37.5103 133.764 37.31 133.544 37.1737 133.271C37.0373 132.996 36.9691 132.693 36.9691 132.364ZM37.962 131.903V132.364C37.962 132.608 38.0202 132.83 38.1367 133.028C38.2532 133.227 38.4563 133.327 38.7461 133.327C39.033 133.327 39.2333 133.227 39.3469 133.028C39.4606 132.83 39.5174 132.608 39.5174 132.364V131.903C39.5174 131.659 39.462 131.437 39.3512 131.239C39.2433 131.04 39.0415 130.94 38.7461 130.94C38.462 130.94 38.2603 131.04 38.141 131.239C38.0217 131.437 37.962 131.659 37.962 131.903ZM32.5799 127.369V126.909C32.5799 126.58 32.6481 126.277 32.7844 126.001C32.9237 125.726 33.1254 125.506 33.3896 125.341C33.6566 125.176 33.979 125.094 34.3569 125.094C34.7433 125.094 35.0671 125.176 35.3285 125.341C35.5898 125.506 35.7873 125.726 35.9208 126.001C36.0543 126.277 36.1211 126.58 36.1211 126.909V127.369C36.1211 127.699 36.0529 128.001 35.9165 128.277C35.783 128.55 35.5842 128.77 35.32 128.938C35.0586 129.102 34.7376 129.185 34.3569 129.185C33.9705 129.185 33.6452 129.102 33.381 128.938C33.1197 128.77 32.9208 128.55 32.7844 128.277C32.6481 128.001 32.5799 127.699 32.5799 127.369ZM33.5771 126.909V127.369C33.5771 127.614 33.6339 127.835 33.7475 128.034C33.864 128.233 34.0671 128.332 34.3569 128.332C34.641 128.332 34.8398 128.233 34.9535 128.034C35.07 127.835 35.1282 127.614 35.1282 127.369V126.909C35.1282 126.665 35.0728 126.443 34.962 126.244C34.8512 126.045 34.6495 125.946 34.3569 125.946C34.0728 125.946 33.8711 126.045 33.7518 126.244C33.6353 126.443 33.5771 126.665 33.5771 126.909ZM32.9847 134L38.9847 125.273H40.0032L34.0032 134H32.9847ZM48.6591 127.455V128.477H44.9602V127.455H48.6591ZM45.9744 134V126.696C45.9744 126.287 46.0639 125.947 46.2429 125.678C46.4219 125.405 46.6591 125.202 46.9545 125.068C47.25 124.932 47.571 124.864 47.9176 124.864C48.1733 124.864 48.392 124.885 48.5739 124.928C48.7557 124.967 48.8906 125.004 48.9787 125.038L48.6804 126.07C48.6207 126.053 48.544 126.033 48.4503 126.01C48.3565 125.984 48.2429 125.972 48.1094 125.972C47.7997 125.972 47.5781 126.048 47.4446 126.202C47.3139 126.355 47.2486 126.577 47.2486 126.866V134H45.9744ZM49.9737 134V127.455H51.2053V128.494H51.2734C51.3928 128.142 51.603 127.865 51.9041 127.663C52.2081 127.459 52.5518 127.357 52.9354 127.357C53.0149 127.357 53.1087 127.359 53.2166 127.365C53.3274 127.371 53.4141 127.378 53.4766 127.386V128.605C53.4254 128.591 53.3345 128.575 53.2038 128.558C53.0732 128.538 52.9425 128.528 52.8118 128.528C52.5107 128.528 52.2422 128.592 52.0064 128.72C51.7734 128.845 51.5888 129.02 51.4524 129.244C51.3161 129.466 51.2479 129.719 51.2479 130.003V134H49.9737ZM57.1019 134.132C56.4883 134.132 55.9528 133.991 55.4954 133.71C55.038 133.429 54.6829 133.036 54.43 132.53C54.1772 132.024 54.0508 131.433 54.0508 130.757C54.0508 130.078 54.1772 129.484 54.43 128.976C54.6829 128.467 55.038 128.072 55.4954 127.791C55.9528 127.51 56.4883 127.369 57.1019 127.369C57.7156 127.369 58.2511 127.51 58.7085 127.791C59.1658 128.072 59.521 128.467 59.7738 128.976C60.0266 129.484 60.1531 130.078 60.1531 130.757C60.1531 131.433 60.0266 132.024 59.7738 132.53C59.521 133.036 59.1658 133.429 58.7085 133.71C58.2511 133.991 57.7156 134.132 57.1019 134.132ZM57.1062 133.062C57.5039 133.062 57.8335 132.957 58.0948 132.747C58.3562 132.537 58.5494 132.257 58.6744 131.908C58.8022 131.558 58.8661 131.173 58.8661 130.753C58.8661 130.335 58.8022 129.952 58.6744 129.602C58.5494 129.25 58.3562 128.967 58.0948 128.754C57.8335 128.541 57.5039 128.435 57.1062 128.435C56.7056 128.435 56.3732 128.541 56.109 128.754C55.8477 128.967 55.6531 129.25 55.5252 129.602C55.4002 129.952 55.3377 130.335 55.3377 130.753C55.3377 131.173 55.4002 131.558 55.5252 131.908C55.6531 132.257 55.8477 132.537 56.109 132.747C56.3732 132.957 56.7056 133.062 57.1062 133.062ZM61.5753 134V127.455H62.7983V128.52H62.8793C63.0156 128.159 63.2386 127.878 63.5483 127.676C63.858 127.472 64.2287 127.369 64.6605 127.369C65.098 127.369 65.4645 127.472 65.7599 127.676C66.0582 127.881 66.2784 128.162 66.4205 128.52H66.4886C66.6449 128.17 66.8935 127.892 67.2344 127.685C67.5753 127.474 67.9815 127.369 68.4531 127.369C69.0469 127.369 69.5312 127.555 69.9062 127.928C70.2841 128.3 70.473 128.861 70.473 129.611V134H69.1989V129.73C69.1989 129.287 69.0781 128.966 68.8366 128.767C68.5952 128.568 68.3068 128.469 67.9716 128.469C67.5568 128.469 67.2344 128.597 67.0043 128.852C66.7741 129.105 66.6591 129.43 66.6591 129.828V134H65.3892V129.649C65.3892 129.294 65.2784 129.009 65.0568 128.793C64.8352 128.577 64.5469 128.469 64.1918 128.469C63.9503 128.469 63.7273 128.533 63.5227 128.661C63.321 128.786 63.1577 128.96 63.0327 129.185C62.9105 129.409 62.8494 129.669 62.8494 129.964V134H61.5753ZM76.1619 136.455C75.9716 136.455 75.7983 136.439 75.642 136.408C75.4858 136.379 75.3693 136.348 75.2926 136.314L75.5994 135.27C75.8324 135.332 76.0398 135.359 76.2216 135.351C76.4034 135.342 76.5639 135.274 76.7031 135.146C76.8452 135.018 76.9702 134.81 77.0781 134.52L77.2358 134.085L74.8409 127.455H76.2045L77.8622 132.534H77.9304L79.5881 127.455H80.956L78.2585 134.874C78.1335 135.214 77.9744 135.503 77.7812 135.739C77.5881 135.977 77.358 136.156 77.0909 136.276C76.8239 136.395 76.5142 136.455 76.1619 136.455ZM84.7518 134.132C84.1069 134.132 83.5515 133.994 83.0856 133.719C82.6225 133.44 82.2646 133.05 82.0117 132.547C81.7617 132.041 81.6367 131.449 81.6367 130.77C81.6367 130.099 81.7617 129.509 82.0117 128.997C82.2646 128.486 82.6168 128.087 83.0685 127.8C83.5231 127.513 84.0543 127.369 84.6623 127.369C85.0316 127.369 85.3896 127.43 85.7362 127.553C86.0827 127.675 86.3938 127.866 86.6694 128.128C86.945 128.389 87.1623 128.729 87.3214 129.146C87.4805 129.561 87.56 130.065 87.56 130.659V131.111H82.3569V130.156H86.3114C86.3114 129.821 86.2433 129.524 86.1069 129.266C85.9705 129.004 85.7788 128.798 85.5316 128.648C85.2873 128.497 85.0004 128.422 84.6708 128.422C84.3129 128.422 84.0004 128.51 83.7333 128.686C83.4691 128.859 83.2646 129.087 83.1197 129.368C82.9776 129.646 82.9066 129.949 82.9066 130.276V131.021C82.9066 131.459 82.9833 131.831 83.1367 132.138C83.293 132.445 83.5103 132.679 83.7887 132.841C84.0671 133 84.3924 133.08 84.7646 133.08C85.006 133.08 85.2262 133.045 85.4251 132.977C85.6239 132.906 85.7958 132.801 85.9407 132.662C86.0856 132.523 86.1964 132.351 86.2731 132.146L87.479 132.364C87.3825 132.719 87.2092 133.03 86.9592 133.297C86.712 133.561 86.4009 133.767 86.0259 133.915C85.6538 134.06 85.229 134.132 84.7518 134.132ZM93.8786 129.053L92.7237 129.257C92.6754 129.109 92.5987 128.969 92.4936 128.835C92.3913 128.702 92.2521 128.592 92.076 128.507C91.8999 128.422 91.6797 128.379 91.4155 128.379C91.0547 128.379 90.7536 128.46 90.5121 128.622C90.2706 128.781 90.1499 128.987 90.1499 129.24C90.1499 129.459 90.2308 129.635 90.3928 129.768C90.5547 129.902 90.8161 130.011 91.1768 130.097L92.2166 130.335C92.8189 130.474 93.2678 130.689 93.5632 130.979C93.8587 131.268 94.0064 131.645 94.0064 132.108C94.0064 132.5 93.8928 132.849 93.6655 133.156C93.4411 133.46 93.1271 133.699 92.7237 133.872C92.3232 134.045 91.8587 134.132 91.3303 134.132C90.5973 134.132 89.9993 133.976 89.5362 133.663C89.0732 133.348 88.7891 132.901 88.6839 132.321L89.9155 132.134C89.9922 132.455 90.1499 132.697 90.3885 132.862C90.6271 133.024 90.9382 133.105 91.3217 133.105C91.7393 133.105 92.0732 133.018 92.3232 132.845C92.5732 132.669 92.6982 132.455 92.6982 132.202C92.6982 131.997 92.6214 131.825 92.468 131.686C92.3175 131.547 92.0859 131.442 91.7734 131.371L90.6655 131.128C90.0547 130.989 89.603 130.767 89.3104 130.463C89.0206 130.159 88.8757 129.774 88.8757 129.308C88.8757 128.922 88.9837 128.584 89.1996 128.294C89.4155 128.004 89.7138 127.778 90.0945 127.616C90.4751 127.452 90.9112 127.369 91.4027 127.369C92.1101 127.369 92.6669 127.523 93.0732 127.83C93.4794 128.134 93.7479 128.541 93.8786 129.053ZM98.4627 127.455V128.477H94.8874V127.455H98.4627ZM95.8462 125.886H97.1204V132.078C97.1204 132.325 97.1573 132.511 97.2312 132.636C97.305 132.759 97.4002 132.842 97.5167 132.888C97.636 132.93 97.7653 132.952 97.9045 132.952C98.0067 132.952 98.0962 132.945 98.1729 132.93C98.2496 132.916 98.3093 132.905 98.3519 132.896L98.582 133.949C98.5082 133.977 98.4031 134.006 98.2667 134.034C98.1303 134.065 97.9599 134.082 97.7553 134.085C97.4201 134.091 97.1076 134.031 96.8178 133.906C96.5281 133.781 96.2937 133.588 96.1147 133.327C95.9357 133.065 95.8462 132.737 95.8462 132.342V125.886ZM102.623 134.132C101.978 134.132 101.423 133.994 100.957 133.719C100.494 133.44 100.136 133.05 99.8828 132.547C99.6328 132.041 99.5078 131.449 99.5078 130.77C99.5078 130.099 99.6328 129.509 99.8828 128.997C100.136 128.486 100.488 128.087 100.94 127.8C101.394 127.513 101.925 127.369 102.533 127.369C102.903 127.369 103.261 127.43 103.607 127.553C103.954 127.675 104.265 127.866 104.54 128.128C104.816 128.389 105.033 128.729 105.192 129.146C105.352 129.561 105.431 130.065 105.431 130.659V131.111H100.228V130.156H104.183C104.183 129.821 104.114 129.524 103.978 129.266C103.842 129.004 103.65 128.798 103.403 128.648C103.158 128.497 102.871 128.422 102.542 128.422C102.184 128.422 101.871 128.51 101.604 128.686C101.34 128.859 101.136 129.087 100.991 129.368C100.849 129.646 100.778 129.949 100.778 130.276V131.021C100.778 131.459 100.854 131.831 101.008 132.138C101.164 132.445 101.381 132.679 101.66 132.841C101.938 133 102.263 133.08 102.636 133.08C102.877 133.08 103.097 133.045 103.296 132.977C103.495 132.906 103.667 132.801 103.812 132.662C103.957 132.523 104.067 132.351 104.144 132.146L105.35 132.364C105.254 132.719 105.08 133.03 104.83 133.297C104.583 133.561 104.272 133.767 103.897 133.915C103.525 134.06 103.1 134.132 102.623 134.132ZM106.845 134V127.455H108.076V128.494H108.145C108.264 128.142 108.474 127.865 108.775 127.663C109.079 127.459 109.423 127.357 109.806 127.357C109.886 127.357 109.98 127.359 110.088 127.365C110.199 127.371 110.285 127.378 110.348 127.386V128.605C110.297 128.591 110.206 128.575 110.075 128.558C109.944 128.538 109.814 128.528 109.683 128.528C109.382 128.528 109.113 128.592 108.877 128.72C108.645 128.845 108.46 129.02 108.324 129.244C108.187 129.466 108.119 129.719 108.119 130.003V134H106.845ZM113.666 134.128C113.138 134.128 112.666 133.993 112.251 133.723C111.839 133.45 111.516 133.062 111.28 132.56C111.047 132.054 110.93 131.447 110.93 130.74C110.93 130.033 111.048 129.428 111.284 128.925C111.523 128.422 111.849 128.037 112.264 127.77C112.679 127.503 113.149 127.369 113.675 127.369C114.081 127.369 114.408 127.438 114.655 127.574C114.905 127.707 115.098 127.864 115.234 128.043C115.374 128.222 115.482 128.379 115.558 128.516H115.635V125.273H116.909V134H115.665V132.982H115.558C115.482 133.121 115.371 133.28 115.226 133.459C115.084 133.638 114.888 133.794 114.638 133.928C114.388 134.061 114.064 134.128 113.666 134.128ZM113.947 133.041C114.314 133.041 114.624 132.945 114.876 132.751C115.132 132.555 115.325 132.284 115.456 131.938C115.589 131.591 115.656 131.187 115.656 130.727C115.656 130.273 115.591 129.875 115.46 129.534C115.33 129.193 115.138 128.928 114.885 128.737C114.632 128.547 114.32 128.452 113.947 128.452C113.564 128.452 113.244 128.551 112.989 128.75C112.733 128.949 112.54 129.22 112.409 129.564C112.281 129.908 112.217 130.295 112.217 130.727C112.217 131.165 112.283 131.558 112.413 131.908C112.544 132.257 112.737 132.534 112.993 132.739C113.251 132.94 113.57 133.041 113.947 133.041ZM120.632 134.145C120.218 134.145 119.843 134.068 119.507 133.915C119.172 133.759 118.907 133.533 118.711 133.237C118.517 132.942 118.421 132.58 118.421 132.151C118.421 131.781 118.492 131.477 118.634 131.239C118.776 131 118.968 130.811 119.209 130.672C119.451 130.533 119.721 130.428 120.019 130.357C120.317 130.286 120.621 130.232 120.931 130.195C121.323 130.149 121.641 130.112 121.885 130.084C122.13 130.053 122.307 130.003 122.418 129.935C122.529 129.866 122.584 129.756 122.584 129.602V129.572C122.584 129.2 122.479 128.912 122.269 128.707C122.061 128.503 121.752 128.401 121.34 128.401C120.911 128.401 120.573 128.496 120.326 128.686C120.081 128.874 119.912 129.082 119.819 129.312L118.621 129.04C118.763 128.642 118.971 128.321 119.243 128.077C119.519 127.83 119.836 127.651 120.194 127.54C120.551 127.426 120.928 127.369 121.323 127.369C121.584 127.369 121.861 127.401 122.154 127.463C122.449 127.523 122.725 127.634 122.98 127.795C123.239 127.957 123.451 128.189 123.615 128.49C123.78 128.788 123.863 129.176 123.863 129.653V134H122.618V133.105H122.567C122.485 133.27 122.361 133.432 122.196 133.591C122.032 133.75 121.82 133.882 121.561 133.987C121.303 134.092 120.993 134.145 120.632 134.145ZM120.909 133.122C121.262 133.122 121.563 133.053 121.813 132.913C122.066 132.774 122.257 132.592 122.388 132.368C122.522 132.141 122.588 131.898 122.588 131.639V130.795C122.543 130.841 122.455 130.884 122.324 130.923C122.196 130.96 122.05 130.993 121.885 131.021C121.721 131.047 121.56 131.071 121.404 131.094C121.248 131.114 121.117 131.131 121.012 131.145C120.765 131.176 120.539 131.229 120.334 131.303C120.132 131.376 119.971 131.483 119.848 131.622C119.729 131.759 119.669 131.94 119.669 132.168C119.669 132.483 119.786 132.722 120.019 132.884C120.252 133.043 120.549 133.122 120.909 133.122ZM126.131 136.455C125.94 136.455 125.767 136.439 125.611 136.408C125.455 136.379 125.338 136.348 125.261 136.314L125.568 135.27C125.801 135.332 126.009 135.359 126.19 135.351C126.372 135.342 126.533 135.274 126.672 135.146C126.814 135.018 126.939 134.81 127.047 134.52L127.205 134.085L124.81 127.455H126.173L127.831 132.534H127.899L129.557 127.455H130.925L128.227 134.874C128.102 135.214 127.943 135.503 127.75 135.739C127.557 135.977 127.327 136.156 127.06 136.276C126.793 136.395 126.483 136.455 126.131 136.455Z" fill="#2B8761"/>
<path d="M16.6165 102.141V100.818H24.4964V102.141H21.3196V111H19.7884V102.141H16.6165ZM28.2276 111.154C27.5117 111.154 26.887 110.99 26.3533 110.662C25.8197 110.334 25.4054 109.875 25.1104 109.285C24.8155 108.695 24.668 108.005 24.668 107.217C24.668 106.424 24.8155 105.732 25.1104 105.138C25.4054 104.545 25.8197 104.085 26.3533 103.756C26.887 103.428 27.5117 103.264 28.2276 103.264C28.9435 103.264 29.5683 103.428 30.1019 103.756C30.6355 104.085 31.0498 104.545 31.3448 105.138C31.6398 105.732 31.7873 106.424 31.7873 107.217C31.7873 108.005 31.6398 108.695 31.3448 109.285C31.0498 109.875 30.6355 110.334 30.1019 110.662C29.5683 110.99 28.9435 111.154 28.2276 111.154ZM28.2326 109.906C28.6966 109.906 29.0811 109.784 29.386 109.538C29.6909 109.293 29.9163 108.967 30.0621 108.559C30.2113 108.151 30.2859 107.702 30.2859 107.212C30.2859 106.724 30.2113 106.277 30.0621 105.869C29.9163 105.458 29.6909 105.129 29.386 104.88C29.0811 104.631 28.6966 104.507 28.2326 104.507C27.7653 104.507 27.3775 104.631 27.0692 104.88C26.7643 105.129 26.5373 105.458 26.3881 105.869C26.2423 106.277 26.1694 106.724 26.1694 107.212C26.1694 107.702 26.2423 108.151 26.3881 108.559C26.5373 108.967 26.7643 109.293 27.0692 109.538C27.3775 109.784 27.7653 109.906 28.2326 109.906ZM37.0112 103.364V104.557H32.84V103.364H37.0112ZM33.9586 101.534H35.4451V108.758C35.4451 109.046 35.4882 109.263 35.5744 109.409C35.6606 109.552 35.7716 109.649 35.9075 109.702C36.0467 109.752 36.1975 109.777 36.3599 109.777C36.4792 109.777 36.5836 109.769 36.6731 109.752C36.7626 109.736 36.8322 109.722 36.8819 109.712L37.1504 110.94C37.0642 110.973 36.9416 111.007 36.7825 111.04C36.6234 111.076 36.4245 111.096 36.1859 111.099C35.7948 111.106 35.4302 111.036 35.0922 110.891C34.7541 110.745 34.4806 110.519 34.2718 110.214C34.063 109.91 33.9586 109.527 33.9586 109.066V101.534ZM40.8778 111.169C40.3939 111.169 39.9564 111.08 39.5653 110.901C39.1742 110.718 38.8643 110.455 38.6357 110.11C38.4103 109.765 38.2976 109.343 38.2976 108.842C38.2976 108.411 38.3804 108.057 38.5462 107.778C38.7119 107.5 38.9356 107.28 39.2173 107.117C39.4991 106.955 39.8139 106.832 40.1619 106.749C40.5099 106.666 40.8646 106.603 41.2259 106.56C41.6832 106.507 42.0545 106.464 42.3395 106.431C42.6245 106.395 42.8317 106.337 42.9609 106.257C43.0902 106.178 43.1548 106.048 43.1548 105.869V105.835C43.1548 105.4 43.0322 105.064 42.7869 104.825C42.545 104.587 42.1837 104.467 41.7031 104.467C41.2027 104.467 40.8082 104.578 40.5199 104.8C40.2348 105.019 40.0376 105.263 39.9283 105.531L38.5312 105.213C38.697 104.749 38.9389 104.375 39.2571 104.089C39.5786 103.801 39.9482 103.592 40.3658 103.463C40.7834 103.33 41.2225 103.264 41.6832 103.264C41.9882 103.264 42.3113 103.301 42.6527 103.374C42.9974 103.443 43.3189 103.572 43.6172 103.761C43.9188 103.95 44.1657 104.22 44.358 104.572C44.5502 104.92 44.6463 105.372 44.6463 105.929V111H43.1946V109.956H43.1349C43.0388 110.148 42.8946 110.337 42.7024 110.523C42.5102 110.708 42.2633 110.862 41.9616 110.985C41.66 111.108 41.2988 111.169 40.8778 111.169ZM41.201 109.976C41.612 109.976 41.9633 109.895 42.255 109.732C42.55 109.57 42.7737 109.358 42.9261 109.096C43.0819 108.831 43.1598 108.547 43.1598 108.246V107.261C43.1068 107.314 43.004 107.364 42.8516 107.411C42.7024 107.454 42.5317 107.492 42.3395 107.525C42.1473 107.555 41.96 107.583 41.7777 107.609C41.5954 107.633 41.4429 107.652 41.3203 107.669C41.032 107.705 40.7685 107.767 40.5298 107.853C40.2945 107.939 40.1056 108.063 39.9631 108.226C39.8239 108.385 39.7543 108.597 39.7543 108.862C39.7543 109.23 39.8902 109.509 40.1619 109.697C40.4337 109.883 40.7801 109.976 41.201 109.976ZM48.1127 100.818V111H46.6262V100.818H48.1127ZM59.4902 103.493C59.4372 103.022 59.2185 102.658 58.834 102.399C58.4495 102.137 57.9656 102.006 57.3823 102.006C56.9647 102.006 56.6034 102.073 56.2985 102.205C55.9935 102.335 55.7566 102.513 55.5875 102.742C55.4218 102.968 55.339 103.224 55.339 103.513C55.339 103.755 55.3953 103.964 55.508 104.139C55.624 104.315 55.7748 104.462 55.9604 104.582C56.1493 104.698 56.3515 104.795 56.5669 104.875C56.7824 104.951 56.9895 105.014 57.1884 105.064L58.1827 105.322C58.5075 105.402 58.8406 105.51 59.182 105.646C59.5234 105.781 59.8399 105.96 60.1316 106.183C60.4232 106.405 60.6586 106.68 60.8375 107.008C61.0198 107.336 61.111 107.729 61.111 108.186C61.111 108.763 60.9618 109.275 60.6635 109.722C60.3685 110.17 59.9393 110.523 59.3759 110.781C58.8158 111.04 58.138 111.169 57.3425 111.169C56.5802 111.169 55.9206 111.048 55.3638 110.806C54.807 110.564 54.3712 110.221 54.0563 109.777C53.7414 109.33 53.5674 108.799 53.5343 108.186H55.0755C55.1053 108.554 55.2246 108.861 55.4334 109.106C55.6455 109.348 55.9157 109.528 56.2438 109.648C56.5752 109.764 56.9382 109.822 57.3326 109.822C57.7667 109.822 58.1529 109.754 58.4909 109.618C58.8323 109.479 59.1008 109.286 59.2963 109.041C59.4919 108.793 59.5897 108.503 59.5897 108.171C59.5897 107.87 59.5035 107.623 59.3311 107.43C59.1621 107.238 58.9318 107.079 58.6401 106.953C58.3517 106.827 58.0253 106.716 57.6607 106.62L56.4576 106.292C55.6422 106.07 54.9959 105.743 54.5186 105.312C54.0447 104.882 53.8077 104.312 53.8077 103.602C53.8077 103.016 53.9668 102.504 54.285 102.066C54.6032 101.629 55.034 101.289 55.5776 101.047C56.1212 100.802 56.7343 100.679 57.4171 100.679C58.1065 100.679 58.7147 100.8 59.2417 101.042C59.772 101.284 60.1896 101.617 60.4945 102.041C60.7994 102.462 60.9585 102.946 60.9718 103.493H59.4902ZM65.0497 111.169C64.5658 111.169 64.1283 111.08 63.7372 110.901C63.3461 110.718 63.0362 110.455 62.8075 110.11C62.5821 109.765 62.4695 109.343 62.4695 108.842C62.4695 108.411 62.5523 108.057 62.718 107.778C62.8838 107.5 63.1075 107.28 63.3892 107.117C63.6709 106.955 63.9858 106.832 64.3338 106.749C64.6818 106.666 65.0365 106.603 65.3977 106.56C65.8551 106.507 66.2263 106.464 66.5114 106.431C66.7964 106.395 67.0036 106.337 67.1328 106.257C67.2621 106.178 67.3267 106.048 67.3267 105.869V105.835C67.3267 105.4 67.2041 105.064 66.9588 104.825C66.7169 104.587 66.3556 104.467 65.875 104.467C65.3745 104.467 64.9801 104.578 64.6918 104.8C64.4067 105.019 64.2095 105.263 64.1001 105.531L62.7031 105.213C62.8688 104.749 63.1108 104.375 63.429 104.089C63.7505 103.801 64.12 103.592 64.5376 103.463C64.9553 103.33 65.3944 103.264 65.8551 103.264C66.16 103.264 66.4832 103.301 66.8246 103.374C67.1693 103.443 67.4908 103.572 67.7891 103.761C68.0907 103.95 68.3376 104.22 68.5298 104.572C68.7221 104.92 68.8182 105.372 68.8182 105.929V111H67.3665V109.956H67.3068C67.2107 110.148 67.0665 110.337 66.8743 110.523C66.6821 110.708 66.4351 110.862 66.1335 110.985C65.8319 111.108 65.4706 111.169 65.0497 111.169ZM65.3729 109.976C65.7839 109.976 66.1352 109.895 66.4268 109.732C66.7218 109.57 66.9455 109.358 67.098 109.096C67.2538 108.831 67.3317 108.547 67.3317 108.246V107.261C67.2786 107.314 67.1759 107.364 67.0234 107.411C66.8743 107.454 66.7036 107.492 66.5114 107.525C66.3191 107.555 66.1319 107.583 65.9496 107.609C65.7673 107.633 65.6148 107.652 65.4922 107.669C65.2038 107.705 64.9403 107.767 64.7017 107.853C64.4664 107.939 64.2775 108.063 64.1349 108.226C63.9957 108.385 63.9261 108.597 63.9261 108.862C63.9261 109.23 64.062 109.509 64.3338 109.697C64.6056 109.883 64.9519 109.976 65.3729 109.976ZM72.2846 100.818V111H70.7981V100.818H72.2846ZM77.5756 111.154C76.8233 111.154 76.1753 110.993 75.6317 110.672C75.0915 110.347 74.6739 109.891 74.3789 109.305C74.0872 108.715 73.9414 108.024 73.9414 107.232C73.9414 106.449 74.0872 105.76 74.3789 105.163C74.6739 104.567 75.0849 104.101 75.6119 103.766C76.1422 103.432 76.762 103.264 77.4712 103.264C77.9021 103.264 78.3197 103.335 78.7241 103.478C79.1284 103.621 79.4914 103.844 79.8129 104.149C80.1344 104.454 80.3879 104.85 80.5735 105.337C80.7591 105.821 80.8519 106.41 80.8519 107.102V107.629H74.7816V106.516H79.3952C79.3952 106.125 79.3157 105.778 79.1566 105.477C78.9975 105.172 78.7738 104.931 78.4854 104.756C78.2004 104.58 77.8656 104.492 77.4812 104.492C77.0636 104.492 76.699 104.595 76.3874 104.8C76.0792 105.003 75.8406 105.268 75.6715 105.596C75.5058 105.921 75.4229 106.274 75.4229 106.655V107.525C75.4229 108.035 75.5124 108.469 75.6914 108.827C75.8737 109.185 76.1272 109.459 76.4521 109.648C76.7769 109.833 77.1564 109.926 77.5906 109.926C77.8723 109.926 78.1291 109.886 78.3612 109.807C78.5932 109.724 78.7937 109.601 78.9627 109.439C79.1317 109.277 79.261 109.076 79.3505 108.837L80.7575 109.091C80.6448 109.505 80.4426 109.868 80.1509 110.18C79.8626 110.488 79.4996 110.728 79.0621 110.901C78.628 111.07 78.1325 111.154 77.5756 111.154ZM88.2235 105.228L86.8762 105.467C86.8199 105.294 86.7304 105.13 86.6078 104.974C86.4885 104.819 86.3261 104.691 86.1206 104.592C85.9151 104.492 85.6582 104.442 85.35 104.442C84.929 104.442 84.5777 104.537 84.296 104.726C84.0143 104.911 83.8734 105.152 83.8734 105.447C83.8734 105.702 83.9679 105.907 84.1568 106.063C84.3457 106.219 84.6506 106.347 85.0716 106.446L86.2846 106.724C86.9873 106.887 87.5109 107.137 87.8556 107.475C88.2003 107.813 88.3727 108.252 88.3727 108.793C88.3727 109.25 88.2401 109.658 87.975 110.016C87.7131 110.37 87.3469 110.649 86.8762 110.851C86.4089 111.053 85.867 111.154 85.2505 111.154C84.3954 111.154 83.6977 110.972 83.1575 110.607C82.6172 110.239 82.2858 109.717 82.1632 109.041L83.6 108.822C83.6895 109.197 83.8734 109.48 84.1518 109.673C84.4302 109.862 84.7931 109.956 85.2406 109.956C85.7278 109.956 86.1172 109.855 86.4089 109.653C86.7006 109.447 86.8464 109.197 86.8464 108.902C86.8464 108.663 86.7569 108.463 86.5779 108.3C86.4023 108.138 86.1322 108.015 85.7676 107.933L84.475 107.649C83.7624 107.487 83.2354 107.228 82.894 106.874C82.5559 106.519 82.3869 106.07 82.3869 105.526C82.3869 105.076 82.5128 104.681 82.7647 104.343C83.0166 104.005 83.3646 103.741 83.8088 103.553C84.2529 103.36 84.7617 103.264 85.335 103.264C86.1603 103.264 86.81 103.443 87.2839 103.801C87.7579 104.156 88.0711 104.631 88.2235 105.228Z" fill="#A3A3A3"/>
<path d="M23.1761 85.1818V63.3636H24.5739V85.1818H23.1761ZM27.2074 70.3438C27.1278 69.5994 26.7926 69.0199 26.2017 68.6051C25.6165 68.1903 24.8551 67.983 23.9176 67.983C23.2585 67.983 22.6932 68.0824 22.2216 68.2812C21.75 68.4801 21.3892 68.75 21.1392 69.0909C20.8892 69.4318 20.7614 69.821 20.7557 70.2585C20.7557 70.6222 20.8381 70.9375 21.0028 71.2045C21.1733 71.4716 21.4034 71.6989 21.6932 71.8864C21.983 72.0682 22.304 72.2216 22.6562 72.3466C23.0085 72.4716 23.3636 72.5767 23.7216 72.6619L25.358 73.071C26.017 73.2244 26.6506 73.4318 27.2585 73.6932C27.8722 73.9545 28.4205 74.2841 28.9034 74.6818C29.392 75.0795 29.7784 75.5597 30.0625 76.1222C30.3466 76.6847 30.4886 77.3437 30.4886 78.0994C30.4886 79.1222 30.2273 80.0227 29.7045 80.8011C29.1818 81.5739 28.4261 82.179 27.4375 82.6165C26.4545 83.0483 25.2642 83.2642 23.8665 83.2642C22.5085 83.2642 21.3295 83.054 20.3295 82.6335C19.3352 82.2131 18.5568 81.5994 17.9943 80.7926C17.4375 79.9858 17.1364 79.0028 17.0909 77.8438H20.2017C20.2472 78.4517 20.4347 78.9574 20.7642 79.3608C21.0938 79.7642 21.5227 80.0653 22.0511 80.2642C22.5852 80.4631 23.1818 80.5625 23.8409 80.5625C24.5284 80.5625 25.1307 80.4602 25.6477 80.2557C26.1705 80.0455 26.5795 79.7557 26.875 79.3864C27.1705 79.0114 27.321 78.5739 27.3267 78.0739C27.321 77.6193 27.1875 77.2443 26.9261 76.9489C26.6648 76.6477 26.2983 76.3977 25.8267 76.1989C25.3608 75.9943 24.8153 75.8125 24.1903 75.6534L22.2045 75.142C20.767 74.7727 19.6307 74.2131 18.7955 73.4631C17.9659 72.7074 17.5511 71.7045 17.5511 70.4545C17.5511 69.4261 17.8295 68.5256 18.3864 67.7528C18.9489 66.9801 19.7131 66.3807 20.679 65.9545C21.6449 65.5227 22.7386 65.3068 23.9602 65.3068C25.1989 65.3068 26.2841 65.5227 27.2159 65.9545C28.1534 66.3807 28.8892 66.9744 29.4233 67.7358C29.9574 68.4915 30.233 69.3608 30.25 70.3438H27.2074ZM40.2365 65.5455V83H37.0746V68.6222H36.9723L32.8899 71.2301V68.3324L37.228 65.5455H40.2365ZM47.5149 78.892L47.5064 75.1676H48.0007L52.7053 69.9091H56.3104L50.5234 76.3523H49.8842L47.5149 78.892ZM44.7024 83V65.5455H47.7876V83H44.7024ZM52.9183 83L48.657 77.0426L50.7365 74.8693L56.6087 83H52.9183Z" fill="#1E1B18"/>
<circle cx="32" cy="34" r="16" fill="#FA5A7D"/>
<path fill-rule="evenodd" clip-rule="evenodd" d="M26.3998 26.8003C25.5161 26.8003 24.7998 27.5167 24.7998 28.4003V39.6003C24.7998 40.4839 25.5161 41.2003 26.3998 41.2003H37.5998C38.4835 41.2003 39.1998 40.4839 39.1998 39.6003V28.4003C39.1998 27.5167 38.4835 26.8003 37.5998 26.8003H26.3998ZM28.7998 34.8003C28.7998 34.3584 28.4416 34.0003 27.9998 34.0003C27.558 34.0003 27.1998 34.3584 27.1998 34.8003V38.0003C27.1998 38.4421 27.558 38.8003 27.9998 38.8003C28.4416 38.8003 28.7998 38.4421 28.7998 38.0003V34.8003ZM31.9998 31.6003C32.4416 31.6003 32.7998 31.9584 32.7998 32.4003V38.0003C32.7998 38.4421 32.4416 38.8003 31.9998 38.8003C31.558 38.8003 31.1998 38.4421 31.1998 38.0003V32.4003C31.1998 31.9584 31.558 31.6003 31.9998 31.6003ZM36.7998 30.0003C36.7998 29.5584 36.4416 29.2003 35.9998 29.2003C35.558 29.2003 35.1998 29.5584 35.1998 30.0003V38.0003C35.1998 38.4421 35.558 38.8003 35.9998 38.8003C36.4416 38.8003 36.7998 38.4421 36.7998 38.0003V30.0003Z" fill="white"/>
</svg>
