<svg width="150" height="150" viewBox="0 0 150 150" fill="none" xmlns="http://www.w3.org/2000/svg">
<rect width="150" height="150" rx="16" fill="#FFF4DE"/>
<path d="M19.4219 130.534V124.773H20.5682V130.534H19.4219ZM17.1165 128.224V127.082H22.8778V128.224H17.1165ZM27.7124 132.119C27.1783 132.119 26.6982 132.017 26.272 131.812C25.8487 131.605 25.5107 131.321 25.2578 130.96C25.005 130.599 24.87 130.188 24.853 129.724H26.1314C26.1626 130.099 26.3288 130.408 26.63 130.649C26.9311 130.891 27.2919 131.011 27.7124 131.011C28.0476 131.011 28.3445 130.935 28.603 130.781C28.8643 130.625 29.0689 130.411 29.2166 130.138C29.3672 129.865 29.4425 129.554 29.4425 129.205C29.4425 128.849 29.3658 128.533 29.2124 128.254C29.0589 127.976 28.8473 127.757 28.5774 127.598C28.3104 127.439 28.0036 127.358 27.657 127.355C27.3928 127.355 27.1271 127.401 26.8601 127.491C26.593 127.582 26.3771 127.702 26.2124 127.849L25.0064 127.67L25.4964 123.273H30.2947V124.402H26.5916L26.3146 126.844H26.3658C26.5362 126.679 26.7621 126.541 27.0433 126.43C27.3274 126.32 27.6314 126.264 27.9553 126.264C28.4865 126.264 28.9595 126.391 29.3743 126.643C29.7919 126.896 30.12 127.241 30.3587 127.679C30.6001 128.114 30.7195 128.614 30.7166 129.179C30.7195 129.744 30.5916 130.249 30.3331 130.692C30.0774 131.135 29.7223 131.484 29.2678 131.74C28.8161 131.993 28.2976 132.119 27.7124 132.119ZM36.8285 130.364V129.903C36.8285 129.574 36.8967 129.273 37.033 129C37.1722 128.724 37.3739 128.504 37.6381 128.339C37.9052 128.172 38.2276 128.088 38.6055 128.088C38.9918 128.088 39.3157 128.17 39.5771 128.335C39.8384 128.5 40.0359 128.72 40.1694 128.996C40.3058 129.271 40.3739 129.574 40.3739 129.903V130.364C40.3739 130.693 40.3058 130.996 40.1694 131.271C40.033 131.544 39.8327 131.764 39.5685 131.932C39.3072 132.097 38.9862 132.179 38.6055 132.179C38.2219 132.179 37.8981 132.097 37.6339 131.932C37.3697 131.764 37.1694 131.544 37.033 131.271C36.8967 130.996 36.8285 130.693 36.8285 130.364ZM37.8214 129.903V130.364C37.8214 130.608 37.8796 130.83 37.9961 131.028C38.1126 131.227 38.3157 131.327 38.6055 131.327C38.8924 131.327 39.0927 131.227 39.2063 131.028C39.32 130.83 39.3768 130.608 39.3768 130.364V129.903C39.3768 129.659 39.3214 129.437 39.2106 129.239C39.1026 129.04 38.9009 128.94 38.6055 128.94C38.3214 128.94 38.1197 129.04 38.0004 129.239C37.881 129.437 37.8214 129.659 37.8214 129.903ZM32.4393 125.369V124.909C32.4393 124.58 32.5075 124.277 32.6438 124.001C32.783 123.726 32.9847 123.506 33.2489 123.341C33.516 123.176 33.8384 123.094 34.2163 123.094C34.6026 123.094 34.9265 123.176 35.1879 123.341C35.4492 123.506 35.6467 123.726 35.7802 124.001C35.9137 124.277 35.9805 124.58 35.9805 124.909V125.369C35.9805 125.699 35.9123 126.001 35.7759 126.277C35.6424 126.55 35.4435 126.77 35.1793 126.938C34.918 127.102 34.5969 127.185 34.2163 127.185C33.8299 127.185 33.5046 127.102 33.2404 126.938C32.979 126.77 32.7802 126.55 32.6438 126.277C32.5075 126.001 32.4393 125.699 32.4393 125.369ZM33.4364 124.909V125.369C33.4364 125.614 33.4933 125.835 33.6069 126.034C33.7234 126.233 33.9265 126.332 34.2163 126.332C34.5004 126.332 34.6992 126.233 34.8129 126.034C34.9293 125.835 34.9876 125.614 34.9876 125.369V124.909C34.9876 124.665 34.9322 124.443 34.8214 124.244C34.7106 124.045 34.5089 123.946 34.2163 123.946C33.9322 123.946 33.7305 124.045 33.6112 124.244C33.4947 124.443 33.4364 124.665 33.4364 124.909ZM32.8441 132L38.8441 123.273H39.8626L33.8626 132H32.8441ZM48.5185 125.455V126.477H44.8196V125.455H48.5185ZM45.8338 132V124.696C45.8338 124.287 45.9233 123.947 46.1023 123.678C46.2813 123.405 46.5185 123.202 46.8139 123.068C47.1094 122.932 47.4304 122.864 47.777 122.864C48.0327 122.864 48.2514 122.885 48.4332 122.928C48.6151 122.967 48.75 123.004 48.8381 123.038L48.5398 124.07C48.4801 124.053 48.4034 124.033 48.3097 124.01C48.2159 123.984 48.1023 123.972 47.9688 123.972C47.6591 123.972 47.4375 124.048 47.304 124.202C47.1733 124.355 47.108 124.577 47.108 124.866V132H45.8338ZM49.8331 132V125.455H51.0646V126.494H51.1328C51.2521 126.142 51.4624 125.865 51.7635 125.663C52.0675 125.459 52.4112 125.357 52.7947 125.357C52.8743 125.357 52.968 125.359 53.076 125.365C53.1868 125.371 53.2734 125.378 53.3359 125.386V126.605C53.2848 126.591 53.1939 126.575 53.0632 126.558C52.9325 126.538 52.8018 126.528 52.6712 126.528C52.37 126.528 52.1016 126.592 51.8658 126.72C51.6328 126.845 51.4482 127.02 51.3118 127.244C51.1754 127.466 51.1072 127.719 51.1072 128.003V132H49.8331ZM56.9613 132.132C56.3477 132.132 55.8121 131.991 55.3548 131.71C54.8974 131.429 54.5423 131.036 54.2894 130.53C54.0366 130.024 53.9102 129.433 53.9102 128.757C53.9102 128.078 54.0366 127.484 54.2894 126.976C54.5423 126.467 54.8974 126.072 55.3548 125.791C55.8121 125.51 56.3477 125.369 56.9613 125.369C57.5749 125.369 58.1104 125.51 58.5678 125.791C59.0252 126.072 59.3803 126.467 59.6332 126.976C59.886 127.484 60.0124 128.078 60.0124 128.757C60.0124 129.433 59.886 130.024 59.6332 130.53C59.3803 131.036 59.0252 131.429 58.5678 131.71C58.1104 131.991 57.5749 132.132 56.9613 132.132ZM56.9656 131.062C57.3633 131.062 57.6928 130.957 57.9542 130.747C58.2156 130.537 58.4087 130.257 58.5337 129.908C58.6616 129.558 58.7255 129.173 58.7255 128.753C58.7255 128.335 58.6616 127.952 58.5337 127.602C58.4087 127.25 58.2156 126.967 57.9542 126.754C57.6928 126.541 57.3633 126.435 56.9656 126.435C56.565 126.435 56.2326 126.541 55.9684 126.754C55.707 126.967 55.5124 127.25 55.3846 127.602C55.2596 127.952 55.1971 128.335 55.1971 128.753C55.1971 129.173 55.2596 129.558 55.3846 129.908C55.5124 130.257 55.707 130.537 55.9684 130.747C56.2326 130.957 56.565 131.062 56.9656 131.062ZM61.4347 132V125.455H62.6577V126.52H62.7386C62.875 126.159 63.098 125.878 63.4077 125.676C63.7173 125.472 64.0881 125.369 64.5199 125.369C64.9574 125.369 65.3239 125.472 65.6193 125.676C65.9176 125.881 66.1378 126.162 66.2798 126.52H66.348C66.5043 126.17 66.7528 125.892 67.0938 125.685C67.4347 125.474 67.8409 125.369 68.3125 125.369C68.9062 125.369 69.3906 125.555 69.7656 125.928C70.1435 126.3 70.3324 126.861 70.3324 127.611V132H69.0582V127.73C69.0582 127.287 68.9375 126.966 68.696 126.767C68.4545 126.568 68.1662 126.469 67.831 126.469C67.4162 126.469 67.0938 126.597 66.8636 126.852C66.6335 127.105 66.5185 127.43 66.5185 127.828V132H65.2486V127.649C65.2486 127.294 65.1378 127.009 64.9162 126.793C64.6946 126.577 64.4063 126.469 64.0511 126.469C63.8097 126.469 63.5866 126.533 63.3821 126.661C63.1804 126.786 63.017 126.96 62.892 127.185C62.7699 127.409 62.7088 127.669 62.7088 127.964V132H61.4347ZM76.0213 134.455C75.831 134.455 75.6577 134.439 75.5014 134.408C75.3452 134.379 75.2287 134.348 75.152 134.314L75.4588 133.27C75.6918 133.332 75.8991 133.359 76.081 133.351C76.2628 133.342 76.4233 133.274 76.5625 133.146C76.7045 133.018 76.8295 132.81 76.9375 132.52L77.0952 132.085L74.7003 125.455H76.0639L77.7216 130.534H77.7898L79.4474 125.455H80.8153L78.1179 132.874C77.9929 133.214 77.8338 133.503 77.6406 133.739C77.4474 133.977 77.2173 134.156 76.9503 134.276C76.6832 134.395 76.3736 134.455 76.0213 134.455ZM84.6112 132.132C83.9663 132.132 83.4109 131.994 82.945 131.719C82.4819 131.44 82.1239 131.05 81.8711 130.547C81.6211 130.041 81.4961 129.449 81.4961 128.77C81.4961 128.099 81.6211 127.509 81.8711 126.997C82.1239 126.486 82.4762 126.087 82.9279 125.8C83.3825 125.513 83.9137 125.369 84.5217 125.369C84.891 125.369 85.2489 125.43 85.5955 125.553C85.9421 125.675 86.2532 125.866 86.5288 126.128C86.8043 126.389 87.0217 126.729 87.1808 127.146C87.3398 127.561 87.4194 128.065 87.4194 128.659V129.111H82.2163V128.156H86.1708C86.1708 127.821 86.1026 127.524 85.9663 127.266C85.8299 127.004 85.6381 126.798 85.391 126.648C85.1467 126.497 84.8597 126.422 84.5302 126.422C84.1722 126.422 83.8597 126.51 83.5927 126.686C83.3285 126.859 83.1239 127.087 82.979 127.368C82.837 127.646 82.766 127.949 82.766 128.276V129.021C82.766 129.459 82.8427 129.831 82.9961 130.138C83.1523 130.445 83.3697 130.679 83.6481 130.841C83.9265 131 84.2518 131.08 84.6239 131.08C84.8654 131.08 85.0856 131.045 85.2844 130.977C85.4833 130.906 85.6552 130.801 85.8001 130.662C85.945 130.523 86.0558 130.351 86.1325 130.146L87.3384 130.364C87.2418 130.719 87.0685 131.03 86.8185 131.297C86.5714 131.561 86.2603 131.767 85.8853 131.915C85.5131 132.06 85.0884 132.132 84.6112 132.132ZM93.7379 127.053L92.5831 127.257C92.5348 127.109 92.4581 126.969 92.353 126.835C92.2507 126.702 92.1115 126.592 91.9354 126.507C91.7592 126.422 91.5391 126.379 91.2749 126.379C90.9141 126.379 90.6129 126.46 90.3714 126.622C90.13 126.781 90.0092 126.987 90.0092 127.24C90.0092 127.459 90.0902 127.635 90.2521 127.768C90.4141 127.902 90.6754 128.011 91.0362 128.097L92.076 128.335C92.6783 128.474 93.1271 128.689 93.4226 128.979C93.718 129.268 93.8658 129.645 93.8658 130.108C93.8658 130.5 93.7521 130.849 93.5249 131.156C93.3004 131.46 92.9865 131.699 92.5831 131.872C92.1825 132.045 91.718 132.132 91.1896 132.132C90.4567 132.132 89.8587 131.976 89.3956 131.663C88.9325 131.348 88.6484 130.901 88.5433 130.321L89.7749 130.134C89.8516 130.455 90.0092 130.697 90.2479 130.862C90.4865 131.024 90.7976 131.105 91.1811 131.105C91.5987 131.105 91.9325 131.018 92.1825 130.845C92.4325 130.669 92.5575 130.455 92.5575 130.202C92.5575 129.997 92.4808 129.825 92.3274 129.686C92.1768 129.547 91.9453 129.442 91.6328 129.371L90.5249 129.128C89.9141 128.989 89.4624 128.767 89.1697 128.463C88.88 128.159 88.7351 127.774 88.7351 127.308C88.7351 126.922 88.843 126.584 89.0589 126.294C89.2749 126.004 89.5732 125.778 89.9538 125.616C90.3345 125.452 90.7706 125.369 91.2621 125.369C91.9695 125.369 92.5263 125.523 92.9325 125.83C93.3388 126.134 93.6072 126.541 93.7379 127.053ZM98.3221 125.455V126.477H94.7468V125.455H98.3221ZM95.7056 123.886H96.9798V130.078C96.9798 130.325 97.0167 130.511 97.0906 130.636C97.1644 130.759 97.2596 130.842 97.3761 130.888C97.4954 130.93 97.6246 130.952 97.7638 130.952C97.8661 130.952 97.9556 130.945 98.0323 130.93C98.109 130.916 98.1687 130.905 98.2113 130.896L98.4414 131.949C98.3675 131.977 98.2624 132.006 98.1261 132.034C97.9897 132.065 97.8192 132.082 97.6147 132.085C97.2795 132.091 96.967 132.031 96.6772 131.906C96.3874 131.781 96.1531 131.588 95.9741 131.327C95.7951 131.065 95.7056 130.737 95.7056 130.342V123.886ZM102.482 132.132C101.837 132.132 101.282 131.994 100.816 131.719C100.353 131.44 99.995 131.05 99.7422 130.547C99.4922 130.041 99.3672 129.449 99.3672 128.77C99.3672 128.099 99.4922 127.509 99.7422 126.997C99.995 126.486 100.347 126.087 100.799 125.8C101.254 125.513 101.785 125.369 102.393 125.369C102.762 125.369 103.12 125.43 103.467 125.553C103.813 125.675 104.124 125.866 104.4 126.128C104.675 126.389 104.893 126.729 105.052 127.146C105.211 127.561 105.29 128.065 105.29 128.659V129.111H100.087V128.156H104.042C104.042 127.821 103.974 127.524 103.837 127.266C103.701 127.004 103.509 126.798 103.262 126.648C103.018 126.497 102.731 126.422 102.401 126.422C102.043 126.422 101.731 126.51 101.464 126.686C101.2 126.859 100.995 127.087 100.85 127.368C100.708 127.646 100.637 127.949 100.637 128.276V129.021C100.637 129.459 100.714 129.831 100.867 130.138C101.023 130.445 101.241 130.679 101.519 130.841C101.798 131 102.123 131.08 102.495 131.08C102.737 131.08 102.957 131.045 103.156 130.977C103.354 130.906 103.526 130.801 103.671 130.662C103.816 130.523 103.927 130.351 104.004 130.146L105.21 130.364C105.113 130.719 104.94 131.03 104.69 131.297C104.442 131.561 104.131 131.767 103.756 131.915C103.384 132.06 102.96 132.132 102.482 132.132ZM106.704 132V125.455H107.936V126.494H108.004C108.123 126.142 108.333 125.865 108.635 125.663C108.939 125.459 109.282 125.357 109.666 125.357C109.745 125.357 109.839 125.359 109.947 125.365C110.058 125.371 110.145 125.378 110.207 125.386V126.605C110.156 126.591 110.065 126.575 109.934 126.558C109.804 126.538 109.673 126.528 109.542 126.528C109.241 126.528 108.973 126.592 108.737 126.72C108.504 126.845 108.319 127.02 108.183 127.244C108.047 127.466 107.978 127.719 107.978 128.003V132H106.704ZM113.526 132.128C112.997 132.128 112.526 131.993 112.111 131.723C111.699 131.45 111.375 131.062 111.139 130.56C110.906 130.054 110.79 129.447 110.79 128.74C110.79 128.033 110.908 127.428 111.143 126.925C111.382 126.422 111.709 126.037 112.124 125.77C112.538 125.503 113.009 125.369 113.534 125.369C113.94 125.369 114.267 125.438 114.514 125.574C114.764 125.707 114.957 125.864 115.094 126.043C115.233 126.222 115.341 126.379 115.418 126.516H115.494V123.273H116.768V132H115.524V130.982H115.418C115.341 131.121 115.23 131.28 115.085 131.459C114.943 131.638 114.747 131.794 114.497 131.928C114.247 132.061 113.923 132.128 113.526 132.128ZM113.807 131.041C114.173 131.041 114.483 130.945 114.736 130.751C114.991 130.555 115.185 130.284 115.315 129.938C115.449 129.591 115.516 129.187 115.516 128.727C115.516 128.273 115.45 127.875 115.32 127.534C115.189 127.193 114.997 126.928 114.744 126.737C114.491 126.547 114.179 126.452 113.807 126.452C113.423 126.452 113.104 126.551 112.848 126.75C112.592 126.949 112.399 127.22 112.268 127.564C112.141 127.908 112.077 128.295 112.077 128.727C112.077 129.165 112.142 129.558 112.273 129.908C112.403 130.257 112.597 130.534 112.852 130.739C113.111 130.94 113.429 131.041 113.807 131.041ZM120.492 132.145C120.077 132.145 119.702 132.068 119.367 131.915C119.032 131.759 118.766 131.533 118.57 131.237C118.377 130.942 118.28 130.58 118.28 130.151C118.28 129.781 118.351 129.477 118.493 129.239C118.635 129 118.827 128.811 119.069 128.672C119.31 128.533 119.58 128.428 119.878 128.357C120.176 128.286 120.48 128.232 120.79 128.195C121.182 128.149 121.5 128.112 121.745 128.084C121.989 128.053 122.167 128.003 122.277 127.935C122.388 127.866 122.444 127.756 122.444 127.602V127.572C122.444 127.2 122.338 126.912 122.128 126.707C121.921 126.503 121.611 126.401 121.199 126.401C120.77 126.401 120.432 126.496 120.185 126.686C119.941 126.874 119.772 127.082 119.678 127.312L118.48 127.04C118.623 126.642 118.83 126.321 119.103 126.077C119.378 125.83 119.695 125.651 120.053 125.54C120.411 125.426 120.787 125.369 121.182 125.369C121.444 125.369 121.721 125.401 122.013 125.463C122.309 125.523 122.584 125.634 122.84 125.795C123.098 125.957 123.31 126.189 123.475 126.49C123.64 126.788 123.722 127.176 123.722 127.653V132H122.478V131.105H122.426C122.344 131.27 122.221 131.432 122.056 131.591C121.891 131.75 121.679 131.882 121.421 131.987C121.162 132.092 120.853 132.145 120.492 132.145ZM120.769 131.122C121.121 131.122 121.422 131.053 121.672 130.913C121.925 130.774 122.117 130.592 122.248 130.368C122.381 130.141 122.448 129.898 122.448 129.639V128.795C122.402 128.841 122.314 128.884 122.184 128.923C122.056 128.96 121.909 128.993 121.745 129.021C121.58 129.047 121.419 129.071 121.263 129.094C121.107 129.114 120.976 129.131 120.871 129.145C120.624 129.176 120.398 129.229 120.194 129.303C119.992 129.376 119.83 129.483 119.708 129.622C119.588 129.759 119.529 129.94 119.529 130.168C119.529 130.483 119.645 130.722 119.878 130.884C120.111 131.043 120.408 131.122 120.769 131.122ZM125.99 134.455C125.8 134.455 125.626 134.439 125.47 134.408C125.314 134.379 125.197 134.348 125.121 134.314L125.428 133.27C125.661 133.332 125.868 133.359 126.05 133.351C126.232 133.342 126.392 133.274 126.531 133.146C126.673 133.018 126.798 132.81 126.906 132.52L127.064 132.085L124.669 125.455H126.033L127.69 130.534H127.759L129.416 125.455H130.784L128.087 132.874C127.962 133.214 127.803 133.503 127.609 133.739C127.416 133.977 127.186 134.156 126.919 134.276C126.652 134.395 126.342 134.455 125.99 134.455Z" fill="#2B8761"/>
<path d="M16.6165 100.141V98.8182H24.4964V100.141H21.3196V109H19.7884V100.141H16.6165ZM28.2276 109.154C27.5117 109.154 26.887 108.99 26.3533 108.662C25.8197 108.334 25.4054 107.875 25.1104 107.285C24.8155 106.695 24.668 106.005 24.668 105.217C24.668 104.424 24.8155 103.732 25.1104 103.138C25.4054 102.545 25.8197 102.085 26.3533 101.756C26.887 101.428 27.5117 101.264 28.2276 101.264C28.9435 101.264 29.5683 101.428 30.1019 101.756C30.6355 102.085 31.0498 102.545 31.3448 103.138C31.6398 103.732 31.7873 104.424 31.7873 105.217C31.7873 106.005 31.6398 106.695 31.3448 107.285C31.0498 107.875 30.6355 108.334 30.1019 108.662C29.5683 108.99 28.9435 109.154 28.2276 109.154ZM28.2326 107.906C28.6966 107.906 29.0811 107.784 29.386 107.538C29.6909 107.293 29.9163 106.967 30.0621 106.559C30.2113 106.151 30.2859 105.702 30.2859 105.212C30.2859 104.724 30.2113 104.277 30.0621 103.869C29.9163 103.458 29.6909 103.129 29.386 102.88C29.0811 102.631 28.6966 102.507 28.2326 102.507C27.7653 102.507 27.3775 102.631 27.0692 102.88C26.7643 103.129 26.5373 103.458 26.3881 103.869C26.2423 104.277 26.1694 104.724 26.1694 105.212C26.1694 105.702 26.2423 106.151 26.3881 106.559C26.5373 106.967 26.7643 107.293 27.0692 107.538C27.3775 107.784 27.7653 107.906 28.2326 107.906ZM37.0112 101.364V102.557H32.84V101.364H37.0112ZM33.9586 99.5341H35.4451V106.758C35.4451 107.046 35.4882 107.263 35.5744 107.409C35.6606 107.552 35.7716 107.649 35.9075 107.702C36.0467 107.752 36.1975 107.777 36.3599 107.777C36.4792 107.777 36.5836 107.769 36.6731 107.752C36.7626 107.736 36.8322 107.722 36.8819 107.712L37.1504 108.94C37.0642 108.973 36.9416 109.007 36.7825 109.04C36.6234 109.076 36.4245 109.096 36.1859 109.099C35.7948 109.106 35.4302 109.036 35.0922 108.891C34.7541 108.745 34.4806 108.519 34.2718 108.214C34.063 107.91 33.9586 107.527 33.9586 107.066V99.5341ZM40.8778 109.169C40.3939 109.169 39.9564 109.08 39.5653 108.901C39.1742 108.718 38.8643 108.455 38.6357 108.11C38.4103 107.765 38.2976 107.343 38.2976 106.842C38.2976 106.411 38.3804 106.057 38.5462 105.778C38.7119 105.5 38.9356 105.28 39.2173 105.117C39.4991 104.955 39.8139 104.832 40.1619 104.749C40.5099 104.666 40.8646 104.603 41.2259 104.56C41.6832 104.507 42.0545 104.464 42.3395 104.431C42.6245 104.395 42.8317 104.337 42.9609 104.257C43.0902 104.178 43.1548 104.048 43.1548 103.869V103.835C43.1548 103.4 43.0322 103.064 42.7869 102.825C42.545 102.587 42.1837 102.467 41.7031 102.467C41.2027 102.467 40.8082 102.578 40.5199 102.8C40.2348 103.019 40.0376 103.263 39.9283 103.531L38.5312 103.213C38.697 102.749 38.9389 102.375 39.2571 102.089C39.5786 101.801 39.9482 101.592 40.3658 101.463C40.7834 101.33 41.2225 101.264 41.6832 101.264C41.9882 101.264 42.3113 101.301 42.6527 101.374C42.9974 101.443 43.3189 101.572 43.6172 101.761C43.9188 101.95 44.1657 102.22 44.358 102.572C44.5502 102.92 44.6463 103.372 44.6463 103.929V109H43.1946V107.956H43.1349C43.0388 108.148 42.8946 108.337 42.7024 108.523C42.5102 108.708 42.2633 108.862 41.9616 108.985C41.66 109.108 41.2988 109.169 40.8778 109.169ZM41.201 107.976C41.612 107.976 41.9633 107.895 42.255 107.732C42.55 107.57 42.7737 107.358 42.9261 107.096C43.0819 106.831 43.1598 106.547 43.1598 106.246V105.261C43.1068 105.314 43.004 105.364 42.8516 105.411C42.7024 105.454 42.5317 105.492 42.3395 105.525C42.1473 105.555 41.96 105.583 41.7777 105.609C41.5954 105.633 41.4429 105.652 41.3203 105.669C41.032 105.705 40.7685 105.767 40.5298 105.853C40.2945 105.939 40.1056 106.063 39.9631 106.226C39.8239 106.385 39.7543 106.597 39.7543 106.862C39.7543 107.23 39.8902 107.509 40.1619 107.697C40.4337 107.883 40.7801 107.976 41.201 107.976ZM48.1127 98.8182V109H46.6262V98.8182H48.1127ZM53.937 109V98.8182H57.5662C58.3551 98.8182 59.0096 98.9541 59.53 99.2259C60.0537 99.4976 60.4448 99.8738 60.7033 100.354C60.9618 100.832 61.0911 101.384 61.0911 102.01C61.0911 102.633 60.9602 103.182 60.6983 103.656C60.4398 104.126 60.0487 104.492 59.525 104.754C59.0047 105.016 58.3501 105.147 57.5613 105.147H54.812V103.825H57.4221C57.9192 103.825 58.3236 103.753 58.6351 103.611C58.95 103.468 59.1803 103.261 59.3262 102.989C59.472 102.718 59.5449 102.391 59.5449 102.01C59.5449 101.625 59.4703 101.292 59.3212 101.011C59.1754 100.729 58.945 100.513 58.6301 100.364C58.3186 100.212 57.9093 100.136 57.4022 100.136H55.4732V109H53.937ZM58.9632 104.406L61.4789 109H59.7289L57.263 104.406H58.9632ZM66.0366 109.154C65.2842 109.154 64.6362 108.993 64.0927 108.672C63.5524 108.347 63.1348 107.891 62.8398 107.305C62.5482 106.715 62.4023 106.024 62.4023 105.232C62.4023 104.449 62.5482 103.76 62.8398 103.163C63.1348 102.567 63.5458 102.101 64.0728 101.766C64.6031 101.432 65.2229 101.264 65.9322 101.264C66.363 101.264 66.7807 101.335 67.185 101.478C67.5894 101.621 67.9523 101.844 68.2738 102.149C68.5953 102.454 68.8488 102.85 69.0344 103.337C69.2201 103.821 69.3129 104.41 69.3129 105.102V105.629H63.2425V104.516H67.8562C67.8562 104.125 67.7766 103.778 67.6175 103.477C67.4585 103.172 67.2347 102.931 66.9464 102.756C66.6613 102.58 66.3266 102.492 65.9421 102.492C65.5245 102.492 65.1599 102.595 64.8484 102.8C64.5401 103.003 64.3015 103.268 64.1325 103.596C63.9667 103.921 63.8839 104.274 63.8839 104.655V105.525C63.8839 106.035 63.9734 106.469 64.1523 106.827C64.3346 107.185 64.5882 107.459 64.913 107.648C65.2378 107.833 65.6173 107.926 66.0515 107.926C66.3332 107.926 66.5901 107.886 66.8221 107.807C67.0541 107.724 67.2546 107.601 67.4237 107.439C67.5927 107.277 67.7219 107.076 67.8114 106.837L69.2184 107.091C69.1057 107.505 68.9035 107.868 68.6119 108.18C68.3235 108.488 67.9606 108.728 67.5231 108.901C67.0889 109.07 66.5934 109.154 66.0366 109.154ZM74.1788 109.154C73.4397 109.154 72.8033 108.987 72.2697 108.652C71.7394 108.314 71.3317 107.848 71.0467 107.255C70.7617 106.662 70.6191 105.982 70.6191 105.217C70.6191 104.441 70.765 103.757 71.0566 103.163C71.3483 102.567 71.7593 102.101 72.2896 101.766C72.8199 101.432 73.4447 101.264 74.1639 101.264C74.7439 101.264 75.2609 101.372 75.715 101.587C76.1691 101.799 76.5353 102.098 76.8137 102.482C77.0955 102.867 77.2628 103.316 77.3159 103.83H75.8691C75.7896 103.472 75.6073 103.163 75.3223 102.905C75.0405 102.646 74.6627 102.517 74.1887 102.517C73.7744 102.517 73.4115 102.626 73.1 102.845C72.7917 103.061 72.5514 103.369 72.3791 103.77C72.2067 104.168 72.1206 104.638 72.1206 105.182C72.1206 105.739 72.2051 106.219 72.3741 106.624C72.5431 107.028 72.7818 107.341 73.09 107.563C73.4016 107.785 73.7678 107.896 74.1887 107.896C74.4705 107.896 74.7257 107.845 74.9544 107.742C75.1864 107.636 75.3803 107.485 75.536 107.29C75.6951 107.094 75.8062 106.859 75.8691 106.584H77.3159C77.2628 107.078 77.1021 107.518 76.8336 107.906C76.5652 108.294 76.2056 108.599 75.7548 108.821C75.3074 109.043 74.782 109.154 74.1788 109.154ZM82.1967 109.154C81.4444 109.154 80.7964 108.993 80.2528 108.672C79.7126 108.347 79.295 107.891 79 107.305C78.7083 106.715 78.5625 106.024 78.5625 105.232C78.5625 104.449 78.7083 103.76 79 103.163C79.295 102.567 79.706 102.101 80.233 101.766C80.7633 101.432 81.383 101.264 82.0923 101.264C82.5232 101.264 82.9408 101.335 83.3452 101.478C83.7495 101.621 84.1125 101.844 84.4339 102.149C84.7554 102.454 85.009 102.85 85.1946 103.337C85.3802 103.821 85.473 104.41 85.473 105.102V105.629H79.4027V104.516H84.0163C84.0163 104.125 83.9368 103.778 83.7777 103.477C83.6186 103.172 83.3949 102.931 83.1065 102.756C82.8215 102.58 82.4867 102.492 82.1023 102.492C81.6847 102.492 81.3201 102.595 81.0085 102.8C80.7003 103.003 80.4616 103.268 80.2926 103.596C80.1269 103.921 80.044 104.274 80.044 104.655V105.525C80.044 106.035 80.1335 106.469 80.3125 106.827C80.4948 107.185 80.7483 107.459 81.0732 107.648C81.398 107.833 81.7775 107.926 82.2116 107.926C82.4934 107.926 82.7502 107.886 82.9822 107.807C83.2143 107.724 83.4148 107.601 83.5838 107.439C83.7528 107.277 83.8821 107.076 83.9716 106.837L85.3786 107.091C85.2659 107.505 85.0637 107.868 84.772 108.18C84.4837 108.488 84.1207 108.728 83.6832 108.901C83.2491 109.07 82.7536 109.154 82.1967 109.154ZM87.1223 109V101.364H88.6088V109H87.1223ZM87.873 100.185C87.6145 100.185 87.3925 100.099 87.2069 99.9268C87.0246 99.7512 86.9334 99.5424 86.9334 99.3004C86.9334 99.0552 87.0246 98.8464 87.2069 98.674C87.3925 98.4983 87.6145 98.4105 87.873 98.4105C88.1316 98.4105 88.352 98.4983 88.5343 98.674C88.7199 98.8464 88.8127 99.0552 88.8127 99.3004C88.8127 99.5424 88.7199 99.7512 88.5343 99.9268C88.352 100.099 88.1316 100.185 87.873 100.185ZM90.6087 111.864V101.364H92.0604V102.602H92.1847C92.2708 102.442 92.3951 102.259 92.5575 102.05C92.7199 101.841 92.9453 101.659 93.2337 101.503C93.522 101.344 93.9032 101.264 94.3771 101.264C94.9936 101.264 95.5438 101.42 96.0277 101.732C96.5116 102.043 96.8911 102.492 97.1662 103.079C97.4446 103.665 97.5838 104.371 97.5838 105.197C97.5838 106.022 97.4463 106.73 97.1712 107.32C96.8961 107.906 96.5182 108.359 96.0376 108.677C95.5571 108.992 95.0085 109.149 94.392 109.149C93.928 109.149 93.5485 109.071 93.2536 108.915C92.9619 108.76 92.7332 108.577 92.5675 108.369C92.4018 108.16 92.2741 107.974 92.1847 107.812H92.0952V111.864H90.6087ZM92.0653 105.182C92.0653 105.719 92.1432 106.189 92.299 106.594C92.4548 106.998 92.6802 107.315 92.9751 107.543C93.2701 107.769 93.6314 107.881 94.0589 107.881C94.5031 107.881 94.8743 107.764 95.1726 107.528C95.4709 107.29 95.6963 106.967 95.8487 106.559C96.0045 106.151 96.0824 105.692 96.0824 105.182C96.0824 104.678 96.0062 104.226 95.8537 103.825C95.7045 103.424 95.4792 103.107 95.1776 102.875C94.8793 102.643 94.5064 102.527 94.0589 102.527C93.6281 102.527 93.2635 102.638 92.9652 102.86C92.6702 103.082 92.4465 103.392 92.294 103.79C92.1416 104.187 92.0653 104.652 92.0653 105.182ZM102.814 101.364V102.557H98.6428V101.364H102.814ZM99.7614 99.5341H101.248V106.758C101.248 107.046 101.291 107.263 101.377 107.409C101.463 107.552 101.574 107.649 101.71 107.702C101.849 107.752 102 107.777 102.163 107.777C102.282 107.777 102.386 107.769 102.476 107.752C102.565 107.736 102.635 107.722 102.685 107.712L102.953 108.94C102.867 108.973 102.744 109.007 102.585 109.04C102.426 109.076 102.227 109.096 101.989 109.099C101.598 109.106 101.233 109.036 100.895 108.891C100.557 108.745 100.283 108.519 100.075 108.214C99.8658 107.91 99.7614 107.527 99.7614 107.066V99.5341ZM110.058 103.228L108.71 103.467C108.654 103.294 108.564 103.13 108.442 102.974C108.322 102.819 108.16 102.691 107.955 102.592C107.749 102.492 107.492 102.442 107.184 102.442C106.763 102.442 106.412 102.537 106.13 102.726C105.848 102.911 105.707 103.152 105.707 103.447C105.707 103.702 105.802 103.907 105.991 104.063C106.18 104.219 106.485 104.347 106.906 104.446L108.119 104.724C108.821 104.887 109.345 105.137 109.69 105.475C110.034 105.813 110.207 106.252 110.207 106.793C110.207 107.25 110.074 107.658 109.809 108.016C109.547 108.37 109.181 108.649 108.71 108.851C108.243 109.053 107.701 109.154 107.085 109.154C106.229 109.154 105.532 108.972 104.991 108.607C104.451 108.239 104.12 107.717 103.997 107.041L105.434 106.822C105.523 107.197 105.707 107.48 105.986 107.673C106.264 107.862 106.627 107.956 107.075 107.956C107.562 107.956 107.951 107.855 108.243 107.653C108.535 107.447 108.68 107.197 108.68 106.902C108.68 106.663 108.591 106.463 108.412 106.3C108.236 106.138 107.966 106.015 107.602 105.933L106.309 105.649C105.596 105.487 105.069 105.228 104.728 104.874C104.39 104.519 104.221 104.07 104.221 103.526C104.221 103.076 104.347 102.681 104.599 102.343C104.851 102.005 105.199 101.741 105.643 101.553C106.087 101.36 106.596 101.264 107.169 101.264C107.994 101.264 108.644 101.443 109.118 101.801C109.592 102.156 109.905 102.631 110.058 103.228Z" fill="#A3A3A3"/>
<path d="M18.1903 81L25.6136 66.3068V66.1875H16.9972V63.5455H28.8864V66.2472L21.4716 81H18.1903ZM29.9155 77.7614V75.2472L37.3217 63.5455H39.4183V67.125H38.1399L33.1541 75.0256V75.1619H43.4922V77.7614H29.9155ZM38.2422 81V76.9943L38.2763 75.8693V63.5455H41.2592V81H38.2422Z" fill="#1E1B18"/>
<circle cx="32" cy="32" r="16" fill="#FF947A"/>
<path fill-rule="evenodd" clip-rule="evenodd" d="M25.6001 27.2C25.6001 25.4327 27.0328 24 28.8001 24H33.6001V27.2C33.6001 28.9673 35.0328 30.4 36.8001 30.4H38.4001V36.8C38.4001 38.5673 36.9674 40 35.2001 40H28.8001C27.0328 40 25.6001 38.5673 25.6001 36.8V27.2ZM28.8001 31.2C28.3583 31.2 28.0001 31.5582 28.0001 32C28.0001 32.4418 28.3583 32.8 28.8001 32.8H30.4001C30.8419 32.8 31.2001 32.4418 31.2001 32C31.2001 31.5582 30.8419 31.2 30.4001 31.2H28.8001ZM28.8001 34.4C28.3583 34.4 28.0001 34.7582 28.0001 35.2C28.0001 35.6418 28.3583 36 28.8001 36H32.0001C32.4419 36 32.8001 35.6418 32.8001 35.2C32.8001 34.7582 32.4419 34.4 32.0001 34.4H28.8001ZM35.7455 25.759L35.6408 27.3303C35.6086 27.8132 36.0093 28.2139 36.4922 28.1817L38.0635 28.077C38.7493 28.0313 39.062 27.1991 38.576 26.7131L37.1094 25.2466C36.6234 24.7605 35.7913 25.0732 35.7455 25.759Z" fill="white"/>
</svg>
